<?xml version="1.0" encoding="UTF-8"?>
<!DOCTYPE svg PUBLIC "-//W3C//DTD SVG 1.1//EN" "http://www.w3.org/Graphics/SVG/1.1/DTD/svg11.dtd">
<!-- Creator: CorelDRAW -->
<svg xmlns="http://www.w3.org/2000/svg" xml:space="preserve" width="260.2mm" height="90.332mm" version="1.1" style="shape-rendering:geometricPrecision; text-rendering:geometricPrecision; image-rendering:optimizeQuality; fill-rule:evenodd; clip-rule:evenodd"
viewBox="0 0 15381.74 5339.98"
 xmlns:xlink="http://www.w3.org/1999/xlink"
 xmlns:xodm="http://www.corel.com/coreldraw/odm/2003">
 <defs>
  <style type="text/css">
   <![CDATA[
    .fil0 {fill:#ECEEEF;fill-rule:nonzero}
    .fil2 {fill:#596065;fill-rule:nonzero}
    .fil1 {fill:#3C4246;fill-rule:nonzero}
   ]]>
  </style>
 </defs>
 <g id="Camada_x0020_1">
  <metadata id="CorelCorpID_0Corel-Layer"/>
  <path class="fil0" d="M7975.39 3354.3l0 -115.85 -115.26 0 0 -48.47 115.26 0 0 -115.26 49.06 0 0 115.26 115.26 0 0 48.47 -115.26 0 0 115.85 -49.06 0zm317.16 -160.7c23.33,0 43.24,8.32 59.68,24.91 16.45,16.58 24.7,36.56 24.7,59.89 0,23.33 -8.23,43.22 -24.7,59.68 -16.46,16.47 -36.39,24.7 -59.68,24.7l-34.57 0c-23.29,0 -43.22,-8.23 -59.69,-24.7 -16.46,-16.46 -24.7,-36.36 -24.7,-59.68l0 -119.37c0,-23.33 8.23,-43.22 24.7,-59.69 16.46,-16.46 36.36,-24.7 59.69,-24.7l34.57 0c23.33,0 43.22,8.23 59.68,24.7 16.46,16.46 24.7,36.36 24.7,59.69l-49.8 0c0,-6.04 -1.58,-11.74 -4.74,-17.09 -3.15,-5.34 -7.42,-9.62 -12.76,-12.76 -5.33,-3.14 -11.08,-4.73 -17.08,-4.73l-34.57 0c-9.3,0 -17.45,3.44 -24.29,10.29 -6.85,6.85 -10.29,14.99 -10.29,24.29l0 42.39c11.26,-5.21 22.78,-7.82 34.58,-7.82l34.57 0zm0 119.37c9.61,0 17.79,-3.38 24.49,-10.09 6.7,-6.7 10.09,-14.89 10.09,-24.49 0,-9.6 -3.43,-17.77 -10.29,-24.49 -6.86,-6.72 -14.99,-10.09 -24.28,-10.09l-34.57 0c-9.3,0 -17.43,3.36 -24.29,10.09 -6.86,6.72 -10.29,14.89 -10.29,24.49 0,6.31 1.6,12.09 4.74,17.29 3.14,5.2 7.42,9.42 12.76,12.56 5.34,3.14 11.05,4.74 17.09,4.74l34.57 0zm-377.54 -328.98l73.31 -0.09c1.9,-50.09 0.17,-103.95 0.23,-154.44 0.07,-50.77 -9.08,-106.9 50.85,-107.92 87.05,-1.49 39.87,147.03 54.73,261.22l72.3 0.35c0.74,-52.38 -0.43,-105.25 -0.05,-157.52 0.35,-48.94 -3.11,-105.33 55.18,-104.81 58.88,0.53 52.71,56.86 53.3,104.79 0.63,51.86 -2.13,107.54 0.69,158.65l73.42 -0.63c3.92,-64.22 9.98,-228.71 -20.28,-272.31 -18.86,-27.18 -42.55,-50.76 -88.77,-57.94 -54.24,-8.44 -79.55,16 -111.18,36.21 -18.41,-9.97 -43.83,-43.79 -107.85,-35.26 -111.24,14.82 -106.39,114.64 -106.6,182.9 -0.13,43.77 -3.84,105.1 0.72,146.8zm1330.68 -40.39l10.66 0c6.85,0 12.45,5.6 12.45,12.44l0 31.04c0,6.84 -5.61,12.44 -12.45,12.44l-10.66 0c-6.85,0 -12.46,-5.6 -12.46,-12.44l0 -31.04c0,-6.85 5.6,-12.44 12.46,-12.44zm-700.32 244.18c23.33,0 43.24,8.31 59.71,24.91 16.47,16.61 24.7,36.58 24.7,59.91 0,23.33 -8.23,43.24 -24.7,59.71 -16.47,16.47 -36.38,24.71 -59.71,24.71l-118.58 0 0 -49.82 118.58 0c9.61,0 17.78,-3.38 24.5,-10.1 6.72,-6.72 10.09,-14.89 10.09,-24.5 0,-9.61 -3.36,-17.78 -10.09,-24.5 -6.72,-6.72 -14.9,-10.09 -24.5,-10.09l-34.17 0c-23.33,0 -43.24,-8.31 -59.71,-24.91 -16.47,-16.61 -24.7,-36.58 -24.7,-59.91 0,-23.33 8.23,-43.23 24.7,-59.71 16.47,-16.47 36.37,-24.71 59.71,-24.71l101.7 0 0 49.83 -101.7 0c-9.33,0 -17.43,3.43 -24.29,10.29 -6.87,6.86 -10.29,15.03 -10.29,24.51 0,9.47 3.43,17.56 10.29,24.29 6.86,6.72 14.96,10.09 24.29,10.09l34.17 0zm417.13 -119l2.47 0 -0.13 -1.25 117.59 0.38c12.67,206.89 232.94,212.29 304.8,103.23 61.71,-93.67 49.75,-298.95 -219.39,-252.34 -31.95,-86.02 -62.02,-41.83 34.32,-142.86 20.54,-21.56 46.91,-38.47 70.03,-58.28l61.63 -65.53 -320.08 2.22 1.74 -109.12 479.61 2.05c-0.21,75.01 17.42,87.51 -34,134.78 -31.28,28.74 -128.32,106.37 -142.29,131.67 103.42,24.7 185.05,84.26 209.58,193.83 24.17,107.96 -15.31,224.63 -101.94,285.69 -94.55,66.67 -211.43,85.14 -313.71,25.37 -60.42,-35.3 -101.5,-77.07 -125.55,-143.84l-46.09 182.26 -51.48 0 -46.94 -186.12 -46.94 186.12 -51.47 0 -72.89 -288.25 51.47 0 46.95 186.12 46.94 -186.12 51.48 0 47.35 186.12 46.94 -186.12zm357.66 20.61l0 -10.66c0,-6.85 5.6,-12.45 12.46,-12.45l43.49 0c6.83,0 12.44,5.61 12.44,12.45l0 10.66c0,6.85 -5.61,12.46 -12.44,12.46l-43.49 0c-6.85,0 -12.46,-5.6 -12.46,-12.46zm-202.17 0l0 -10.66c0,-6.85 5.61,-12.45 12.44,-12.45l43.49 0c6.86,0 12.46,5.61 12.46,12.45l0 10.66c0,6.85 -5.6,12.46 -12.46,12.46l-43.49 0c-6.83,0 -12.44,-5.6 -12.44,-12.46zm225.61 94.77l7.17 -7.89c4.6,-5.07 4.22,-12.96 -0.83,-17.57l-32.18 -29.26c-5.05,-4.61 -12.98,-4.22 -17.59,0.83l-7.18 7.89c-4.59,5.06 -4.22,12.97 0.85,17.57l32.17 29.27c5.07,4.6 12.98,4.23 17.59,-0.85zm-180.03 0l-7.17 -7.89c-4.6,-5.06 -4.23,-12.96 0.84,-17.57l32.17 -29.26c5.07,-4.6 12.98,-4.23 17.58,0.83l7.18 7.89c4.6,5.06 4.22,12.98 -0.84,17.57l-32.17 29.27c-5.05,4.6 -12.98,4.22 -17.59,-0.85zm82.13 -32.42l10.66 0c6.85,0 12.45,5.61 12.45,12.46l0 43.49c0,6.83 -5.61,12.44 -12.45,12.44l-10.66 0c-6.85,0 -12.46,-5.6 -12.46,-12.44l0 -43.49c0,-6.85 5.6,-12.46 12.46,-12.46zm-1788.32 -477.11l1.4 72.11c32.08,-13.93 37.58,-30.07 90.27,-23.96 35.49,4.11 57.08,26.66 69.47,53.84 52.32,114.85 -92.89,199.08 -170.26,103.29 -23.05,-28.54 -20.54,-60.41 -20.65,-100.75 -0.22,-82.64 1.42,-166.3 -0.14,-248.74l-74.04 -0.47c-0.21,70.02 -7.86,290.56 10.01,342.51 8.9,25.88 32.36,60.62 50.71,76.5 127.94,110.65 347,-14.15 275.13,-193.03 -36.78,-91.55 -152.52,-129.72 -231.91,-81.3zm1282.34 71.07l0.33 -75.05c-173.23,-81.9 -329.36,135.36 -185.15,276.12 57.49,56.12 161.52,54.43 224.09,7.74 10.55,-7.86 12.27,-13.56 22.06,-24.09 13.37,-14.38 26.54,-30.97 33.05,-56.01 19.52,-75.12 5.91,-252.04 8.49,-342.61l-73.1 -0.66c-10,99.51 15.44,299.55 -14.99,344.4 -14.95,22.03 -42.42,45.73 -81.67,46.55 -71.71,1.5 -123.41,-68.78 -95.94,-141 19.32,-50.77 67.92,-68.16 119.37,-56.06 19.01,4.46 27.28,14.77 43.47,20.66zm-998.92 -86.34l-52.64 0.7c-2.91,80.41 -2.28,58.94 53.35,63.26l0.26 259.08 72.9 0.19 -0.04 -260.66 73.21 0.51c5.98,-8.64 30.75,-52.38 33.8,-62.34l-105.68 -1.44c-2.34,-75.48 27.67,-63.74 88.74,-67.85l0.29 -60.79c-105.94,-15.53 -158.34,22.27 -164.18,129.34zm651.63 324.53l72.84 -0.38 -0.84 -322.68 -71.77 -1.73 -0.24 324.79zm491.37 -0.34l71.8 -0.01 0.44 -323.37 -71.68 -0.25 -0.56 323.63zm0.01 -384.34l70.26 1.06 0.81 -67.78 -71.93 -1.56 0.85 68.28zm-491.5 0.51l69.72 -0.17 1.83 -67.99 -71.39 -0.25 -0.17 68.41zm3747.63 459.16c-5.15,10.08 -11.35,19.05 -18.55,26.86 -7.24,7.86 -15.48,14.59 -24.75,20.19 -6.24,3.82 -13.18,7.12 -20.76,9.86 -7.58,2.71 -15.8,4.88 -24.59,6.49 -8.84,1.59 -20.02,2.81 -33.52,3.59 -13.37,0.79 -29.08,1.19 -47.06,1.19l-152.69 0 -3.27 0 0 -3.27 0 -434.79 0 -3.27 3.27 0 189.52 0c23.01,0 43.04,2.3 60.07,6.93 17.17,4.66 31.37,11.72 42.59,21.14 11.23,9.42 19.69,21.42 25.31,35.95 5.56,14.36 8.36,31.19 8.36,50.43 0,11.98 -1.25,22.95 -3.72,32.86 -2.49,9.97 -6.27,18.93 -11.31,26.83 -4.99,7.95 -11.28,14.99 -18.91,21.09 -5.6,4.48 -11.9,8.43 -18.89,11.94 8.36,3.04 15.95,6.84 22.75,11.41 9,6.05 16.62,13.43 22.85,22.16 6.22,8.77 10.91,18.56 14,29.38 3.09,10.73 4.61,22.52 4.61,35.3 0,12.41 -1.27,24.26 -3.81,35.56 -2.54,11.29 -6.39,22.01 -11.5,32.16zm-89.52 -70.02c0,-7.53 -1.07,-14.08 -3.21,-19.63 -2.06,-5.44 -5.2,-9.98 -9.36,-13.61 -4.16,-3.64 -9.43,-6.44 -15.74,-8.29 -6.48,-1.9 -14.1,-2.88 -22.81,-2.88l-82.42 0 0 89.59 72.38 0c11.68,0 21.58,-0.88 29.63,-2.68 7.92,-1.74 14.08,-4.33 18.51,-7.71 4.26,-3.3 7.48,-7.8 9.67,-13.46 2.22,-5.87 3.36,-12.98 3.36,-21.33zm-56.37 -133.2c8.19,0 15.3,-0.84 21.29,-2.5 5.85,-1.62 10.71,-4.04 14.51,-7.21 3.72,-3.11 6.55,-7.07 8.42,-11.82 1.94,-4.89 2.91,-10.66 2.91,-17.32 0,-12.22 -3.52,-21.37 -10.54,-27.46 -3.54,-3.04 -7.98,-5.39 -13.28,-6.96 -5.43,-1.58 -11.79,-2.4 -19.07,-2.4l-81.42 0 0 75.68 77.17 0zm502.82 328.3l-682.3 0c-11.44,0 -22.4,-2.31 -32.41,-6.5 -10.37,-4.35 -19.76,-10.73 -27.59,-18.63 -7.86,-7.85 -14.21,-17.27 -18.53,-27.7 -4.16,-10.03 -6.47,-21.06 -6.47,-32.55l0 -384.36c0,-11.5 2.31,-22.52 6.47,-32.57 4.32,-10.44 10.66,-19.86 18.53,-27.73 7.84,-7.89 17.23,-14.28 27.59,-18.61 10.01,-4.2 20.97,-6.51 32.41,-6.51l682.3 0 687.2 0c11.44,0 22.39,2.31 32.41,6.51 10.36,4.33 19.75,10.72 27.59,18.61 7.85,7.88 14.22,17.31 18.54,27.73 4.16,10.04 6.48,21.07 6.48,32.57l0 384.36c0,11.47 -2.32,22.5 -6.48,32.53 -4.32,10.42 -10.69,19.87 -18.54,27.72 -7.84,7.9 -17.23,14.28 -27.59,18.63 -10.03,4.2 -20.96,6.5 -32.41,6.5l-687.2 0zm-682.3 34.56l1369.5 0c16.11,0 31.5,-3.25 45.52,-9.1 14.6,-6.08 27.77,-15.03 38.79,-26.09 11.04,-11.11 19.95,-24.34 26,-39 5.83,-14.08 9.06,-29.56 9.06,-45.76l0 -384.36c0,-16.24 -3.23,-31.69 -9.06,-45.81 -6.05,-14.65 -14.97,-27.91 -26,-38.97 -11.02,-11.07 -24.18,-20.03 -38.79,-26.12 -14.04,-5.86 -29.42,-9.1 -45.52,-9.1l-1369.5 0c-16.11,0 -31.49,3.24 -45.5,9.1 -14.61,6.09 -27.8,15.05 -38.83,26.12 -11.02,11.07 -19.94,24.32 -25.99,38.97 -5.84,14.12 -9.07,29.58 -9.07,45.81l0 384.36c0,16.2 3.23,31.68 9.07,45.76 6.05,14.66 14.96,27.89 25.99,39 11.03,11.05 24.19,20 38.83,26.11 14.01,5.83 29.39,9.09 45.5,9.09zm774.02 -98.01l0 -161.2 0 -3.29 3.29 0 163.62 0 0 -83.55 -163.62 0 -3.29 0 0 -3.27 0 -90.1 0 -3.27 3.29 0 189.03 0 0 -83.52 -278.32 0 0 428.19 86 0zm352.88 -219.83l-125.08 221.5 -2.75 4.89 5.6 0 114.57 0 1.97 0 0.9 -1.77 63.36 -120.83 62.64 120.82 0.93 1.77 1.98 0 115.32 0 5.64 0 -2.81 -4.91 -126.33 -221.5 119.19 -210.01 2.77 -4.91 -5.61 0 -113.98 0 -1.96 0 -0.92 1.79 -56.82 110.63 -56.92 -110.65 -0.91 -1.77 -2 0 -114.04 0 -5.59 0 2.73 4.87 118.13 210.07zm-1185.27 -186.79l1.32 397.73c3.09,15.4 9.39,26.75 18.77,34.17 9.45,7.48 22.26,11.14 38.24,11.14l679.04 0 0 -29.85 -7.37 0 -85.03 0 -3.27 0 0 -3.27 0 -161.21 -151.7 0 -3.27 0 0 -3.27 0 -90.11 0 -3.27 3.27 0 151.7 0 0 -83.54 -175.28 0 -3.29 0 0 -3.28 0 -90.09 0 -3.27 3.29 0 270.94 0 0 -28.69 -692.34 -0.51c-15.32,3.11 -26.61,9.43 -33.99,18.86 -7.43,9.51 -11.05,22.38 -11.05,38.48zm2688.22 -594.13c31.28,0 57.99,11.15 80.05,33.4 22.06,22.25 33.13,49.04 33.13,80.33 0,31.28 -11.04,57.97 -33.13,80.05 -22.08,22.09 -48.81,33.13 -80.05,33.13l-46.38 0c-31.24,0 -57.97,-11.04 -80.06,-33.13 -22.09,-22.08 -33.12,-48.77 -33.12,-80.05l0 -160.11c0,-31.29 11.04,-57.97 33.12,-80.06 22.09,-22.09 48.77,-33.13 80.06,-33.13l46.38 0c31.28,0 57.97,11.04 80.05,33.13 22.09,22.09 33.13,48.77 33.13,80.06l-66.8 0c0,-8.1 -2.12,-15.75 -6.35,-22.92 -4.23,-7.17 -9.96,-12.9 -17.12,-17.11 -7.15,-4.21 -14.86,-6.35 -22.91,-6.35l-46.38 0c-12.47,0 -23.4,4.62 -32.58,13.8 -9.18,9.18 -13.8,20.11 -13.8,32.58l0 56.86c15.09,-6.99 30.55,-10.49 46.38,-10.49l46.38 0zm0 160.11c12.88,0 23.85,-4.53 32.84,-13.53 8.99,-9 13.53,-19.97 13.53,-32.85 0,-12.88 -4.61,-23.84 -13.81,-32.85 -9.2,-9.02 -20.1,-13.53 -32.57,-13.53l-46.38 0c-12.47,0 -23.38,4.51 -32.58,13.53 -9.2,9.02 -13.8,19.97 -13.8,32.85 0,8.47 2.14,16.22 6.35,23.18 4.21,6.98 9.96,12.63 17.11,16.84 7.15,4.21 14.82,6.35 22.92,6.35l46.38 0zm-3934.98 -182.75c31.28,0 57.98,11.05 80.05,33.13 22.08,22.07 33.13,48.78 33.13,80.05l0 23.19c0,31.27 -11.04,57.97 -33.13,80.05 -22.08,22.09 -48.78,33.13 -80.05,33.13l-46.38 0c-31.27,0 -57.97,-11.04 -80.06,-33.13 -22.09,-22.08 -33.12,-48.77 -33.12,-80.05l66.8 0c0,12.88 4.61,23.84 13.8,32.85 9.19,9.01 20.06,13.53 32.58,13.53l46.38 0c12.51,0 23.38,-4.52 32.57,-13.53 9.2,-9.01 13.81,-19.97 13.81,-32.85l0 -23.19c0,-12.88 -4.61,-23.83 -13.81,-32.84 -9.2,-9.02 -20.07,-13.53 -32.57,-13.53l-159.56 0 0 -203.73 249.54 0 0 66.81 -182.74 0 0 70.12 92.76 0zm-3916.46 91.65l44.16 0 0 66.81 -44.16 0 0 90.55 -66.81 0 0 -90.55 -161.76 0 0 -66.81 161.76 -229.12 66.81 0 0 229.12zm-66.81 0l0 -112.63 -79.5 112.63 79.5 0zm8005.96 2703.29c0,31.47 -11.11,58.32 -33.33,80.54 22.22,22.23 33.33,49.07 33.33,80.55 0,31.48 -11.11,58.33 -33.33,80.55 -22.22,22.22 -49.26,33.33 -81.1,33.33l-159.98 0 0 -67.21 159.98 0c12.96,0 24.08,-4.54 33.33,-13.61 9.26,-9.07 13.89,-20.09 13.89,-33.06 0,-8.52 -2.13,-16.39 -6.39,-23.61 -4.26,-7.22 -10,-12.87 -17.22,-16.94 -7.22,-4.07 -14.91,-6.11 -23.05,-6.11l-114.43 0 0 -67.77 114.43 0c8.15,0 15.83,-2.04 23.05,-6.11 7.22,-4.07 12.87,-9.73 16.94,-16.94 4.07,-7.22 6.11,-15 6.11,-23.34 0,-8.33 -2.04,-16.11 -6.11,-23.33 -4.07,-7.21 -9.72,-12.96 -16.94,-17.22 -7.22,-4.26 -15.1,-6.38 -23.61,-6.38l-159.98 0 0 -67.21 159.98 0c12.59,0 24.72,1.95 36.39,5.83 11.66,3.89 22.13,9.36 31.38,16.39 9.25,7.03 17.41,15.19 24.44,24.44 7.03,9.26 12.51,19.73 16.39,31.38 3.88,11.66 5.83,23.61 5.83,35.84zm-4166.35 161.09l0 46.67 207.2 0 0 67.21 -274.41 0 0 -113.88c0,-20.74 5.1,-39.9 15.28,-57.49 10.19,-17.59 24.08,-31.48 41.66,-41.66 17.59,-10.18 36.57,-15.28 56.94,-15.28l46.66 0c12.59,0 23.52,-4.54 32.77,-13.61 9.25,-9.07 13.89,-20.09 13.89,-33.05 0,-12.96 -4.64,-23.99 -13.89,-33.06 -9.25,-9.06 -20.19,-13.61 -32.77,-13.61l-46.66 0c-12.59,0 -23.53,4.55 -32.77,13.61 -9.26,9.07 -13.89,20.09 -13.89,33.06l-67.21 0c0,-31.48 11.11,-58.33 33.33,-80.55 22.22,-22.22 49.07,-33.33 80.55,-33.33l46.66 0c31.48,0 58.32,11.11 80.54,33.33 22.22,22.22 33.33,49.07 33.33,80.55 0,31.47 -11.11,58.42 -33.33,80.82 -22.22,22.4 -49.08,33.61 -80.54,33.61l-46.66 0c-12.59,0 -23.52,4.54 -32.77,13.61 -9.26,9.07 -13.89,20.1 -13.89,33.05zm-3951.46 -274.97l94.99 0 0 388.85 -67.21 0 0 -321.63 -52.22 0 24.44 -67.21z"/>
  <g id="_1813042640">
   <path class="fil1" d="M11.82 5328.16l15358.1 0 0 -5316.34 -15358.1 0 0 5316.34zm15364.01 11.82l-15375.83 0 0 -5339.98 15381.74 0 0 5339.98 -5.91 0zm-10133.48 -4091.26l0 2736.67 -2.68 8.07c-2.41,9.64 -4.4,18.21 -7.51,27.53l-2.75 10.98c-10.65,15.97 -15.72,26.21 -28.48,38.96l-5.1 7.64c-208.43,173.69 -3804.83,41.98 -4351.37,41.98l-10.02 -2.5 -7.51 0c-9.85,-2.47 -18.72,-4.52 -28.26,-7.69l-10.97 -2.74c-15.93,-10.55 -26.28,-15.78 -38.98,-28.49l-7.94 -5.3c-11.56,-17.28 -21.13,-31.61 -31.25,-49.48 -91.52,-314.94 -10.44,-2296.59 -10.44,-2781.35l2.5 -10.01 0 -10.22 2.7 -8.09 5.23 -20.93 5.17 -7.75 2.51 -7.51 5.24 -7.87c4.43,-8.87 5.41,-10.66 10.84,-18.78l7.52 -5.01 4.81 -7.22c35.53,-29.56 40.31,-28.92 86.21,-41.98l4275.17 0c6.48,1.63 11.43,2.93 17.69,5.01l10.9 0 8.13 5.43 10.03 2.5c12.93,8.68 25.92,17.42 38.93,25.95 34.61,35.16 36.06,46.45 49.65,93.84l0 18.33zm-11.82 2720.79l0 -2737.51 -9.69 -33.91 -7.12 -16.62 -9.58 -14.38 -11.94 -14.32 -7.11 -7.11 -36.14 -24.09 -9.98 -2.5 -6.88 -4.58 -9.13 0 -8.07 -2.68 -9.28 -2.32 -4272.16 0 -33.92 9.69 -16.62 7.12 -14.38 9.58 -14.04 11.7 -5.2 7.8 -7.5 5 -4.2 6.3c-4.07,8.13 -4.92,9.87 -9.75,17.11l-2.5 7.5 -4.85 7.27c-2.27,9.1 -4.14,17.23 -7.08,26.03l0 9.81 -2.5 10.01 0 2724.76 4.87 34.1 4.71 16.49 9.59 16.78 19.21 28.83 7.08 4.72 7.5 7.51 28.59 19.06c6.2,1.55 10.56,2.76 16.56,4.76l19.28 4.82 7.51 0 10.01 2.5 4245.1 0 34.09 -4.87 16.87 -4.82 16.62 -7.12 14.38 -9.58 14.04 -11.7c5.68,-8.51 4.8,-7.25 12.4,-14.85l19.09 -28.64c1.54,-6.18 2.77,-10.55 4.76,-16.53 2.35,-9.38 4.3,-17.88 7.32,-26.97l0 -14.14zm770.57 69.34c2.58,-97.66 33.33,-188.3 84.41,-264.1 52.58,-78.03 126.71,-140.38 213.82,-178.53l4.23 -1.84c7.71,-3.26 15.35,-5.32 22.68,-6.16 12.41,-1.43 24.04,0.56 33.86,5.86 9.91,5.36 17.91,14.03 22.94,25.89 2.56,6.02 4.35,12.86 5.23,20.48 0.43,3.65 0.05,9.22 0.05,13.08 0,8.46 3.49,16.2 9.1,21.81 5.59,5.6 13.31,9.09 21.8,9.09l161.07 0c8.51,0 16.24,-3.47 21.82,-9.06 5.61,-5.6 9.08,-13.34 9.08,-21.84l0 -18.64 0.14 -0.65c1.11,-5.34 2.64,-10.26 4.52,-14.71 5.57,-13.22 14.28,-22.3 24.98,-27.39 10.6,-5.04 23.05,-6.08 36.27,-3.32 5.26,1.1 10.7,2.83 16.2,5.15l13.61 6.01c83.03,38.19 153.78,98.6 204.6,173.57 49.47,72.97 80.09,159.78 84.81,253.36l0.47 11.94c0.09,4.19 -0.12,8.09 -0.64,11.69 -1.8,12.5 -7.13,22.34 -15.39,29.19 -8.15,6.74 -19.04,10.44 -32.08,10.75 -4.57,0.11 -9.39,-0.2 -14.38,-0.91l-0.6 -0.09 -17.59 -6.39c-7.93,-2.88 -16.39,-2.23 -23.6,1.12 -7.13,3.3 -13.01,9.28 -15.93,17.1l-55.18 151.6c-2.88,7.94 -2.25,16.42 1.11,23.63 3.35,7.18 9.41,13.11 17.36,16 3.55,1.29 9.12,2.9 12.28,4.52 4.42,2.21 8.64,5.05 12.48,8.35 8.83,7.58 15.96,17.78 19.6,28.67 3.76,11.3 3.84,23.39 -1.65,34.35 -1.51,3.03 -3.44,5.95 -5.79,8.69l-5.73 6.54c-46.43,52.19 -103.76,94.56 -168.4,123.56 -62.21,27.92 -131.17,43.46 -203.7,43.46 -72.44,0 -141.33,-15.51 -203.47,-43.36 -64.58,-28.94 -121.86,-71.22 -168.29,-123.27l-4.08 -4.63c-2.44,-2.8 -4.43,-5.8 -6,-8.95 -5.56,-11.11 -5.57,-23.57 -1.83,-35.22 3.63,-11.31 10.82,-21.92 19.8,-29.74 3.87,-3.35 8.1,-6.23 12.53,-8.45 3.23,-1.64 8.67,-3.21 12.27,-4.52 7.99,-2.9 14.07,-8.83 17.42,-16.01 3.35,-7.17 3.97,-15.62 1.06,-23.62l-55.1 -151.35c-2.89,-7.96 -8.84,-14.03 -16.03,-17.38 -7.19,-3.35 -15.65,-3.98 -23.59,-1.09l-17.58 6.4 -0.6 0.09c-3.45,0.5 -7.05,0.72 -10.66,0.66 -12.16,-0.19 -24.39,-3.61 -34.05,-10.12 -10.02,-6.75 -17.36,-16.79 -19.26,-29.94 -0.34,-2.34 -0.49,-4.84 -0.46,-7.45l0.09 -3.86zm94.2 -257.49c-49.88,74.01 -79.91,162.48 -82.42,257.75l-0.09 3.79c-0.03,1.89 0.1,3.78 0.36,5.6 1.37,9.51 6.78,16.83 14.19,21.82 7.76,5.23 17.69,7.98 27.61,8.13 2.73,0.04 5.5,-0.12 8.25,-0.48l16.42 -5.98c11,-4 22.68,-3.14 32.6,1.47 9.92,4.62 18.12,13.01 22.13,24.07l55.1 151.35c4.01,11.03 3.14,22.71 -1.48,32.63 -4.62,9.92 -13.02,18.1 -24.06,22.11l-11.39 4.15c-3.39,1.74 -6.66,3.99 -9.68,6.62 -7.44,6.5 -13.38,15.22 -16.34,24.46 -2.85,8.88 -2.93,18.23 1.14,26.35 1.09,2.18 2.54,4.34 4.36,6.43l4.03 4.58c45.35,50.84 101.27,92.12 164.25,120.34 60.62,27.18 127.88,42.3 198.67,42.3 70.88,0 138.22,-15.16 198.9,-42.4 63.06,-28.29 119.02,-69.67 164.38,-120.63l5.59 -6.37c1.75,-2.04 3.15,-4.15 4.22,-6.29 3.97,-7.92 3.84,-16.88 1.02,-25.35 -2.96,-8.86 -8.82,-17.2 -16.09,-23.45 -3.06,-2.62 -6.34,-4.87 -9.72,-6.6l-11.4 -4.15c-11.04,-4.02 -19.43,-12.2 -24.05,-22.1 -4.62,-9.93 -5.49,-21.63 -1.48,-32.64l55.09 -151.36c4,-10.99 12.19,-19.38 22.12,-24.01 9.6,-4.49 20.87,-5.47 31.56,-1.89l17.47 6.34c4.21,0.58 8.18,0.82 11.85,0.73 10.29,-0.24 18.71,-3.03 24.82,-8.08 5.98,-4.96 9.88,-12.3 11.24,-21.75 0.44,-3.04 0.63,-6.28 0.55,-9.66l-0.47 -11.75c-4.61,-91.35 -34.49,-176.08 -82.77,-247.3 -49.62,-73.2 -118.68,-132.17 -199.7,-169.44l-13.34 -5.91c-4.75,-2 -9.45,-3.5 -14.03,-4.45 -10.71,-2.23 -20.61,-1.47 -28.83,2.44 -8.1,3.85 -14.78,10.91 -19.16,21.3 -1.5,3.54 -2.74,7.51 -3.69,11.89l0 17.54c0,11.73 -4.8,22.4 -12.54,30.15 -7.77,7.77 -18.45,12.57 -30.18,12.57l-161.07 0c-11.73,0 -22.4,-4.82 -30.14,-12.56 -7.77,-7.75 -12.59,-18.45 -12.59,-30.17l0 -12.14c-0.76,-6.31 -2.23,-11.92 -4.31,-16.79 -3.94,-9.29 -10.11,-16.03 -17.68,-20.12 -7.68,-4.14 -16.92,-5.68 -26.93,-4.52 -6.22,0.72 -12.75,2.47 -19.35,5.28l-4.21 1.83c-85,37.22 -157.37,98.1 -208.72,174.31zm403.64 -2087.96c-72.44,0 -141.32,-15.5 -203.47,-43.36 -64.57,-28.94 -121.85,-71.22 -168.29,-123.28l-4.08 -4.63c-2.44,-2.79 -4.43,-5.8 -6.01,-8.96 -5.56,-11.11 -5.56,-23.57 -1.82,-35.21 3.63,-11.3 10.82,-21.91 19.8,-29.73 3.87,-3.35 8.11,-6.24 12.54,-8.46 3.23,-1.64 8.67,-3.21 12.27,-4.52 7.99,-2.9 14.07,-8.83 17.42,-16.01 3.35,-7.17 3.97,-15.62 1.06,-23.62l-55.1 -151.35c-2.89,-7.96 -8.83,-14.03 -16.02,-17.39 -7.19,-3.35 -15.65,-3.98 -23.6,-1.09l-17.57 6.4 -0.61 0.09c-3.48,0.5 -7.1,0.72 -10.74,0.66 -12.14,-0.2 -24.36,-3.62 -34.01,-10.13 -10,-6.74 -17.33,-16.75 -19.22,-29.88 -0.35,-2.34 -0.5,-4.86 -0.46,-7.51l0.09 -3.85c2.64,-97.69 33.42,-188.35 84.49,-264.16 52.56,-78 126.65,-140.33 213.74,-178.47l4.23 -1.84c7.72,-3.27 15.36,-5.33 22.69,-6.17 12.4,-1.43 24.02,0.56 33.83,5.86 9.9,5.36 17.9,14.02 22.94,25.86 2.57,6.04 4.36,12.89 5.24,20.52 0.43,3.65 0.05,9.22 0.05,13.08 0,8.48 3.48,16.22 9.07,21.81 5.62,5.59 13.35,9.09 21.83,9.09l161.07 0c8.51,0 16.24,-3.47 21.82,-9.06 5.61,-5.6 9.08,-13.34 9.08,-21.84l0 -18.64 0.14 -0.65c1.12,-5.35 2.65,-10.27 4.53,-14.74 5.58,-13.21 14.27,-22.27 24.96,-27.36 10.59,-5.03 23.03,-6.08 36.24,-3.32 5.27,1.11 10.71,2.83 16.23,5.16l6.85 2.96 6.76 3.06c83.03,38.21 153.77,98.6 204.59,173.57 49.47,72.97 80.08,159.78 84.82,253.36l0.47 11.94c0.1,4.2 -0.12,8.1 -0.64,11.73 -1.8,12.48 -7.13,22.3 -15.38,29.14 -8.13,6.74 -19,10.43 -32.03,10.75 -4.59,0.11 -9.43,-0.19 -14.45,-0.91l-0.6 -0.09 -17.58 -6.39c-7.95,-2.89 -16.41,-2.25 -23.61,1.11 -7.12,3.3 -12.99,9.28 -15.92,17.11l-55.18 151.61c-2.89,7.95 -2.26,16.42 1.08,23.6 3.35,7.19 9.42,13.13 17.38,16.03 3.55,1.29 9.12,2.9 12.28,4.52 4.42,2.21 8.64,5.05 12.49,8.36 8.82,7.58 15.96,17.76 19.59,28.66 3.77,11.28 3.84,23.37 -1.64,34.34 -1.52,3.03 -3.45,5.96 -5.81,8.7l-5.7 6.54c-46.47,52.19 -103.79,94.57 -168.43,123.57 -62.21,27.91 -131.16,43.46 -203.69,43.46zm-198.67 -54.11c60.62,27.18 127.88,42.29 198.67,42.29 70.88…102 tokens truncated….23,0.59 8.22,0.82 11.91,0.73 10.27,-0.25 18.68,-3.03 24.77,-8.08 5.98,-4.95 9.87,-12.27 11.23,-21.71 0.44,-3.06 0.63,-6.3 0.54,-9.69l-0.47 -11.75c-4.62,-91.36 -34.51,-176.09 -82.78,-247.31 -49.62,-73.19 -118.66,-132.16 -199.68,-169.43l-13.34 -5.91c-4.76,-2.01 -9.47,-3.51 -14.05,-4.46 -10.71,-2.23 -20.6,-1.47 -28.81,2.44 -8.1,3.85 -14.77,10.9 -19.15,21.28 -1.5,3.55 -2.75,7.54 -3.7,11.93l0 17.53c0,11.73 -4.8,22.4 -12.54,30.15 -7.77,7.77 -18.45,12.57 -30.18,12.57l-161.07 0c-11.75,0 -22.43,-4.82 -30.17,-12.55 -7.75,-7.77 -12.56,-18.46 -12.56,-30.17l0 -12.14c-0.76,-6.32 -2.24,-11.94 -4.32,-16.83 -3.94,-9.27 -10.1,-16 -17.68,-20.09 -7.66,-4.14 -16.91,-5.68 -26.9,-4.52 -6.23,0.72 -12.75,2.48 -19.37,5.29l-4.21 1.83c-84.98,37.21 -157.31,98.07 -208.63,174.25 -49.88,74.02 -79.94,162.51 -82.51,257.8l-0.09 3.79c-0.03,1.89 0.09,3.78 0.36,5.6 1.37,9.51 6.76,16.82 14.15,21.8 7.75,5.23 17.67,7.99 27.59,8.15 2.74,0.04 5.53,-0.12 8.3,-0.48l16.42 -5.98c11.01,-4.01 22.69,-3.15 32.61,1.47 9.91,4.62 18.11,13.02 22.12,24.08l55.1 151.35c4.01,11.03 3.14,22.71 -1.48,32.63 -4.62,9.92 -13.02,18.1 -24.06,22.11l-11.4 4.15c-3.39,1.73 -6.66,4 -9.68,6.63 -7.43,6.5 -13.37,15.22 -16.33,24.44 -2.85,8.88 -2.93,18.23 1.14,26.35 1.09,2.18 2.55,4.34 4.37,6.44l4.03 4.58c45.36,50.84 101.27,92.12 164.25,120.35zm3813.83 -243.66l-55.1 -151.35c-2.89,-7.96 -8.83,-14.03 -16.02,-17.39 -7.19,-3.35 -15.65,-3.98 -23.6,-1.09l-17.57 6.4 -0.61 0.09c-3.48,0.5 -7.1,0.72 -10.74,0.66 -12.14,-0.2 -24.36,-3.62 -34.01,-10.13 -10,-6.74 -17.33,-16.75 -19.22,-29.88 -0.35,-2.34 -0.5,-4.86 -0.46,-7.51l0.09 -3.85c2.61,-97.68 33.38,-188.33 84.46,-264.13 52.56,-78.01 126.68,-140.35 213.77,-178.5l4.23 -1.84c7.72,-3.27 15.36,-5.33 22.69,-6.17 12.4,-1.43 24.02,0.56 33.83,5.86 9.9,5.36 17.9,14.02 22.94,25.86 2.57,6.04 4.36,12.89 5.24,20.52 0.43,3.65 0.05,9.22 0.05,13.08 0,8.48 3.48,16.22 9.07,21.81 5.62,5.59 13.35,9.09 21.83,9.09l161.07 0c8.51,0 16.24,-3.47 21.82,-9.06 5.61,-5.6 9.08,-13.34 9.08,-21.84l0 -18.64 0.14 -0.65c1.12,-5.35 2.65,-10.27 4.53,-14.74 5.58,-13.21 14.27,-22.27 24.96,-27.36 10.59,-5.03 23.03,-6.08 36.24,-3.32 5.27,1.11 10.71,2.83 16.23,5.16l6.85 2.96 6.76 3.06c83.03,38.21 153.77,98.6 204.59,173.57 49.47,72.97 80.08,159.78 84.82,253.36l0.47 11.94c0.1,4.2 -0.12,8.1 -0.64,11.73 -1.8,12.48 -7.13,22.3 -15.38,29.14 -8.13,6.74 -19,10.43 -32.03,10.75 -4.59,0.11 -9.43,-0.19 -14.45,-0.91l-0.6 -0.09 -17.58 -6.39c-7.95,-2.89 -16.41,-2.25 -23.61,1.11 -7.12,3.3 -12.99,9.28 -15.92,17.11l-55.18 151.61c-2.89,7.95 -2.26,16.42 1.08,23.6 3.35,7.19 9.42,13.13 17.38,16.03 3.55,1.29 9.12,2.9 12.28,4.52 4.42,2.21 8.64,5.05 12.49,8.36 8.82,7.58 15.96,17.76 19.59,28.66 3.77,11.28 3.84,23.37 -1.64,34.34 -1.52,3.03 -3.45,5.96 -5.81,8.7l-5.7 6.54c-46.47,52.19 -103.79,94.57 -168.43,123.57 -62.21,27.91 -131.16,43.46 -203.69,43.46 -72.44,0 -141.32,-15.5 -203.47,-43.36 -64.57,-28.94 -121.85,-71.22 -168.29,-123.28l-4.08 -4.63c-2.44,-2.79 -4.43,-5.8 -6.01,-8.96 -5.56,-11.11 -5.56,-23.57 -1.82,-35.21 3.63,-11.3 10.82,-21.91 19.8,-29.73 3.87,-3.35 8.11,-6.24 12.54,-8.46 3.23,-1.64 8.67,-3.21 12.27,-4.52 7.99,-2.9 14.07,-8.83 17.42,-16.01 3.35,-7.17 3.97,-15.62 1.06,-23.62zm-44.01 -155.37l55.1 151.35c4.01,11.03 3.14,22.71 -1.48,32.63 -4.62,9.92 -13.02,18.1 -24.06,22.11l-11.4 4.15c-3.39,1.73 -6.66,4 -9.68,6.63 -7.43,6.5 -13.37,15.22 -16.33,24.44 -2.85,8.88 -2.93,18.23 1.14,26.35 1.09,2.18 2.55,4.34 4.37,6.44l4.03 4.58c45.36,50.84 101.27,92.12 164.25,120.35 60.62,27.18 127.88,42.29 198.67,42.29 70.88,0 138.21,-15.16 198.89,-42.39 63.05,-28.29 118.99,-69.66 164.36,-120.61l5.61 -6.4c1.75,-2.04 3.16,-4.16 4.23,-6.3 3.96,-7.92 3.83,-16.87 1,-25.34 -2.96,-8.86 -8.81,-17.19 -16.08,-23.43 -3.06,-2.63 -6.35,-4.88 -9.72,-6.61l-11.4 -4.15c-11.05,-4.02 -19.45,-12.21 -24.07,-22.13 -4.61,-9.91 -5.47,-21.6 -1.46,-32.61l55.09 -151.36c4.01,-11.01 12.18,-19.4 22.11,-24.02 9.6,-4.5 20.86,-5.46 31.57,-1.87l17.48 6.34c4.23,0.59 8.22,0.82 11.91,0.73 10.27,-0.25 18.68,-3.03 24.77,-8.08 5.98,-4.95 9.87,-12.27 11.23,-21.71 0.44,-3.06 0.63,-6.3 0.54,-9.69l-0.47 -11.75c-4.62,-91.36 -34.51,-176.09 -82.78,-247.31 -49.62,-73.19 -118.66,-132.16 -199.68,-169.43l-13.34 -5.91c-4.76,-2.01 -9.47,-3.51 -14.05,-4.46 -10.71,-2.23 -20.6,-1.47 -28.81,2.44 -8.1,3.85 -14.77,10.9 -19.15,21.28 -1.5,3.55 -2.75,7.54 -3.7,11.93l0 17.53c0,11.73 -4.8,22.4 -12.54,30.15 -7.77,7.77 -18.45,12.57 -30.18,12.57l-161.07 0c-11.75,0 -22.43,-4.82 -30.17,-12.55 -7.75,-7.77 -12.56,-18.46 -12.56,-30.17l0 -12.14c-0.76,-6.32 -2.24,-11.94 -4.32,-16.83 -3.94,-9.27 -10.1,-16 -17.68,-20.09 -7.66,-4.14 -16.91,-5.68 -26.9,-4.52 -6.23,0.72 -12.75,2.48 -19.37,5.29l-4.21 1.83c-84.99,37.22 -157.33,98.09 -208.67,174.28 -49.88,74.02 -79.93,162.5 -82.47,257.78l-0.09 3.79c-0.03,1.89 0.09,3.78 0.36,5.6 1.37,9.51 6.76,16.82 14.15,21.8 7.75,5.23 17.67,7.99 27.59,8.15 2.74,0.04 5.53,-0.12 8.3,-0.48l16.42 -5.98c11.01,-4.01 22.69,-3.15 32.61,1.47 9.91,4.62 18.11,13.02 22.12,24.08zm-133.23 2798.6c2.58,-97.66 33.33,-188.3 84.41,-264.1 52.58,-78.03 126.71,-140.38 213.82,-178.53l4.23 -1.84c7.71,-3.26 15.35,-5.32 22.68,-6.16 12.41,-1.43 24.04,0.56 33.86,5.86 9.91,5.36 17.91,14.03 22.94,25.89 2.56,6.02 4.35,12.86 5.23,20.48 0.43,3.65 0.05,9.22 0.05,13.08 0,8.46 3.49,16.2 9.1,21.81 5.59,5.6 13.31,9.09 21.8,9.09l161.07 0c8.51,0 16.24,-3.47 21.82,-9.06 5.61,-5.6 9.08,-13.34 9.08,-21.84l0 -18.64 0.14 -0.65c1.11,-5.34 2.64,-10.26 4.52,-14.71 5.57,-13.22 14.28,-22.3 24.98,-27.39 10.6,-5.04 23.05,-6.08 36.27,-3.32 5.26,1.1 10.7,2.83 16.2,5.15l13.61 6.01c83.03,38.19 153.78,98.6 204.6,173.57 49.47,72.97 80.09,159.78 84.81,253.36l0.47 11.94c0.09,4.19 -0.12,8.09 -0.64,11.69 -1.8,12.5 -7.13,22.34 -15.39,29.19 -8.15,6.74 -19.04,10.44 -32.08,10.75 -4.57,0.11 -9.39,-0.2 -14.38,-0.91l-0.6 -0.09 -17.59 -6.39c-7.93,-2.88 -16.39,-2.23 -23.6,1.12 -7.13,3.3 -13.01,9.28 -15.93,17.1l-55.18 151.6c-2.88,7.94 -2.25,16.42 1.11,23.63 3.35,7.18 9.41,13.11 17.36,16 3.55,1.29 9.12,2.9 12.28,4.52 4.42,2.21 8.64,5.05 12.48,8.35 8.83,7.58 15.96,17.78 19.6,28.67 3.76,11.3 3.84,23.39 -1.65,34.35 -1.51,3.03 -3.44,5.95 -5.79,8.69l-5.73 6.54c-46.43,52.19 -103.76,94.56 -168.4,123.56 -62.21,27.92 -131.17,43.46 -203.7,43.46 -72.44,0 -141.33,-15.51 -203.47,-43.36 -64.58,-28.94 -121.86,-71.22 -168.29,-123.27l-4.08 -4.63c-2.44,-2.8 -4.43,-5.8 -6,-8.95 -5.56,-11.11 -5.57,-23.57 -1.83,-35.22 3.63,-11.31 10.82,-21.92 19.8,-29.74 3.87,-3.35 8.1,-6.23 12.53,-8.45 3.23,-1.64 8.67,-3.21 12.27,-4.52 7.99,-2.9 14.07,-8.83 17.42,-16.01 3.35,-7.17 3.97,-15.62 1.06,-23.62l-55.1 -151.35c-2.89,-7.96 -8.84,-14.03 -16.03,-17.38 -7.19,-3.35 -15.65,-3.98 -23.59,-1.09l-17.58 6.4 -0.6 0.09c-3.45,0.5 -7.05,0.72 -10.66,0.66 -12.16,-0.19 -24.39,-3.61 -34.05,-10.12 -10.02,-6.75 -17.36,-16.79 -19.26,-29.94 -0.34,-2.34 -0.49,-4.84 -0.46,-7.45l0.09 -3.86zm94.2 -257.49c-49.88,74.01 -79.91,162.48 -82.42,257.75l-0.09 3.79c-0.03,1.89 0.1,3.78 0.36,5.6 1.37,9.51 6.78,16.83 14.19,21.82 7.76,5.23 17.69,7.98 27.61,8.13 2.73,0.04 5.5,-0.12 8.25,-0.48l16.42 -5.98c11,-4 22.68,-3.14 32.6,1.47 9.92,4.62 18.12,13.01 22.13,24.07l55.1 151.35c4.01,11.03 3.14,22.71 -1.48,32.63 -4.62,9.92 -13.02,18.1 -24.06,22.11l-11.39 4.15c-3.39,1.74 -6.66,3.99 -9.68,6.62 -7.44,6.5 -13.38,15.22 -16.34,24.46 -2.85,8.88 -2.93,18.23 1.14,26.35 1.09,2.18 2.54,4.34 4.36,6.43l4.03 4.58c45.35,50.84 101.27,92.12 164.25,120.34 60.62,27.18 127.88,42.3 198.67,42.3 70.88,0 138.22,-15.16 198.9,-42.4 63.06,-28.29 119.02,-69.67 164.38,-120.63l5.59 -6.37c1.75,-2.04 3.15,-4.15 4.22,-6.29 3.97,-7.92 3.84,-16.88 1.02,-25.35 -2.96,-8.86 -8.82,-17.2 -16.09,-23.45 -3.06,-2.62 -6.34,-4.87 -9.72,-6.6l-11.4 -4.15c-11.04,-4.02 -19.43,-12.2 -24.05,-22.1 -4.62,-9.93 -5.49,-21.63 -1.48,-32.64l55.09 -151.36c4,-10.99 12.19,-19.38 22.12,-24.01 9.6,-4.49 20.87,-5.47 31.56,-1.89l17.47 6.34c4.21,0.58 8.18,0.82 11.85,0.73 10.29,-0.24 18.71,-3.03 24.82,-8.08 5.98,-4.96 9.88,-12.3 11.24,-21.75 0.44,-3.04 0.63,-6.28 0.55,-9.66l-0.47 -11.75c-4.61,-91.35 -34.49,-176.08 -82.77,-247.3 -49.62,-73.2 -118.68,-132.17 -199.7,-169.44l-13.34 -5.91c-4.75,-2 -9.45,-3.5 -14.03,-4.45 -10.71,-2.23 -20.61,-1.47 -28.83,2.44 -8.1,3.85 -14.78,10.91 -19.16,21.3 -1.5,3.54 -2.74,7.51 -3.69,11.89l0 17.54c0,11.73 -4.8,22.4 -12.54,30.15 -7.77,7.77 -18.45,12.57 -30.18,12.57l-161.07 0c-11.73,0 -22.4,-4.82 -30.14,-12.56 -7.77,-7.75 -12.59,-18.45 -12.59,-30.17l0 -12.14c-0.76,-6.31 -2.23,-11.92 -4.31,-16.79 -3.94,-9.29 -10.11,-16.03 -17.68,-20.12 -7.68,-4.14 -16.92,-5.68 -26.93,-4.52 -6.22,0.72 -12.75,2.47 -19.35,5.28l-4.21 1.83c-85,37.22 -157.37,98.1 -208.72,174.31zm3841.55 257.49c2.58,-97.66 33.33,-188.3 84.41,-264.1 52.58,-78.03 126.71,-140.38 213.82,-178.53l4.23 -1.84c7.71,-3.26 15.35,-5.32 22.68,-6.16 12.41,-1.43 24.04,0.56 33.86,5.86 9.91,5.36 17.91,14.03 22.94,25.89 2.56,6.02 4.35,12.86 5.23,20.48 0.43,3.65 0.05,9.22 0.05,13.08 0,8.46 3.49,16.2 9.1,21.81 5.59,5.6 13.31,9.09 21.8,9.09l161.07 0c8.51,0 16.24,-3.47 21.82,-9.06 5.61,-5.6 9.08,-13.34 9.08,-21.84l0 -18.64 0.14 -0.65c1.11,-5.34 2.64,-10.26 4.52,-14.71 5.57,-13.22 14.28,-22.3 24.98,-27.39 10.6,-5.04 23.05,-6.08 36.27,-3.32 5.26,1.1 10.7,2.83 16.2,5.15l13.61 6.01c83.03,38.19 153.78,98.6 204.6,173.57 49.47,72.97 80.09,159.78 84.81,253.36l0.47 11.99c0.09,4.14 -0.12,8.04 -0.64,11.65 -1.8,12.5 -7.13,22.34 -15.39,29.19 -8.15,6.74 -19.04,10.44 -32.08,10.75 -4.57,0.11 -9.39,-0.2 -14.38,-0.91l-0.6 -0.09 -17.58 -6.39c-7.93,-2.88 -16.39,-2.23 -23.6,1.12 -7.13,3.3 -13.01,9.28 -15.93,17.1l-55.18 151.6c-2.88,7.94 -2.25,16.42 1.11,23.63 3.35,7.18 9.41,13.11 17.36,16 3.6,1.31 9.04,2.88 12.28,4.52 4.42,2.21 8.64,5.05 12.48,8.35 8.83,7.58 15.96,17.78 19.6,28.67 3.76,11.3 3.84,23.39 -1.65,34.35 -1.51,3.03 -3.44,5.95 -5.79,8.69l-5.73 6.54c-46.43,52.19 -103.76,94.56 -168.4,123.56 -62.21,27.92 -131.17,43.46 -203.7,43.46 -72.44,0 -141.33,-15.51 -203.47,-43.36 -64.58,-28.94 -121.86,-71.22 -168.29,-123.27l-4.08 -4.63c-2.44,-2.8 -4.43,-5.8 -6,-8.95 -5.56,-11.11 -5.57,-23.57 -1.83,-35.22 3.63,-11.31 10.82,-21.92 19.8,-29.74 3.87,-3.35 8.1,-6.23 12.53,-8.45 3.16,-1.63 8.73,-3.23 12.27,-4.52 7.99,-2.9 14.07,-8.83 17.42,-16.01 3.35,-7.17 3.97,-15.62 1.06,-23.62l-55.1 -151.35c-2.89,-7.96 -8.84,-14.03 -16.03,-17.38 -7.19,-3.35 -15.66,-3.98 -23.59,-1.09l-17.59 6.4 -0.6 0.09c-3.45,0.5 -7.05,0.72 -10.66,0.66 -12.16,-0.19 -24.39,-3.61 -34.05,-10.12 -10.02,-6.75 -17.36,-16.79 -19.26,-29.94 -0.34,-2.34 -0.49,-4.84 -0.46,-7.45l0.09 -3.86zm94.2 -257.49c-49.88,74.01 -79.91,162.48 -82.42,257.75l-0.09 3.79c-0.03,1.89 0.1,3.78 0.36,5.6 1.37,9.51 6.78,16.83 14.19,21.82 7.76,5.23 17.69,7.98 27.61,8.13 2.73,0.04 5.5,-0.12 8.25,-0.48l16.42 -5.98c11,-4 22.68,-3.14 32.6,1.47 9.92,4.62 18.12,13.01 22.13,24.07l55.1 151.35c4.01,11.03 3.14,22.71 -1.48,32.63 -4.62,9.92 -13.02,18.1 -24.06,22.11l-11.39 4.15c-3.39,1.74 -6.66,3.99 -9.68,6.62 -7.44,6.5 -13.38,15.22 -16.34,24.46 -2.85,8.88 -2.93,18.23 1.14,26.35 1.09,2.18 2.54,4.34 4.36,6.43l4.03 4.58c45.35,50.84 101.27,92.12 164.25,120.34 60.62,27.18 127.88,42.3 198.67,42.3 70.88,0 138.22,-15.16 198.9,-42.4 63.06,-28.29 119.02,-69.67 164.38,-120.63l5.59 -6.37c1.75,-2.04 3.15,-4.15 4.22,-6.29 3.97,-7.92 3.84,-16.88 1.02,-25.35 -2.96,-8.86 -8.82,-17.2 -16.09,-23.45 -3.06,-2.62 -6.34,-4.87 -9.72,-6.6l-11.4 -4.15c-11.04,-4.02 -19.43,-12.2 -24.05,-22.1 -4.62,-9.93 -5.49,-21.63 -1.48,-32.64l55.09 -151.36c4,-10.99 12.19,-19.38 22.12,-24.01 9.61,-4.5 20.87,-5.47 31.56,-1.89l17.47 6.34c4.21,0.58 8.18,0.82 11.85,0.73 10.29,-0.24 18.71,-3.03 24.82,-8.08 5.98,-4.96 9.88,-12.3 11.24,-21.75 0.44,-3.06 0.63,-6.31 0.55,-9.71l-0.47 -11.7c-4.61,-91.35 -34.49,-176.08 -82.77,-247.3 -49.62,-73.2 -118.68,-132.17 -199.7,-169.44l-13.34 -5.91c-4.75,-2 -9.45,-3.5 -14.03,-4.45 -10.71,-2.23 -20.61,-1.47 -28.83,2.44 -8.1,3.85 -14.78,10.91 -19.16,21.3 -1.5,3.54 -2.74,7.51 -3.69,11.89l0 17.54c0,11.73 -4.8,22.4 -12.54,30.15 -7.77,7.77 -18.45,12.57 -30.18,12.57l-161.07 0c-11.73,0 -22.4,-4.82 -30.14,-12.56 -7.77,-7.75 -12.59,-18.45 -12.59,-30.17l0 -12.14c-0.76,-6.31 -2.23,-11.92 -4.31,-16.79 -3.94,-9.29 -10.11,-16.03 -17.68,-20.12 -7.68,-4.14 -16.92,-5.68 -26.93,-4.52 -6.22,0.72 -12.75,2.47 -19.35,5.28l-4.21 1.83c-85,37.22 -157.37,98.1 -208.72,174.31zm-94.2 -2599.79c2.61,-97.68 33.38,-188.32 84.46,-264.13 52.56,-78.01 126.68,-140.35 213.77,-178.5l4.23 -1.84c7.72,-3.27 15.36,-5.33 22.69,-6.17 12.4,-1.43 24.02,0.56 33.83,5.86 9.9,5.36 17.9,14.02 22.94,25.86 2.57,6.04 4.36,12.89 5.24,20.52 0.43,3.65 0.05,9.22 0.05,13.08 0,8.48 3.48,16.22 9.07,21.81 5.62,5.59 13.35,9.09 21.83,9.09l161.07 0c8.51,0 16.24,-3.47 21.82,-9.06 5.61,-5.6 9.08,-13.34 9.08,-21.84l0 -18.64 0.14 -0.65c1.12,-5.35 2.65,-10.27 4.53,-14.74 5.58,-13.21 14.27,-22.27 24.96,-27.36 10.59,-5.03 23.03,-6.08 36.24,-3.32 5.27,1.11 10.71,2.83 16.23,5.16l6.85 2.96 6.76 3.06c83.03,38.21 153.77,98.6 204.59,173.57 49.47,72.97 80.08,159.78 84.82,253.36l0.47 11.94c0.1,4.2 -0.12,8.1 -0.64,11.73 -1.8,12.48 -7.13,22.3 -15.38,29.14 -8.13,6.74 -19,10.43 -32.03,10.75 -4.59,0.11 -9.43,-0.19 -14.45,-0.91l-0.61 -0.09 -17.57 -6.39c-7.95,-2.89 -16.41,-2.25 -23.61,1.11 -7.12,3.3 -12.99,9.28 -15.92,17.11l-55.18 151.61c-2.89,7.95 -2.26,16.42 1.08,23.6 3.35,7.19 9.42,13.13 17.38,16.03 3.6,1.31 9.04,2.88 12.28,4.52 4.42,2.21 8.64,5.05 12.49,8.36 8.82,7.58 15.96,17.76 19.59,28.66 3.77,11.28 3.84,23.37 -1.64,34.34 -1.52,3.03 -3.45,5.96 -5.81,8.7l-5.7 6.54c-46.47,52.19 -103.79,94.57 -168.43,123.57 -62.21,27.91 -131.16,43.46 -203.69,43.46 -72.44,0 -141.32,-15.5 -203.47,-43.36 -64.57,-28.94 -121.85,-71.22 -168.29,-123.28l-4.08 -4.63c-2.44,-2.79 -4.43,-5.8 -6.01,-8.96 -5.56,-11.11 -5.56,-23.57 -1.82,-35.21 3.63,-11.3 10.82,-21.91 19.8,-29.73 3.87,-3.35 8.11,-6.24 12.54,-8.46 3.16,-1.63 8.73,-3.23 12.27,-4.52 7.99,-2.9 14.07,-8.83 17.42,-16.01 3.35,-7.17 3.97,-15.62 1.06,-23.62l-55.1 -151.35c-2.89,-7.96 -8.83,-14.03 -16.02,-17.39 -7.19,-3.35 -15.65,-3.98 -23.6,-1.09l-17.58 6.4 -0.6 0.09c-3.48,0.5 -7.1,0.72 -10.74,0.66 -12.14,-0.2 -24.36,-3.62 -34.01,-10.13 -10,-6.74 -17.33,-16.75 -19.22,-29.88 -0.35,-2.34 -0.5,-4.86 -0.46,-7.51l0.09 -3.86zm94.25 -257.52c-49.88,74.02 -79.93,162.5 -82.47,257.78l-0.09 3.79c-0.03,1.89 0.09,3.78 0.36,5.6 1.37,9.51 6.76,16.82 14.15,21.8 7.75,5.23 17.67,7.99 27.59,8.15 2.74,0.04 5.53,-0.12 8.3,-0.48l16.42 -5.98c11.01,-4.01 22.69,-3.15 32.61,1.47 9.91,4.62 18.11,13.02 22.12,24.08l55.1 151.35c4.01,11.03 3.14,22.71 -1.48,32.63 -4.62,9.92 -13.02,18.1 -24.06,22.11l-11.4 4.15c-3.39,1.73 -6.66,4 -9.68,6.63 -7.43,6.5 -13.37,15.22 -16.33,24.44 -2.85,8.88 -2.93,18.23 1.14,26.35 1.09,2.18 2.55,4.34 4.37,6.44l4.03 4.58c45.36,50.84 101.27,92.12 164.25,120.35 60.62,27.18 127.88,42.29 198.67,42.29 70.88,0 138.21,-15.16 198.89,-42.39 63.05,-28.29 118.99,-69.66 164.36,-120.61l5.61 -6.4c1.75,-2.04 3.16,-4.16 4.23,-6.3 3.96,-7.92 3.83,-16.87 1,-25.34 -2.96,-8.86 -8.81,-17.19 -16.08,-23.43 -3.06,-2.63 -6.35,-4.88 -9.72,-6.61l-11.4 -4.15c-11.05,-4.02 -19.45,-12.21 -24.07,-22.13 -4.61,-9.91 -5.47,-21.6 -1.46,-32.61l55.09 -151.36c4.01,-11.01 12.18,-19.4 22.11,-24.02 9.6,-4.5 20.87,-5.46 31.57,-1.87l17.48 6.34c4.23,0.59 8.22,0.82 11.91,0.73 10.27,-0.25 18.68,-3.03 24.77,-8.08 5.98,-4.95 9.87,-12.27 11.23,-21.71 0.44,-3.06 0.63,-6.3 0.54,-9.69l-0.47 -11.75c-4.62,-91.36 -34.51,-176.09 -82.78,-247.31 -49.62,-73.19 -118.66,-132.16 -199.68,-169.43l-13.34 -5.91c-4.76,-2.01 -9.47,-3.51 -14.05,-4.46 -10.71,-2.23 -20.6,-1.47 -28.81,2.44 -8.1,3.85 -14.77,10.9 -19.15,21.28 -1.5,3.55 -2.75,7.54 -3.7,11.93l0 17.53c0,11.73 -4.8,22.4 -12.54,30.15 -7.77,7.77 -18.45,12.57 -30.18,12.57l-161.07 0c-11.75,0 -22.43,-4.82 -30.17,-12.55 -7.75,-7.77 -12.56,-18.46 -12.56,-30.17l0 -12.14c-0.76,-6.32 -2.24,-11.94 -4.32,-16.83 -3.94,-9.27 -10.11,-16 -17.68,-20.09 -7.66,-4.14 -16.91,-5.68 -26.9,-4.52 -6.23,0.72 -12.75,2.48 -19.37,5.29l-4.21 1.83c-84.99,37.22 -157.33,98.09 -208.67,174.28z"/>
   <path class="fil2" d="M14367 3458.42c164.68,0 313.78,66.76 421.7,174.67 107.91,107.91 174.67,257.01 174.67,421.7 0,164.68 -66.76,313.78 -174.67,421.7 -107.91,107.91 -257.01,174.67 -421.7,174.67 -164.68,0 -313.78,-66.76 -421.7,-174.67 -107.91,-107.91 -174.67,-257.01 -174.67,-421.7 0,-164.68 66.76,-313.78 174.67,-421.7 107.91,-107.91 257.01,-174.67 421.7,-174.67zm414.32 182.04c-106.03,-106.02 -252.53,-171.62 -414.32,-171.62 -161.8,0 -308.29,65.59 -414.32,171.62 -106.02,106.03 -171.62,252.52 -171.62,414.32 0,161.79 65.59,308.29 171.62,414.32 106.03,106.02 252.52,171.62 414.32,171.62 161.79,0 308.29,-65.59 414.32,-171.62 106.02,-106.03 171.62,-252.53 171.62,-414.32 0,-161.8 -65.59,-308.29 -171.62,-414.32z"/>
   <path class="fil2" d="M10425.74 3458.42c164.68,0 313.78,66.76 421.7,174.67 107.91,107.91 174.67,257.01 174.67,421.7 0,164.68 -66.76,313.78 -174.67,421.7 -107.91,107.91 -257.01,174.67 -421.7,174.67 -164.68,0 -313.78,-66.76 -421.7,-174.67 -107.91,-107.91 -174.67,-257.01 -174.67,-421.7 0,-164.68 66.76,-313.78 174.67,-421.7 107.91,-107.91 257.01,-174.67 421.7,-174.67zm414.32 182.04c-106.03,-106.02 -252.52,-171.62 -414.32,-171.62 -161.79,0 -308.29,65.59 -414.32,171.62 -106.02,106.03 -171.62,252.52 -171.62,414.32 0,161.79 65.59,308.29 171.62,414.32 106.03,106.02 252.53,171.62 414.32,171.62 161.8,0 308.29,-65.59 414.32,-171.62 106.02,-106.03 171.62,-252.53 171.62,-414.32 0,-161.8 -65.59,-308.29 -171.62,-414.32z"/>
   <path class="fil2" d="M6499.5 3458.42c164.68,0 313.78,66.76 421.7,174.67 107.91,107.91 174.67,257.01 174.67,421.7 0,164.68 -66.76,313.78 -174.67,421.7 -107.91,107.91 -257.01,174.67 -421.7,174.67 -164.68,0 -313.78,-66.76 -421.7,-174.67 -107.91,-107.91 -174.67,-257.01 -174.67,-421.7 0,-164.68 66.76,-313.78 174.67,-421.7 107.91,-107.91 257.01,-174.67 421.7,-174.67zm414.32 182.04c-106.03,-106.02 -252.52,-171.62 -414.32,-171.62 -161.79,0 -308.29,65.59 -414.32,171.62 -106.02,106.03 -171.62,252.52 -171.62,414.32 0,161.79 65.59,308.29 171.62,414.32 106.03,106.02 252.53,171.62 414.32,171.62 161.8,0 308.29,-65.59 414.32,-171.62 106.02,-106.03 171.62,-252.53 171.62,-414.32 0,-161.8 -65.59,-308.29 -171.62,-414.32z"/>
   <path class="fil2" d="M14367 597.04c164.68,0 313.78,66.76 421.7,174.67 107.91,107.91 174.67,257.01 174.67,421.7 0,164.68 -66.76,313.78 -174.67,421.7 -107.91,107.91 -257.01,174.67 -421.7,174.67 -164.68,0 -313.78,-66.76 -421.7,-174.67 -107.91,-107.91 -174.67,-257.01 -174.67,-421.7 0,-164.68 66.76,-313.78 174.67,-421.7 107.91,-107.91 257.01,-174.67 421.7,-174.67zm414.32 182.04c-106.03,-106.02 -252.53,-171.62 -414.32,-171.62 -161.8,0 -308.29,65.59 -414.32,171.62 -106.02,106.03 -171.62,252.52 -171.62,414.32 0,161.79 65.59,308.29 171.62,414.32 106.03,106.02 252.52,171.62 414.32,171.62 161.79,0 308.29,-65.59 414.32,-171.62 106.02,-106.03 171.62,-252.53 171.62,-414.32 0,-161.8 -65.59,-308.29 -171.62,-414.32z"/>
   <path class="fil2" d="M10425.74 597.04c164.68,0 313.78,66.76 421.7,174.67 107.91,107.91 174.67,257.01 174.67,421.7 0,164.68 -66.76,313.78 -174.67,421.7 -107.91,107.91 -257.01,174.67 -421.7,174.67 -164.68,0 -313.78,-66.76 -421.7,-174.67 -107.91,-107.91 -174.67,-257.01 -174.67,-421.7 0,-164.68 66.76,-313.78 174.67,-421.7 107.91,-107.91 257.01,-174.67 421.7,-174.67zm414.32 182.04c-106.03,-106.02 -252.52,-171.62 -414.32,-171.62 -161.79,0 -308.29,65.59 -414.32,171.62 -106.02,106.03 -171.62,252.52 -171.62,414.32 0,161.79 65.59,308.29 171.62,414.32 106.03,106.02 252.53,171.62 414.32,171.62 161.8,0 308.29,-65.59 414.32,-171.62 106.02,-106.03 171.62,-252.53 171.62,-414.32 0,-161.8 -65.59,-308.29 -171.62,-414.32z"/>
   <path class="fil2" d="M6499.5 597.04c164.68,0 313.78,66.76 421.7,174.67 107.91,107.91 174.67,257.01 174.67,421.7 0,164.68 -66.76,313.78 -174.67,421.7 -107.91,107.91 -257.01,174.67 -421.7,174.67 -164.68,0 -313.78,-66.76 -421.7,-174.67 -107.91,-107.91 -174.67,-257.01 -174.67,-421.7 0,-164.68 66.76,-313.78 174.67,-421.7 107.91,-107.91 257.01,-174.67 421.7,-174.67zm414.32 182.04c-106.03,-106.02 -252.52,-171.62 -414.32,-171.62 -161.79,0 -308.29,65.59 -414.32,171.62 -106.02,106.03 -171.62,252.52 -171.62,414.32 0,161.79 65.59,308.29 171.62,414.32 106.03,106.02 252.53,171.62 414.32,171.62 161.8,0 308.29,-65.59 414.32,-171.62 106.02,-106.03 171.62,-252.53 171.62,-414.32 0,-161.8 -65.59,-308.29 -171.62,-414.32z"/>
  </g>
 </g>
</svg>

