<?xml version="1.0" encoding="UTF-8"?>
<!DOCTYPE svg PUBLIC "-//W3C//DTD SVG 1.1//EN" "http://www.w3.org/Graphics/SVG/1.1/DTD/svg11.dtd">
<!-- Creator: CorelDRAW -->
<svg xmlns="http://www.w3.org/2000/svg" xml:space="preserve" width="180.2mm" height="140.413mm" version="1.1" style="shape-rendering:geometricPrecision; text-rendering:geometricPrecision; image-rendering:optimizeQuality; fill-rule:evenodd; clip-rule:evenodd"
viewBox="0 0 8853.8 6898.93"
 xmlns:xlink="http://www.w3.org/1999/xlink"
 xmlns:xodm="http://www.corel.com/coreldraw/odm/2003">
 <defs>
  <style type="text/css">
   <![CDATA[
    .str0 {stroke:#373435;stroke-width:8.67;stroke-miterlimit:22.9256}
    .fil4 {fill:none}
    .fil3 {fill:#FEFEFE}
    .fil0 {fill:#373435}
    .fil2 {fill:#EC268F;fill-rule:nonzero}
    .fil1 {fill:#00AFEF;fill-rule:nonzero}
   ]]>
  </style>
 </defs>
 <g id="Camada_x0020_1">
  <metadata id="CorelCorpID_0Corel-Layer"/>
  <path class="fil0" d="M8451.57 1683.11l67.69 -39.1 53.46 27.04c2.76,-0.73 5.24,-2.52 6.77,-5.15l32.79 -63.36 -5.18 -6.76 -44.96 -25.96 0.01 -78.18 50.13 -32.73 -32.79 -63.36 -15.21 -4.08 -44.99 25.97 -67.73 -39.1 -3.26 -59.76c-2.01,-2.02 -4.79,-3.27 -7.84,-3.27l-71.26 3.27 -3.27 59.77 -67.73 39.09 -53.42 -27.05c-2.75,0.75 -5.23,2.54 -6.76,5.16l-32.77 63.36 50.1 32.73 0.01 78.18 -50.13 32.71 32.79 63.36 15.22 4.08 45 -25.96 67.69 39.09 3.27 59.75 71.26 3.28 11.09 -11.09 0 -51.93zm30.99 -152.39c0,40.74 -33.05,73.79 -73.8,73.79 -40.75,0 -73.79,-33.05 -73.79,-73.79 0,-40.75 33.04,-73.8 73.79,-73.8 40.75,0 73.8,33.05 73.8,73.8zm-54.07 629.71l36.26 -150.74 20.98 0 -36.46 150.74 -20.78 0zm103.04 -65.43c12.59,-11.75 20.3,-19.72 23.15,-23.9 3.84,-5.77 5.77,-11.48 5.77,-17.15 0,-6.24 -1.67,-11.03 -5.03,-14.39 -3.33,-3.37 -7.94,-5.03 -13.82,-5.03 -5.84,0 -10.46,1.76 -13.92,5.3 -3.43,3.49 -5.4,9.34 -5.94,17.52l-27.91 -2.78c1.66,-15.41 6.86,-26.48 15.61,-33.2 8.76,-6.69 19.69,-10.05 32.83,-10.05 14.4,0 25.7,3.9 33.95,11.68 8.22,7.77 12.32,17.45 12.32,29.02 0,6.59 -1.19,12.83 -3.53,18.81 -2.34,5.95 -6.08,12.16 -11.21,18.68 -3.36,4.34 -9.5,10.56 -18.33,18.67 -8.86,8.12 -14.46,13.48 -16.8,16.16 -2.38,2.65 -4.28,5.26 -5.74,7.78l55.61 0 0 25.87 -97.98 0c1.06,-9.85 4.25,-19.15 9.54,-27.94 5.3,-8.79 15.79,-20.47 31.41,-35.04zm117.2 61.44l0 -142.77c0,-15.88 -13,-28.88 -28.88,-28.88l-656.52 0c-15.88,0 -28.88,13 -28.88,28.88l0 142.77c0,15.88 13,28.88 28.88,28.88l656.52 0c15.88,0 28.88,-13 28.88,-28.88zm-253.07 -145.12l0 146.66 -27.9 0 0 -105.59c-10.19,9.58 -22.21,16.67 -36.06,21.26l0 -25.46c7.3,-2.38 15.21,-6.89 23.73,-13.58 8.56,-6.66 14.4,-14.43 17.59,-23.29l22.64 0zm-80.63 0.81l-35.14 145.85 -31.54 0 -28.76 -109.05 -28.96 109.05 -32.39 0 -34.29 -145.85 30.35 0 21.69 100.19 26.62 -100.19 35.11 0 25.47 101.89 22.2 -101.89 29.64 0zm-207.67 80.19c3.87,6.28 5.8,14.02 5.8,23.23 0,8.35 -2.31,16.19 -6.96,23.49 -4.65,7.3 -11.21,12.74 -19.69,16.26 -8.49,3.57 -19.08,5.33 -31.74,5.33 -18.43,0 -32.59,-4.25 -42.47,-12.76 -9.88,-8.49 -15.75,-20.88 -17.69,-37.14l28.72 -2.85c1.73,9.61 5.19,16.64 10.46,21.15 5.26,4.52 12.36,6.76 21.28,6.76 9.44,0 16.57,-2 21.36,-6.01 4.79,-4 7.2,-8.69 7.2,-14.06 0,-3.46 -1.02,-6.38 -3.02,-8.82 -2,-2.41 -5.54,-4.52 -10.56,-6.28 -3.43,-1.22 -11.24,-3.33 -23.46,-6.38 -15.72,-3.94 -26.75,-8.76 -33.1,-14.49 -8.93,-8.05 -13.38,-17.86 -13.38,-29.44 0,-7.43 2.11,-14.43 6.28,-20.91 4.21,-6.49 10.25,-11.41 18.16,-14.8 7.91,-3.4 17.41,-5.1 28.62,-5.1 18.23,0 31.98,4.04 41.18,12.16 9.24,8.12 14.06,18.91 14.53,32.46l-29.54 1.02c-1.26,-7.54 -3.94,-12.93 -8.05,-16.23 -4.11,-3.29 -10.28,-4.96 -18.5,-4.96 -8.49,0 -15.14,1.77 -19.93,5.3 -3.09,2.27 -4.65,5.3 -4.65,9.1 0,3.46 1.46,6.42 4.38,8.86 3.7,3.15 12.7,6.42 26.99,9.81 14.3,3.36 24.85,6.89 31.68,10.49 6.86,3.63 12.22,8.55 16.1,14.83zm12.23 433.63l0 142.77c0,15.88 13,28.88 28.88,28.88l431.6 0c15.88,0 28.88,-13 28.88,-28.88l0 -142.77c0,-15.88 -13,-28.88 -28.88,-28.88l-431.6 0c-15.88,0 -28.88,13 -28.88,28.88zm354.27 23.11l0 41.56 16.06 0c11.58,0 19.28,-0.78 23.19,-2.31 3.9,-1.53 6.96,-3.91 9.16,-7.2 2.21,-3.26 3.33,-7.03 3.33,-11.37 0,-5.33 -1.56,-9.71 -4.65,-13.17 -3.12,-3.46 -7.03,-5.64 -11.82,-6.52 -3.49,-0.64 -10.52,-0.98 -21.12,-0.98l-14.16 0zm-301.27 121.2l0 -145.85 107.96 0 0 24.65 -78.43 0 0 32.39 72.92 0 0 24.65 -72.92 0 0 39.52 81.28 0 0 24.65 -110.81 0zm121.1 0l50.35 -76.05 -45.66 -69.8 34.39 0 28.72 43.42 28.72 -43.42 34.46 0 -45.73 69.84 50.21 76.01 -35.38 0 -32.32 -49.4 -32.32 49.4 -35.44 0zm150.64 0l0 -145.85 47.22 0c17.89,0 29.54,0.71 34.97,2.18 8.35,2.21 15.34,6.96 20.98,14.29 5.64,7.33 8.46,16.8 8.46,28.41 0,8.96 -1.63,16.46 -4.85,22.58 -3.26,6.11 -7.37,10.9 -12.36,14.4 -4.99,3.46 -10.08,5.77 -15.25,6.89 -7.03,1.39 -17.18,2.1 -30.49,2.1l-19.15 0 0 55 -29.53 0zm-6142.65 2453.02l0 -96.29 -95.8 0 0 -40.28 95.8 0 0 -95.8 40.78 0 0 95.8 95.8 0 0 40.28 -95.8 0 0 96.29 -40.78 0zm-636.76 -2828.11l-156.82 0 0 -38.49 156.82 0 0 38.49zm0 -184.18l-156.82 0 0 -38.49 156.82 0 0 38.49zm-26.4 92.25l-130.42 0 0 -38.81 130.42 0 0 38.81zm-304.21 -130.74c20.15,0 38.76,4.98 55.83,14.95 17.07,9.97 30.6,23.49 40.56,40.56 9.97,17.07 14.95,35.68 14.95,55.83 0,12.09 -1.85,23.81 -5.57,35.15 -3.7,11.34 -9.02,21.58 -15.9,30.7 -6.89,9.12 -14.9,17.12 -24.02,24.01 -9.12,6.89 -19.36,12.2 -30.7,15.9 -11.34,3.71 -23.07,5.57 -35.15,5.57l-47.08 0 0 -38.49 47.08 0c9.97,0 19.4,-1.96 28.31,-5.89 8.91,-3.92 16.65,-9.12 23.22,-15.59 6.57,-6.46 11.78,-14.2 15.59,-23.22 3.82,-9.01 5.72,-18.4 5.72,-28.15 0,-20.15 -7.1,-37.33 -21.31,-51.54 -14.2,-14.2 -31.39,-21.31 -51.53,-21.31l-47.08 0 0 -38.49 47.08 0zm-270.01 14.95c17.07,-9.96 35.68,-14.95 55.83,-14.95 20.15,0 38.76,4.98 55.83,14.95 17.07,9.97 30.59,23.49 40.56,40.56 9.96,17.07 14.95,35.68 14.95,55.83 0,20.14 -4.98,38.76 -14.95,55.83 -9.97,17.07 -23.49,30.6 -40.56,40.56 -17.07,9.97 -35.68,14.95 -55.83,14.95 -20.14,0 -38.76,-4.98 -55.83,-14.95 -17.07,-9.96 -30.6,-23.49 -40.56,-40.56 -9.97,-17.06 -14.95,-35.68 -14.95,-55.83 0,-20.15 4.98,-38.76 14.95,-55.83 9.96,-17.07 23.49,-30.59 40.56,-40.56zm4.29 147.92c14.2,14.21 31.39,21.31 51.53,21.31 20.15,0 37.33,-7.1 51.54,-21.31 14.2,-14.2 21.31,-31.39 21.31,-51.53 0,-20.15 -7.1,-37.33 -21.31,-51.54 -14.2,-14.2 -31.39,-21.31 -51.54,-21.31 -20.14,0 -37.33,7.1 -51.53,21.31 -14.21,14.2 -21.31,31.39 -21.31,51.54 0,20.14 7.1,37.33 21.31,51.53zm-324.56 59.8l-39.77 0 56.31 -222.67 39.76 0 36.27 143.78 36.27 -143.78 39.76 0 56.31 222.67 -39.77 0 -36.26 -143.78 -36.27 143.78 -39.76 0 -36.58 -143.78 -36.26 143.78zm-1.28 -333.57l118.33 0 0 38.49 -118.33 0 -38.49 0 0 -222.67 38.49 0 0 184.18zm290.92 38.49l-38.49 0 0 -222.67 38.49 0 0 222.67zm296.33 -222.67l41.03 0 -81.11 222.67 -41.04 0 -81.12 -222.67 41.04 0 60.44 166.37 60.76 -166.37zm331.63 222.67l-156.82 0 0 -38.49 156.82 0 0 38.49zm0 -184.18l-156.82 0 0 -38.49 156.82 0 0 38.49zm-26.4 92.25l-130.42 0 0 -38.81 130.42 0 0 38.81zm6116.44 2313.96c26.07,0 48.37,9.33 66.72,27.84 18.35,18.51 27.61,40.88 27.61,66.95 0,26.08 -9.2,48.32 -27.61,66.72 -18.41,18.41 -40.75,27.61 -66.72,27.61l-38.65 0c-25.97,0 -48.32,-9.2 -66.72,-27.61 -18.41,-18.41 -27.61,-40.64 -27.61,-66.72l0 -133.45c0,-26.07 9.2,-48.32 27.61,-66.72 18.41,-18.41 40.65,-27.61 66.72,-27.61l38.65 0c26.07,0 48.32,9.2 66.72,27.61 18.41,18.41 27.61,40.65 27.61,66.72l-55.68 0c0,-6.75 -1.76,-13.12 -5.29,-19.1 -3.52,-5.98 -8.33,-10.79 -14.26,-14.27 -5.93,-3.47 -12.46,-5.29 -19.1,-5.29l-38.65 0c-10.33,0 -19.53,3.89 -27.15,11.5 -7.62,7.63 -11.51,16.82 -11.51,27.15l0 47.39c12.58,-5.82 25.47,-8.74 38.66,-8.74l38.65 0zm0 133.45c10.74,0 19.92,-3.81 27.38,-11.27 7.47,-7.46 11.28,-16.64 11.28,-27.38 0,-10.74 -3.84,-19.86 -11.51,-27.38 -7.66,-7.51 -16.82,-11.28 -27.15,-11.28l-38.65 0c-10.33,0 -19.48,3.76 -27.15,11.28 -7.66,7.51 -11.51,16.64 -11.51,27.38 0,7.06 1.82,13.55 5.3,19.33 3.47,5.78 8.33,10.55 14.26,14.03 5.94,3.47 12.35,5.29 19.1,5.29l38.65 0zm-3279.67 -152.31c26.07,0 48.35,9.24 66.72,27.61 18.37,18.37 27.61,40.73 27.61,66.72l0 19.33c0,26 -9.2,48.32 -27.61,66.72 -18.41,18.41 -40.73,27.61 -66.72,27.61l-38.65 0c-26,0 -48.32,-9.2 -66.73,-27.61 -18.41,-18.41 -27.61,-40.64 -27.61,-66.72l55.68 0c0,10.74 3.87,19.9 11.51,27.38 7.63,7.47 16.72,11.27 27.15,11.27l38.65 0c10.43,0 19.52,-3.8 27.15,-11.27 7.63,-7.48 11.51,-16.64 11.51,-27.38l0 -19.33c0,-10.73 -3.84,-19.86 -11.51,-27.38 -7.67,-7.51 -16.8,-11.28 -27.15,-11.28l-132.99 0 0 -169.79 207.99 0 0 55.68 -152.31 0 0 58.44 77.31 0zm-3264.24 76.39l36.81 0 0 55.68 -36.81 0 0 75.47 -55.68 0 0 -75.47 -134.82 0 0 -55.68 134.82 -190.97 55.68 0 0 190.97zm-55.68 0l0 -93.87 -66.26 93.87 66.26 0zm6693.92 2284.23c0,26.07 -9.2,48.32 -27.61,66.72 18.41,18.41 27.61,40.65 27.61,66.72 0,26.08 -9.2,48.32 -27.61,66.73 -18.41,18.41 -40.87,27.61 -67.18,27.61l-132.52 0 0 -55.68 132.52 0c10.74,0 19.98,-3.79 27.61,-11.27 7.64,-7.48 11.51,-16.64 11.51,-27.38 0,-7.06 -1.8,-13.61 -5.29,-19.56 -3.49,-5.95 -8.28,-10.66 -14.26,-14.04 -5.98,-3.37 -12.42,-5.06 -19.1,-5.06l-94.79 0 0 -56.14 94.79 0c6.75,0 13.11,-1.69 19.1,-5.06 5.98,-3.37 10.7,-8.09 14.03,-14.03 3.34,-5.95 5.06,-12.43 5.06,-19.33 0,-6.9 -1.72,-13.38 -5.06,-19.33 -3.34,-5.95 -8.09,-10.77 -14.03,-14.26 -5.95,-3.49 -12.57,-5.29 -19.56,-5.29l-132.52 0 0 -55.68 132.52 0c10.43,0 20.51,1.65 30.14,4.83 9.64,3.18 18.37,7.78 26,13.58 7.64,5.8 14.45,12.61 20.25,20.25 5.79,7.64 10.39,16.37 13.58,26 3.18,9.64 4.83,19.56 4.83,29.68zm-3451.31 133.45l0 38.65 171.64 0 0 55.68 -227.31 0 0 -94.34c0,-17.18 4.22,-33.05 12.66,-47.62 8.43,-14.57 19.94,-26.07 34.51,-34.51 14.57,-8.44 30.29,-12.66 47.17,-12.66l38.65 0c10.43,0 19.48,-3.76 27.15,-11.27 7.66,-7.52 11.51,-16.65 11.51,-27.38 0,-10.74 -3.87,-19.9 -11.51,-27.38 -7.63,-7.48 -16.79,-11.27 -27.15,-11.27l-38.65 0c-10.36,0 -19.53,3.79 -27.15,11.27 -7.64,7.48 -11.51,16.65 -11.51,27.38l-55.68 0c0,-26.07 9.2,-48.32 27.61,-66.72 18.41,-18.41 40.65,-27.61 66.73,-27.61l38.65 0c26.07,0 48.31,9.2 66.72,27.61 18.41,18.41 27.61,40.65 27.61,66.72 0,26.07 -9.2,48.4 -27.61,66.95 -18.41,18.56 -40.72,27.84 -66.72,27.84l-38.65 0c-10.36,0 -19.49,3.76 -27.15,11.28 -7.67,7.51 -11.51,16.78 -11.51,27.38zm-3273.29 -227.78l78.69 0 0 322.11 -55.68 0 0 -266.43 -43.25 0 20.25 -55.68zm1185.36 -1651.86l60.19 -0.08c1.57,-41.12 0.14,-85.34 0.19,-126.79 0.05,-41.68 -7.45,-87.76 41.74,-88.6 71.46,-1.23 32.73,120.7 44.93,214.44l59.35 0.29c0.61,-43 -0.35,-86.4 -0.04,-129.32 0.29,-40.17 -2.55,-86.47 45.3,-86.04 48.35,0.44 43.28,46.68 43.76,86.03 0.52,42.58 -1.74,88.29 0.57,130.25l60.27 -0.51c3.22,-52.72 8.19,-187.76 -16.65,-223.56 -15.49,-22.32 -34.92,-41.67 -72.87,-47.57 -44.53,-6.92 -65.31,13.14 -91.27,29.73 -15.12,-8.19 -35.99,-35.95 -88.54,-28.95 -91.32,12.17 -87.34,94.11 -87.51,150.16 -0.11,35.93 -3.15,86.28 0.59,120.51zm1092.41 -33.16l8.75 0c5.62,0 10.22,4.66 10.22,10.22l0 25.48c0,5.55 -4.67,10.21 -10.22,10.21l-8.75 0c-5.56,0 -10.22,-4.6 -10.22,-10.21l0 -25.48c0,-5.63 4.59,-10.22 10.22,-10.22zm-873.07 102.76l166.65 0 -85.86 236.64 -43.61 0 70.99 -195.73 -108.17 0 0 -40.9zm298.15 97.7c19.16,0 35.53,6.86 49.02,20.45 13.49,13.6 20.28,30.04 20.28,49.19 0,19.16 -6.76,35.49 -20.28,49.02 -13.52,13.52 -29.93,20.29 -49.02,20.29l-97.35 0 0 -40.9 97.35 0c7.89,0 14.63,-2.8 20.12,-8.29 5.49,-5.48 8.28,-12.22 8.28,-20.11 0,-7.89 -2.79,-14.63 -8.28,-20.12 -5.49,-5.48 -12.29,-8.28 -20.12,-8.28l-28.06 0c-19.09,0 -35.53,-6.85 -49.02,-20.45 -13.48,-13.6 -20.28,-30.04 -20.28,-49.19 0,-19.15 6.8,-35.52 20.28,-49.02 13.49,-13.49 29.86,-20.29 49.02,-20.29l83.49 0 0 40.9 -83.49 0c-7.59,0 -14.34,2.86 -19.94,8.45 -5.6,5.61 -8.45,12.35 -8.45,20.12 0,7.77 2.84,14.45 8.45,19.94 5.6,5.48 12.28,8.28 19.94,8.28l28.06 0zm342.43 -97.7l2.02 0 -0.11 -1.03 96.54 0.31c10.4,169.84 191.23,174.28 250.22,84.74 50.66,-76.89 40.84,-245.42 -180.11,-207.16 -26.23,-70.62 -50.92,-34.34 28.18,-117.28 16.87,-17.69 38.51,-31.58 57.49,-47.84l50.6 -53.8 -262.77 1.82 1.43 -89.58 393.72 1.69c-0.17,61.58 14.3,71.84 -27.91,110.64 -25.68,23.6 -105.35,87.33 -116.81,108.1 84.9,20.28 151.91,69.17 172.05,159.12 19.84,88.63 -12.57,184.41 -83.68,234.53 -77.63,54.73 -173.57,69.89 -257.53,20.83 -49.6,-28.98 -83.33,-63.27 -103.07,-118.09l-37.83 149.63 -42.26 0 -38.54 -152.8 -38.54 152.8 -42.25 0 -59.83 -236.64 42.25 0 38.54 152.8 38.54 -152.8 42.25 0 38.87 152.8 38.54 -152.8zm293.63 16.93l0 -8.76c0,-5.62 4.6,-10.22 10.22,-10.22l35.7 0c5.62,0 10.21,4.67 10.21,10.22l0 8.76c0,5.55 -4.67,10.22 -10.21,10.22l-35.7 0c-5.56,0 -10.22,-4.6 -10.22,-10.22zm-165.97 0l0 -8.76c0,-5.62 4.6,-10.22 10.21,-10.22l35.7 0c5.63,0 10.22,4.67 10.22,10.22l0 8.76c0,5.55 -4.66,10.22 -10.22,10.22l-35.7 0c-5.54,0 -10.21,-4.6 -10.21,-10.22zm185.21 77.79l5.89 -6.48c3.78,-4.16 3.43,-10.68 -0.68,-14.43l-26.41 -24.02c-4.12,-3.74 -10.73,-3.4 -14.44,0.69l-5.9 6.48c-3.71,4.08 -3.45,10.66 0.69,14.43l26.41 24.02c4.14,3.76 10.65,3.48 14.44,-0.69zm-147.79 0l-5.89 -6.48c-3.76,-4.14 -3.47,-10.64 0.69,-14.43l26.41 -24.02c4.15,-3.77 10.68,-3.43 14.43,0.69l5.89 6.48c3.75,4.11 3.4,10.7 -0.69,14.43l-26.4 24.02c-4.09,3.72 -10.68,3.44 -14.44,-0.69zm67.42 -26.61l8.75 0c5.62,0 10.22,4.67 10.22,10.22l0 35.71c0,5.54 -4.67,10.21 -10.22,10.21l-8.75 0c-5.56,0 -10.22,-4.6 -10.22,-10.21l0 -35.71c0,-5.63 4.59,-10.22 10.22,-10.22zm-1468.1 -391.68l1.14 59.2c26.34,-11.44 30.85,-24.68 74.11,-19.67 29.13,3.38 46.86,21.89 57.02,44.2 42.96,94.28 -76.25,163.44 -139.77,84.79 -18.92,-23.43 -16.86,-49.6 -16.95,-82.71 -0.19,-67.84 1.16,-136.53 -0.11,-204.2l-60.78 -0.39c-0.17,57.48 -6.46,238.54 8.22,281.18 7.31,21.25 26.56,49.77 41.64,62.8 105.03,90.83 284.86,-11.62 225.87,-158.47 -30.2,-75.15 -125.21,-106.5 -190.39,-66.74zm1052.73 58.35l0.27 -61.61c-142.22,-67.23 -270.38,111.12 -152,226.68 47.2,46.08 132.6,44.69 183.96,6.36 8.66,-6.46 10.07,-11.13 18.11,-19.78 10.97,-11.8 21.79,-25.42 27.13,-45.98 16.03,-61.67 4.85,-206.91 6.98,-281.26l-60.01 -0.55c-8.21,81.69 12.67,245.92 -12.31,282.73 -12.27,18.09 -34.83,37.54 -67.04,38.22 -58.87,1.23 -101.32,-56.47 -78.76,-115.75 15.87,-41.68 55.75,-55.95 98,-46.03 15.6,3.67 22.39,12.12 35.69,16.97zm-820.06 -70.88l-43.22 0.58c-2.39,66.02 -1.87,48.39 43.8,51.93l0.22 212.69 59.84 0.15 -0.03 -213.98 60.1 0.42c4.91,-7.09 25.24,-43 27.75,-51.18l-86.75 -1.18c-1.92,-61.96 22.71,-52.32 72.84,-55.7l0.24 -49.91c-86.97,-12.75 -129.99,18.29 -134.78,106.18zm534.95 266.42l59.8 -0.31 -0.69 -264.9 -58.92 -1.42 -0.19 266.64zm403.38 -0.28l58.95 -0.01 0.36 -265.47 -58.85 -0.21 -0.46 265.68zm0.01 -315.52l57.68 0.87 0.67 -55.64 -59.05 -1.28 0.7 56.05zm-403.49 0.42l57.24 -0.14 1.5 -55.82 -58.61 -0.21 -0.13 56.16zm3116.15 406.06c-4.24,8.27 -9.32,15.64 -15.23,22.05 -5.95,6.45 -12.71,11.98 -20.32,16.58 -5.12,3.13 -10.82,5.84 -17.04,8.09 -6.22,2.23 -12.97,4.01 -20.18,5.33 -7.26,1.3 -16.44,2.3 -27.52,2.95 -10.97,0.64 -23.87,0.98 -38.63,0.98l-125.35 0 -2.69 0 0 -2.68 0 -356.93 0 -2.68 2.69 0 155.59 0c18.89,0 35.33,1.88 49.31,5.68 14.1,3.83 25.76,9.62 34.97,17.35 9.22,7.73 16.16,17.59 20.78,29.51 4.56,11.79 6.86,25.6 6.86,41.4 0,9.84 -1.03,18.84 -3.05,26.97 -2.04,8.19 -5.15,15.54 -9.28,22.03 -4.1,6.52 -9.26,12.3 -15.53,17.31 -4.59,3.68 -9.77,6.92 -15.51,9.8 6.87,2.5 13.09,5.62 18.68,9.36 7.38,4.97 13.64,11.03 18.76,18.19 5.11,7.2 8.96,15.24 11.5,24.12 2.54,8.81 3.78,18.49 3.78,28.98 0,10.19 -1.04,19.91 -3.12,29.19 -2.09,9.26 -5.25,18.07 -9.44,26.4zm-73.49 -57.48c0,-6.18 -0.87,-11.55 -2.63,-16.12 -1.7,-4.47 -4.27,-8.2 -7.68,-11.18 -3.42,-2.99 -7.74,-5.29 -12.93,-6.8 -5.32,-1.56 -11.58,-2.36 -18.72,-2.36l-67.67 0 0 73.55 59.42 0c9.59,0 17.72,-0.73 24.33,-2.2 6.51,-1.43 11.56,-3.56 15.2,-6.33 3.5,-2.71 6.14,-6.41 7.93,-11.05 1.83,-4.82 2.76,-10.66 2.76,-17.51zm-46.27 -109.35c6.72,0 12.55,-0.69 17.48,-2.05 4.8,-1.33 8.79,-3.31 11.91,-5.92 3.06,-2.56 5.38,-5.81 6.92,-9.7 1.59,-4.01 2.39,-8.76 2.39,-14.22 0,-10.03 -2.89,-17.55 -8.66,-22.55 -2.9,-2.5 -6.55,-4.42 -10.9,-5.71 -4.46,-1.3 -9.67,-1.97 -15.66,-1.97l-66.84 0 0 62.12 63.36 0zm412.78 269.52l-560.13 0c-9.39,0 -18.39,-1.89 -26.61,-5.34 -8.51,-3.57 -16.21,-8.81 -22.65,-15.3 -6.46,-6.45 -11.67,-14.18 -15.21,-22.74 -3.41,-8.23 -5.31,-17.29 -5.31,-26.72l0 -315.54c0,-9.44 1.9,-18.49 5.31,-26.74 3.54,-8.57 8.76,-16.3 15.21,-22.77 6.44,-6.48 14.14,-11.72 22.65,-15.28 8.22,-3.44 17.22,-5.35 26.61,-5.35l560.13 0 564.14 0c9.39,0 18.39,1.9 26.61,5.35 8.51,3.56 16.21,8.79 22.65,15.28 6.45,6.47 11.67,14.21 15.22,22.77 3.4,8.24 5.32,17.29 5.32,26.74l0 315.54c0,9.42 -1.91,18.47 -5.32,26.7 -3.55,8.56 -8.78,16.31 -15.22,22.76 -6.44,6.49 -14.14,11.72 -22.65,15.3 -8.22,3.44 -17.21,5.34 -26.61,5.34l-564.14 0zm-560.13 28.37l1124.27 0c13.23,0 25.86,-2.67 37.38,-7.47 11.99,-4.99 22.79,-12.34 31.84,-21.41 9.06,-9.12 16.38,-19.98 21.34,-32.02 4.79,-11.56 7.44,-24.27 7.44,-37.57l0 -315.54c0,-13.33 -2.65,-26.02 -7.44,-37.61 -4.97,-12.03 -12.28,-22.91 -21.34,-32 -9.05,-9.09 -19.85,-16.44 -31.84,-21.44 -11.53,-4.81 -24.15,-7.47 -37.38,-7.47l-1124.27 0c-13.23,0 -25.85,2.66 -37.36,7.47 -11.99,5 -22.82,12.35 -31.87,21.44 -9.05,9.08 -16.37,19.97 -21.33,32 -4.79,11.59 -7.44,24.28 -7.44,37.61l0 315.54c0,13.3 2.65,26.01 7.44,37.57 4.97,12.03 12.28,22.9 21.33,32.02 9.06,9.07 19.86,16.42 31.87,21.43 11.5,4.79 24.13,7.46 37.36,7.46zm635.43 -80.46l0 -132.33 0 -2.7 2.7 0 134.32 0 0 -68.59 -134.32 0 -2.7 0 0 -2.69 0 -73.97 0 -2.69 2.7 0 155.18 0 0 -68.56 -228.48 0 0 351.52 70.6 0zm289.69 -180.47l-102.68 181.85 -2.26 4.01 4.6 0 94.06 0 1.62 0 0.74 -1.45 52.01 -99.19 51.43 99.19 0.76 1.45 1.63 0 94.66 0 4.63 0 -2.31 -4.02 -103.71 -181.84 97.85 -172.4 2.28 -4.03 -4.61 0 -93.57 0 -1.61 0 -0.76 1.46 -46.64 90.82 -46.73 -90.83 -0.75 -1.45 -1.64 0 -93.62 0 -4.59 0 2.24 3.99 96.98 172.45zm-973.03 -153.34l1.09 326.51c2.53,12.64 7.71,21.96 15.41,28.05 7.76,6.14 18.27,9.14 31.39,9.14l557.45 0 0 -24.5 -6.05 0 -69.8 0 -2.68 0 0 -2.68 0 -132.35 -124.53 0 -2.68 0 0 -2.69 0 -73.97 0 -2.69 2.68 0 124.53 0 0 -68.58 -143.89 0 -2.7 0 0 -2.7 0 -73.96 0 -2.68 2.7 0 222.43 0 0 -23.56 -568.37 -0.42c-12.58,2.55 -21.85,7.74 -27.9,15.49 -6.1,7.81 -9.07,18.37 -9.07,31.59z"/>
  <g id="_1548998880">
   <path class="fil1" d="M740.98 3478.79c2.22,-81.2 27.8,-156.56 70.26,-219.57 43.68,-64.82 105.24,-116.62 177.62,-148.31l3.52 -1.53c6.43,-2.73 12.79,-4.45 18.89,-5.15 10.29,-1.18 19.94,0.47 28.08,4.87 8.22,4.44 14.86,11.63 19.05,21.47 2.14,5.02 3.64,10.74 4.38,17.1 0.35,3.05 0.04,7.65 0.04,10.87 0,7.07 2.88,13.5 7.53,18.14 4.67,4.65 11.1,7.55 18.16,7.55l133.87 0c7.07,0 13.5,-2.88 18.14,-7.53 4.66,-4.66 7.55,-11.08 7.55,-18.15l0 -15.5 0.11 -0.54c0.94,-4.5 2.22,-8.61 3.79,-12.32 4.65,-10.95 11.86,-18.47 20.73,-22.69 8.79,-4.18 19.11,-5.05 30.08,-2.76 4.39,0.92 8.93,2.36 13.53,4.3l11.31 5c69.01,31.76 127.78,81.94 170.01,144.25 41.11,60.65 66.57,132.79 70.53,210.58l0.39 9.94c0.09,3.5 -0.09,6.77 -0.53,9.79 -1.49,10.35 -5.91,18.49 -12.75,24.17 -6.74,5.59 -15.76,8.66 -26.56,8.95 -3.84,0.1 -7.89,-0.15 -12.1,-0.76l-0.5 -0.07 -14.61 -5.32c-6.63,-2.41 -13.66,-1.89 -19.63,0.89 -5.97,2.77 -10.88,7.82 -13.3,14.44l-45.79 125.81c-2.42,6.66 -1.9,13.69 0.87,19.64 2.8,5.97 7.85,10.89 14.45,13.3 3.04,1.11 7.47,2.39 10.22,3.76 3.72,1.86 7.25,4.24 10.43,6.98 7.31,6.29 13.22,14.75 16.24,23.8 3.13,9.37 3.19,19.41 -1.36,28.52 -1.26,2.52 -2.87,4.96 -4.84,7.25l-4.76 5.43c-38.61,43.38 -86.25,78.6 -139.97,102.71 -51.7,23.2 -109.01,36.11 -169.3,36.11 -60.22,0 -117.47,-12.88 -169.12,-36.03 -53.65,-24.05 -101.26,-59.19 -139.87,-102.47l-3.39 -3.85c-2.05,-2.37 -3.71,-4.86 -5.01,-7.46 -4.62,-9.23 -4.63,-19.57 -1.52,-29.25 3,-9.36 8.98,-18.16 16.44,-24.67 3.19,-2.8 6.72,-5.2 10.46,-7.07 2.87,-1.39 7.09,-2.62 10.2,-3.76 6.64,-2.41 11.69,-7.34 14.47,-13.3 2.78,-5.96 3.3,-12.99 0.88,-19.64l-45.91 -126.12c-2.44,-6.46 -7.3,-11.4 -13.18,-14.14 -5.95,-2.8 -12.99,-3.32 -19.63,-0.9 -4.86,1.77 -9.77,3.5 -14.61,5.32l-0.51 0.07c-2.92,0.42 -5.96,0.6 -9.02,0.55 -10.07,-0.18 -20.21,-3.04 -28.21,-8.43 -8.3,-5.6 -14.38,-13.9 -15.95,-24.79 -0.28,-1.98 -0.41,-4.08 -0.37,-6.29l0.07 -3.19zm78.39 -214.07c-41.46,61.53 -66.44,135.09 -68.6,214.29l-0.07 3.15c-0.02,1.6 0.08,3.19 0.29,4.73 1.13,7.86 5.61,13.91 11.73,18.04 6.43,4.34 14.65,6.63 22.87,6.78 2.31,0.03 4.66,-0.09 6.99,-0.4l14.49 -5.27c8.94,-2.98 18.29,-2.19 26.27,1.53 8.24,3.82 15.04,10.81 18.38,20l45.8 125.8c3.33,9.16 2.61,18.87 -1.23,27.13 -3.84,8.23 -10.82,15.03 -20,18.37l-9.47 3.45c-2.8,1.43 -5.53,3.33 -8.08,5.55 -6.17,5.37 -11.1,12.61 -13.56,20.28 -2.37,7.37 -2.43,15.13 0.95,21.88 0.92,1.84 2.13,3.64 3.61,5.36l3.38 3.82c37.71,42.27 84.18,76.57 136.51,100.03 50.39,22.58 106.28,35.14 165.13,35.14 58.92,0 114.88,-12.6 165.31,-35.23 52.41,-23.52 98.91,-57.9 136.63,-100.27l4.64 -5.3c1.46,-1.7 2.64,-3.47 3.53,-5.25 3.29,-6.57 3.18,-14.01 0.84,-21.04 -2.45,-7.36 -7.32,-14.27 -13.35,-19.46 -2.58,-2.21 -5.32,-4.09 -8.11,-5.52l-9.48 -3.45c-9.19,-3.35 -16.17,-10.14 -20.01,-18.37 -3.83,-8.24 -4.54,-17.96 -1.21,-27.11l45.79 -125.81c3.35,-9.18 10.14,-16.16 18.37,-20 8.22,-3.86 17.93,-4.57 27.11,-1.23l13.66 4.97c3.55,0.49 6.89,0.69 9.99,0.61 8.5,-0.22 15.47,-2.54 20.53,-6.73 4.95,-4.11 8.18,-10.17 9.31,-17.99 0.37,-2.55 0.52,-5.26 0.45,-8.1l-0.39 -9.75c-3.87,-75.96 -28.71,-146.39 -68.84,-205.58 -41.21,-60.8 -98.58,-109.79 -165.94,-140.8l-11.1 -4.92c-3.96,-1.68 -7.88,-2.93 -11.7,-3.72 -8.88,-1.85 -17.09,-1.22 -23.9,2.02 -6.73,3.2 -12.25,9.05 -15.89,17.65 -1.26,2.99 -2.3,6.31 -3.1,9.96l0 14.57c0,9.75 -3.99,18.62 -10.43,25.06 -6.46,6.46 -15.33,10.45 -25.08,10.45l-133.87 0c-9.77,0 -18.66,-3.99 -25.09,-10.43 -6.43,-6.45 -10.43,-15.33 -10.43,-25.08l0 -10.09c-0.64,-5.27 -1.87,-9.96 -3.61,-14.04 -3.28,-7.69 -8.39,-13.28 -14.68,-16.67 -6.36,-3.43 -14.03,-4.71 -22.33,-3.76 -5.17,0.6 -10.61,2.06 -16.13,4.42l-3.5 1.52c-70.62,30.92 -130.72,81.5 -173.38,144.81zm-809.54 3624.38l8834.15 0 0 -6879.27 -8834.15 2.42 0 6876.85zm8839.06 9.83l-8848.89 0 0 -6896.46c2951.22,-2.95 5902.57,-2.43 8853.8,-2.43l0 6898.89 -4.91 0zm-6147.04 -3981.84c-45.73,0 -87.47,-18.8 -117.74,-49.07 -30.22,-30.22 -49.03,-71.88 -49.03,-117.7l0 -2192.59c0,-45.87 18.76,-87.57 48.99,-117.79 30.22,-30.22 71.92,-48.99 117.79,-48.99l3474.67 0c45.84,0 87.51,18.8 117.72,49.02 30.26,30.26 49.05,71.99 49.05,117.75l0 2192.59c0,45.71 -18.86,87.39 -49.11,117.64 -30.28,30.28 -72,49.13 -117.66,49.13l-3474.67 0zm-110.8 -56.02c28.49,28.49 67.77,46.19 110.8,46.19l3474.67 0c42.95,0 82.21,-17.75 110.72,-46.25 28.48,-28.48 46.23,-67.7 46.23,-110.69l0 -2192.59c0,-43.06 -17.69,-82.32 -46.17,-110.81 -28.44,-28.44 -67.66,-46.14 -110.78,-46.14l-3474.67 0c-43.15,0 -82.4,17.66 -110.84,46.11 -28.44,28.44 -46.11,67.69 -46.11,110.84l0 2192.59c0,43.11 17.71,82.31 46.15,110.76zm1422.1 615.03c2.22,-81.2 27.8,-156.56 70.26,-219.57 43.68,-64.82 105.24,-116.62 177.62,-148.31l3.52 -1.53c6.43,-2.73 12.79,-4.45 18.89,-5.15 10.29,-1.18 19.94,0.47 28.08,4.87 8.22,4.44 14.86,11.63 19.05,21.47 2.14,5.02 3.64,10.74 4.38,17.1 0.35,3.05 0.04,7.65 0.04,10.87 0,7.07 2.88,13.5 7.53,18.14 4.67,4.65 11.1,7.55 18.16,7.55l133.87 0c7.07,0 13.5,-2.88 18.14,-7.53 4.66,-4.66 7.55,-11.08 7.55,-18.15l0 -15.5 0.11 -0.54c0.94,-4.5 2.22,-8.61 3.79,-12.32 4.65,-10.95 11.86,-18.47 20.73,-22.69 8.79,-4.18 19.11,-5.05 30.08,-2.76 4.39,0.92 8.93,2.36 13.53,4.3l11.31 5c69.01,31.76 127.78,81.94 170.01,144.25 41.11,60.65 66.57,132.79 70.53,210.58l0.39 9.94c0.09,3.5 -0.09,6.77 -0.53,9.79 -1.49,10.35 -5.91,18.49 -12.75,24.17 -6.74,5.59 -15.76,8.66 -26.56,8.95 -3.84,0.1 -7.89,-0.15 -12.1,-0.76l-0.5 -0.07 -14.61 -5.32c-6.63,-2.41 -13.66,-1.89 -19.63,0.89 -5.97,2.77 -10.88,7.82 -13.3,14.44l-45.79 125.81c-2.42,6.66 -1.9,13.69 0.87,19.64 2.8,5.97 7.85,10.89 14.45,13.3 3.04,1.11 7.47,2.39 10.22,3.76 3.72,1.86 7.25,4.24 10.43,6.98 7.31,6.29 13.22,14.75 16.24,23.8 3.13,9.37 3.19,19.41 -1.36,28.52 -1.26,2.52 -2.87,4.96 -4.84,7.25l-4.76 5.43c-38.61,43.38 -86.25,78.6 -139.97,102.71 -51.7,23.2 -109.01,36.11 -169.3,36.11 -60.22,0 -117.47,-12.88 -169.12,-36.03 -53.65,-24.05 -101.26,-59.19 -139.87,-102.47l-3.39 -3.85c-2.05,-2.37 -3.71,-4.86 -5.01,-7.46 -4.62,-9.23 -4.63,-19.57 -1.52,-29.25 3,-9.36 8.98,-18.16 16.44,-24.67 3.19,-2.8 6.72,-5.2 10.46,-7.07 2.87,-1.39 7.09,-2.62 10.2,-3.76 6.64,-2.41 11.69,-7.34 14.47,-13.3 2.78,-5.96 3.3,-12.99 0.88,-19.64l-45.91 -126.12c-2.44,-6.46 -7.3,-11.4 -13.18,-14.14 -5.95,-2.8 -12.99,-3.32 -19.63,-0.9 -4.86,1.77 -9.77,3.5 -14.61,5.32l-0.51 0.07c-2.92,0.42 -5.96,0.6 -9.02,0.55 -10.07,-0.18 -20.21,-3.04 -28.21,-8.43 -8.3,-5.6 -14.38,-13.9 -15.95,-24.79 -0.28,-1.98 -0.41,-4.08 -0.37,-6.29l0.07 -3.19zm78.39 -214.08c-41.46,61.53 -66.44,135.09 -68.6,214.29l-0.07 3.15c-0.02,1.6 0.08,3.19 0.29,4.73 1.13,7.86 5.61,13.91 11.73,18.04 6.43,4.34 14.65,6.63 22.87,6.78 2.31,0.03 4.66,-0.09 6.99,-0.4l14.49 -5.27c8.94,-2.98 18.29,-2.19 26.27,1.53 8.24,3.82 15.04,10.81 18.38,20l45.8 125.8c3.33,9.16 2.61,18.87 -1.23,27.13 -3.84,8.23 -10.82,15.03 -20,18.37l-9.47 3.45c-2.8,1.43 -5.53,3.33 -8.08,5.55 -6.17,5.37 -11.1,12.61 -13.56,20.28 -2.37,7.37 -2.43,15.13 0.95,21.88 0.92,1.84 2.13,3.64 3.61,5.36l3.38 3.82c37.71,42.27 84.18,76.57 136.51,100.03 50.39,22.58 106.28,35.14 165.13,35.14 58.92,0 114.88,-12.6 165.31,-35.23 52.41,-23.52 98.91,-57.9 136.63,-100.27l4.64 -5.3c1.46,-1.7 2.64,-3.47 3.53,-5.25 3.29,-6.57 3.18,-14.01 0.84,-21.04 -2.45,-7.36 -7.32,-14.27 -13.35,-19.46 -2.58,-2.21 -5.32,-4.09 -8.11,-5.52l-9.48 -3.45c-9.19,-3.35 -16.17,-10.14 -20.01,-18.37 -3.83,-8.24 -4.54,-17.96 -1.21,-27.11l45.79 -125.81c3.35,-9.18 10.14,-16.16 18.37,-20 8.22,-3.86 17.93,-4.57 27.11,-1.23l13.66 4.97c3.55,0.49 6.89,0.69 9.99,0.61 8.5,-0.22 15.47,-2.54 20.53,-6.73 4.95,-4.11 8.18,-10.17 9.31,-17.99 0.37,-2.55 0.52,-5.26 0.45,-8.1l-0.39 -9.75c-3.87,-75.96 -28.71,-146.39 -68.84,-205.58 -41.21,-60.8 -98.58,-109.79 -165.94,-140.8l-11.1 -4.92c-3.96,-1.68 -7.88,-2.93 -11.7,-3.72 -8.88,-1.85 -17.09,-1.22 -23.9,2.02 -6.73,3.2 -12.25,9.05 -15.89,17.65 -1.26,2.99 -2.3,6.31 -3.1,9.96l0 14.57c0,9.75 -3.99,18.62 -10.43,25.06 -6.46,6.46 -15.33,10.45 -25.08,10.45l-133.87 0c-9.77,0 -18.66,-3.99 -25.09,-10.43 -6.43,-6.45 -10.43,-15.33 -10.43,-25.08l0 -10.09c-0.64,-5.27 -1.87,-9.96 -3.61,-14.04 -3.28,-7.69 -8.39,-13.28 -14.68,-16.67 -6.36,-3.43 -14.03,-4.71 -22.33,-3.76 -5.17,0.6 -10.61,2.06 -16.13,4.42l-3.5 1.52c-70.62,30.92 -130.72,81.5 -173.38,144.81zm3295.16 2875.5c-2.04,-2.35 -3.7,-4.84 -5,-7.44 -4.62,-9.23 -4.63,-19.57 -1.52,-29.25 3,-9.36 8.98,-18.16 16.44,-24.67 3.19,-2.8 6.72,-5.2 10.46,-7.07 2.87,-1.39 7.09,-2.62 10.2,-3.76 6.64,-2.41 11.69,-7.34 14.47,-13.3 2.78,-5.96 3.3,-12.99 0.88,-19.64l-45.91 -126.12c-2.44,-6.46 -7.3,-11.4 -13.18,-14.14 -5.95,-2.8 -12.99,-3.32 -19.63,-0.9 -4.86,1.77 -9.77,3.5 -14.61,5.32l-0.51 0.07c-2.92,0.42 -5.96,0.6 -9.02,0.55 -10.07,-0.18 -20.21,-3.04 -28.21,-8.43 -8.3,-5.6 -14.38,-13.9 -15.95,-24.79 -0.28,-1.98 -0.41,-4.08 -0.37,-6.29l0.07 -3.18c2.22,-81.21 27.8,-156.57 70.26,-219.58 43.68,-64.82 105.24,-116.62 177.62,-148.31l3.52 -1.53c6.43,-2.73 12.79,-4.45 18.89,-5.15 10.29,-1.18 19.94,0.47 28.08,4.87 8.22,4.44 14.86,11.63 19.05,21.47 2.14,5.02 3.64,10.74 4.38,17.1 0.35,3.05 0.04,7.65 0.04,10.87 0,7.07 2.88,13.5 7.53,18.14 4.67,4.65 11.1,7.55 18.16,7.55l133.87 0c7.07,0 13.5,-2.88 18.14,-7.53 4.66,-4.66 7.55,-11.08 7.55,-18.15l0 -15.5 0.11 -0.54c0.94,-4.5 2.22,-8.61 3.79,-12.32 4.65,-10.95 11.86,-18.47 20.73,-22.69 8.79,-4.18 19.11,-5.05 30.08,-2.76 4.39,0.92 8.93,2.36 13.53,4.3l11.31 5c69.01,31.76 127.78,81.94 170.01,144.25 41.11,60.65 66.57,132.79 70.53,210.58l0.39 9.94c0.09,3.5 -0.09,6.77 -0.53,9.79 -1.49,10.35 -5.91,18.49 -12.75,24.17 -6.74,5.59 -15.76,8.66 -26.56,8.95 -3.84,0.1 -7.89,-0.15 -12.1,-0.76l-0.5 -0.07 -14.61 -5.32c-6.63,-2.41 -13.66,-1.89 -19.63,0.89 -5.97,2.77 -10.88,7.82 -13.3,14.44l-45.79 125.81c-2.42,6.66 -1.9,13.69 0.87,19.64 2.8,5.97 7.85,10.89 14.45,13.3 3.04,1.11 7.47,2.39 10.22,3.76 3.72,1.86 7.25,4.24 10.43,6.98 7.31,6.29 13.22,14.75 16.24,23.8 3.13,9.37 3.19,19.41 -1.36,28.52 -1.26,2.52 -2.87,4.96 -4.84,7.25l-4.76 5.43c-38.61,43.38 -86.25,78.6 -139.97,102.71 -51.7,23.2 -109.01,36.11 -169.3,36.11 -60.22,0 -117.47,-12.88 -169.12,-36.03 -53.65,-24.05 -101.26,-59.19 -139.87,-102.47l-3.4 -3.87zm3.76 -11.82c0.92,1.84 2.13,3.64 3.61,5.36l3.38 3.82c37.71,42.27 84.18,76.57 136.51,100.03 50.39,22.58 106.28,35.14 165.13,35.14 58.92,0 114.88,-12.6 165.31,-35.23 52.41,-23.52 98.91,-57.9 136.63,-100.27l4.64 -5.3c1.46,-1.7 2.64,-3.47 3.53,-5.25 3.29,-6.57 3.18,-14.01 0.84,-21.04 -2.45,-7.36 -7.32,-14.27 -13.35,-19.46 -2.58,-2.21 -5.32,-4.09 -8.11,-5.52l-9.48 -3.45c-9.19,-3.35 -16.17,-10.14 -20.01,-18.37 -3.83,-8.24 -4.54,-17.96 -1.21,-27.11l45.79 -125.81c3.35,-9.18 10.14,-16.16 18.37,-20 8.22,-3.86 17.93,-4.57 27.11,-1.23l13.66 4.97c3.55,0.49 6.89,0.69 9.99,0.61 8.5,-0.22 15.47,-2.54 20.53,-6.73 4.95,-4.11 8.18,-10.17 9.31,-17.99 0.37,-2.55 0.52,-5.26 0.45,-8.1l-0.39 -9.75c-3.87,-75.96 -28.71,-146.39 -68.84,-205.58 -41.21,-60.8 -98.58,-109.79 -165.94,-140.8l-11.1 -4.92c-3.96,-1.68 -7.88,-2.93 -11.7,-3.72 -8.88,-1.85 -17.09,-1.22 -23.9,2.02 -6.73,3.2 -12.25,9.05 -15.89,17.65 -1.26,2.99 -2.3,6.31 -3.1,9.96l0 14.57c0,9.75 -3.99,18.62 -10.43,25.06 -6.46,6.46 -15.33,10.45 -25.08,10.45l-133.87 0c-9.77,0 -18.66,-3.99 -25.09,-10.43 -6.43,-6.45 -10.43,-15.33 -10.43,-25.08l0 -10.09c-0.64,-5.27 -1.87,-9.96 -3.61,-14.04 -3.28,-7.69 -8.39,-13.28 -14.68,-16.67 -6.36,-3.43 -14.03,-4.71 -22.33,-3.76 -5.17,0.6 -10.61,2.06 -16.13,4.42l-3.5 1.52c-70.62,30.92 -130.72,81.5 -173.38,144.81 -41.46,61.53 -66.44,135.09 -68.6,214.29l-0.07 3.15c-0.02,1.6 0.08,3.19 0.29,4.73 1.13,7.86 5.61,13.91 11.73,18.04 6.43,4.34 14.65,6.63 22.87,6.78 2.31,0.03 4.66,-0.09 6.99,-0.4l14.49 -5.27c8.94,-2.98 18.29,-2.19 26.27,1.53 8.24,3.82 15.04,10.81 18.38,20l45.8 125.8c3.33,9.16 2.61,18.87 -1.23,27.13 -3.84,8.23 -10.82,15.03 -20,18.37l-9.47 3.45c-2.8,1.43 -5.53,3.33 -8.08,5.55 -6.17,5.37 -11.1,12.61 -13.56,20.28 -2.37,7.37 -2.43,15.13 0.95,21.88zm-3275.93 11.82c-2.04,-2.35 -3.7,-4.84 -5,-7.44 -4.62,-9.23 -4.63,-19.57 -1.52,-29.25 3,-9.36 8.98,-18.16 16.44,-24.67 3.19,-2.8 6.72,-5.2 10.46,-7.07 2.87,-1.39 7.09,-2.62 10.2,-3.76 6.64,-2.41 11.69,-7.34 14.47,-13.3 2.78,-5.96 3.3,-12.99 0.88,-19.64l-45.91 -126.12c-2.44,-6.46 -7.3,-11.4 -13.18,-14.14 -5.95,-2.8 -12.99,-3.32 -19.63,-0.9 -4.86,1.77 -9.77,3.5 -14.61,5.32l-0.51 0.07c-2.92,0.42 -5.96,0.6 -9.02,0.55 -10.07,-0.18 -20.21,-3.04 -28.21,-8.43 -8.3,-5.6 -14.38,-13.9 -15.95,-24.79 -0.28,-1.98 -0.41,-4.08 -0.37,-6.29l0.07 -3.18c2.22,-81.21 27.8,-156.57 70.26,-219.58 43.68,-64.82 105.24,-116.62 177.62,-148.31l3.52 -1.53c6.43,-2.73 12.79,-4.45 18.89,-5.15 10.29,-1.18 19.94,0.47 28.08,4.87 8.22,4.44 14.86,11.63 19.05,21.47 2.14,5.02 3.64,10.74 4.38,17.1 0.35,3.05 0.04,7.65 0.04,10.87 0,7.07 2.88,13.5 7.53,18.14 4.67,4.65 11.1,7.55 18.16,7.55l133.87 0c7.07,0 13.5,-2.88 18.14,-7.53 4.66,-4.66 7.55,-11.08 7.55,-18.15l0 -15.5 0.11 -0.54c0.94,-4.5 2.22,-8.61 3.79,-12.32 4.65,-10.95 11.86,-18.47 20.73,-22.69 8.79,-4.18 19.11,-5.05 30.08,-2.76 4.39,0.92 8.93,2.36 13.53,4.3l11.31 5c69.01,31.76 127.78,81.94 170.01,144.25 41.11,60.65 66.57,132.79 70.53,210.58l0.39 9.94c0.09,3.5 -0.09,6.77 -0.53,9.79 -1.49,10.35 -5.91,18.49 -12.75,24.17 -6.74,5.59 -15.76,8.66 -26.56,8.95 -3.84,0.1 -7.89,-0.15 -12.1,-0.76l-0.5 -0.07 -14.61 -5.32c-6.63,-2.41 -13.66,-1.89 -19.63,0.89 -5.97,2.77 -10.88,7.82 -13.3,14.44l-45.79 125.81c-2.42,6.66 -1.9,13.69 0.87,19.64 2.8,5.97 7.85,10.89 14.45,13.3 3.04,1.11 7.47,2.39 10.22,3.76 3.72,1.86 7.25,4.24 10.43,6.98 7.31,6.29 13.22,14.75 16.24,23.8 3.13,9.37 3.19,19.41 -1.36,28.52 -1.26,2.52 -2.87,4.96 -4.84,7.25l-4.76 5.43c-38.61,43.38 -86.25,78.6 -139.97,102.71 -51.7,23.2 -109.01,36.11 -169.3,36.11 -60.22,0 -117.47,-12.88 -169.12,-36.03 -53.65,-24.05 -101.26,-59.19 -139.87,-102.47l-3.4 -3.87zm3.76 -11.82c0.92,1.84 2.13,3.64 3.61,5.36l3.38 3.82c37.71,42.27 84.18,76.57 136.51,100.03 50.39,22.58 106.28,35.14 165.13,35.14 58.92,0 114.88,-12.6 165.31,-35.23 52.41,-23.52 98.91,-57.9 136.63,-100.27l4.64 -5.3c1.46,-1.7 2.64,-3.47 3.53,-5.25 3.29,-6.57 3.18,-14.01 0.84,-21.04 -2.45,-7.36 -7.32,-14.27 -13.35,-19.46 -2.58,-2.21 -5.32,-4.09 -8.11,-5.52l-9.48 -3.45c-9.19,-3.35 -16.17,-10.14 -20.01,-18.37 -3.83,-8.24 -4.54,-17.96 -1.21,-27.11l45.79 -125.81c3.35,-9.18 10.14,-16.16 18.37,-20 8.22,-3.86 17.93,-4.57 27.11,-1.23l13.66 4.97c3.55,0.49 6.89,0.69 9.99,0.61 8.5,-0.22 15.47,-2.54 20.53,-6.73 4.95,-4.11 8.18,-10.17 9.31,-17.99 0.37,-2.55 0.52,-5.26 0.45,-8.1l-0.39 -9.75c-3.87,-75.96 -28.71,-146.39 -68.84,-205.58 -41.21,-60.8 -98.58,-109.79 -165.94,-140.8l-11.1 -4.92c-3.96,-1.68 -7.88,-2.93 -11.7,-3.72 -8.88,-1.85 -17.09,-1.22 -23.9,2.02 -6.73,3.2 -12.25,9.05 -15.89,17.65 -1.26,2.99 -2.3,6.31 -3.1,9.96l0 14.57c0,9.75 -3.99,18.62 -10.43,25.06 -6.46,6.46 -15.33,10.45 -25.08,10.45l-133.87 0c-9.77,0 -18.66,-3.99 -25.09,-10.43 -6.43,-6.45 -10.43,-15.33 -10.43,-25.08l0 -10.09c-0.64,-5.27 -1.87,-9.96 -3.61,-14.04 -3.28,-7.69 -8.39,-13.28 -14.68,-16.67 -6.36,-3.43 -14.03,-4.71 -22.33,-3.76 -5.17,0.6 -10.61,2.06 -16.13,4.42l-3.5 1.52c-70.62,30.92 -130.72,81.5 -173.38,144.81 -41.46,61.53 -66.44,135.09 -68.6,214.29l-0.07 3.15c-0.02,1.6 0.08,3.19 0.29,4.73 1.13,7.86 5.61,13.91 11.73,18.04 6.43,4.34 14.65,6.63 22.87,6.78 2.31,0.03 4.66,-0.09 6.99,-0.4l14.49 -5.27c8.94,-2.98 18.29,-2.19 26.27,1.53 8.24,3.82 15.04,10.81 18.38,20l45.8 125.8c3.33,9.16 2.61,18.87 -1.23,27.13 -3.84,8.23 -10.82,15.03 -20,18.37l-9.47 3.45c-2.8,1.43 -5.53,3.33 -8.08,5.55 -6.17,5.37 -11.1,12.61 -13.56,20.28 -2.37,7.37 -2.43,15.13 0.95,21.88zm-3029.8 -565.8l133.87 0c7.07,0 13.5,-2.88 18.14,-7.53 4.66,-4.66 7.55,-11.08 7.55,-18.15l0 -15.5 0.11 -0.54c0.94,-4.5 2.22,-8.61 3.79,-12.32 4.65,-10.95 11.86,-18.47 20.73,-22.69 8.79,-4.18 19.11,-5.05 30.08,-2.76 4.39,0.92 8.93,2.36 13.53,4.3l11.31 5c69.01,31.76 127.78,81.94 170.01,144.25 41.11,60.65 66.57,132.79 70.53,210.58l0.39 9.94c0.09,3.5 -0.09,6.77 -0.53,9.79 -1.49,10.35 -5.91,18.49 -12.75,24.17 -6.74,5.59 -15.76,8.66 -26.56,8.95 -3.84,0.1 -7.89,-0.15 -12.1,-0.76l-0.5 -0.07 -14.61 -5.32c-6.63,-2.41 -13.66,-1.89 -19.63,0.89 -5.97,2.77 -10.88,7.82 -13.3,14.44l-45.79 125.81c-2.42,6.66 -1.9,13.69 0.87,19.64 2.8,5.97 7.85,10.89 14.45,13.3 3.04,1.11 7.47,2.39 10.22,3.76 3.72,1.86 7.25,4.24 10.43,6.98 7.31,6.29 13.22,14.75 16.24,23.8 3.13,9.37 3.19,19.41 -1.36,28.52 -1.26,2.52 -2.87,4.96 -4.84,7.25l-4.76 5.43c-38.61,43.38 -86.25,78.6 -139.97,102.71 -51.7,23.2 -109.01,36.11 -169.3,36.11 -60.22,0 -117.47,-12.88 -169.12,-36.03 -53.65,-24.05 -101.26,-59.19 -139.87,-102.47l-3.39 -3.85c-2.05,-2.37 -3.71,-4.86 -5.01,-7.46 -4.62,-9.23 -4.63,-19.57 -1.52,-29.25 3,-9.36 8.98,-18.16 16.44,-24.67 3.19,-2.8 6.72,-5.2 10.46,-7.07 2.87,-1.39 7.09,-2.62 10.2,-3.76 6.64,-2.41 11.69,-7.34 14.47,-13.3 2.78,-5.96 3.3,-12.99 0.88,-19.64l-45.91 -126.12c-2.44,-6.46 -7.3,-11.4 -13.18,-14.14 -5.95,-2.8 -12.99,-3.32 -19.63,-0.9 -4.86,1.77 -9.77,3.5 -14.61,5.32l-0.51 0.07c-2.92,0.42 -5.96,0.6 -9.02,0.55 -10.07,-0.18 -20.21,-3.04 -28.21,-8.43 -8.3,-5.6 -14.38,-13.9 -15.95,-24.79 -0.28,-1.98 -0.41,-4.08 -0.37,-6.29l0.07 -3.18c2.22,-81.21 27.8,-156.57 70.26,-219.58 43.68,-64.82 105.24,-116.62 177.62,-148.31l3.52 -1.53c6.43,-2.73 12.79,-4.45 18.89,-5.15 10.29,-1.18 19.94,0.47 28.08,4.87 8.22,4.44 14.86,11.63 19.05,21.47 2.14,5.02 3.64,10.74 4.38,17.1 0.35,3.05 0.04,7.65 0.04,10.87 0,7.07 2.88,13.5 7.53,18.14 4.67,4.65 11.1,7.55 18.16,7.55zm133.87 9.83l-133.87 0c-9.77,0 -18.66,-3.99 -25.09,-10.43 -6.43,-6.45 -10.43,-15.33 -10.43,-25.08l0 -10.09c-0.64,-5.27 -1.87,-9.96 -3.61,-14.04 -3.28,-7.69 -8.39,-13.28 -14.68,-16.67 -6.36,-3.43 -14.03,-4.71 -22.33,-3.76 -5.17,0.6 -10.61,2.06 -16.13,4.42l-3.5 1.52c-70.62,30.92 -130.72,81.5 -173.38,144.81 -41.46,61.53 -66.44,135.09 -68.6,214.29l-0.07 3.15c-0.02,1.6 0.08,3.19 0.29,4.73 1.13,7.86 5.61,13.91 11.73,18.04 6.43,4.34 14.65,6.63 22.87,6.78 2.31,0.03 4.66,-0.09 6.99,-0.4l14.49 -5.27c8.94,-2.98 18.29,-2.19 26.27,1.53 8.24,3.82 15.04,10.81 18.38,20l45.8 125.8c3.33,9.16 2.61,18.87 -1.23,27.13 -3.84,8.23 -10.82,15.03 -20,18.37l-9.47 3.45c-2.8,1.43 -5.53,3.33 -8.08,5.55 -6.17,5.37 -11.1,12.61 -13.56,20.28 -2.37,7.37 -2.43,15.13 0.95,21.88 0.92,1.84 2.13,3.64 3.61,5.36l3.38 3.82c37.71,42.27 84.18,76.57 136.51,100.03 50.39,22.58 106.28,35.14 165.13,35.14 58.92,0 114.88,-12.6 165.31,-35.23 52.41,-23.52 98.91,-57.9 136.63,-100.27l4.64 -5.3c1.46,-1.7 2.64,-3.47 3.53,-5.25 3.29,-6.57 3.18,-14.01 0.84,-21.04 -2.45,-7.36 -7.32,-14.27 -13.35,-19.46 -2.58,-2.21 -5.32,-4.09 -8.11,-5.52l-9.48 -3.45c-9.19,-3.35 -16.17,-10.14 -20.01,-18.37 -3.83,-8.24 -4.54,-17.96 -1.21,-27.11l45.79 -125.81c3.35,-9.18 10.14,-16.16 18.37,-20 8.22,-3.86 17.93,-4.57 27.11,-1.23l13.66 4.97c3.55,0.49 6.89,0.69 9.99,0.61 8.5,-0.22 15.47,-2.54 20.53,-6.73 4.95,-4.11 8.18,-10.17 9.31,-17.99 0.37,-2.55 0.52,-5.26 0.45,-8.1l-0.39 -9.75c-3.87,-75.96 -28.71,-146.39 -68.84,-205.58 -41.21,-60.8 -98.58,-109.79 -165.94,-140.8l-11.1 -4.92c-3.96,-1.68 -7.88,-2.93 -11.7,-3.72 -8.88,-1.85 -17.09,-1.22 -23.9,2.02 -6.73,3.2 -12.25,9.05 -15.89,17.65 -1.26,2.99 -2.3,6.31 -3.1,9.96l0 14.57c0,9.75 -3.99,18.62 -10.43,25.06 -6.46,6.46 -15.33,10.45 -25.08,10.45zm6476.74 -1665.52c-60.22,0 -117.47,-12.88 -169.12,-36.03 -53.65,-24.05 -101.26,-59.19 -139.87,-102.47l-3.39 -3.85c-2.05,-2.37 -3.71,-4.86 -5.01,-7.46 -4.62,-9.23 -4.63,-19.57 -1.52,-29.25 3,-9.36 8.98,-18.16 16.44,-24.67 3.19,-2.8 6.72,-5.2 10.46,-7.07 2.87,-1.39 7.09,-2.62 10.2,-3.76 6.64,-2.41 11.69,-7.34 14.47,-13.3 2.78,-5.96 3.3,-12.99 0.88,-19.64l-45.91 -126.12c-2.44,-6.46 -7.3,-11.4 -13.18,-14.14 -5.95,-2.8 -12.99,-3.32 -19.63,-0.9 -4.86,1.77 -9.77,3.5 -14.61,5.32l-0.51 0.07c-2.92,0.42 -5.96,0.6 -9.02,0.55 -10.07,-0.18 -20.21,-3.04 -28.21,-8.43 -8.3,-5.6 -14.38,-13.9 -15.95,-24.79 -0.28,-1.98 -0.41,-4.08 -0.37,-6.29l0.07 -3.18c2.22,-81.21 27.8,-156.57 70.26,-219.58 43.68,-64.82 105.24,-116.62 177.62,-148.31l3.52 -1.53c6.43,-2.73 12.79,-4.45 18.89,-5.15 10.29,-1.18 19.94,0.47 28.08,4.87 8.22,4.44 14.86,11.63 19.05,21.47 2.14,5.02 3.64,10.74 4.38,17.1 0.35,3.05 0.04,7.65 0.04,10.87 0,7.07 2.88,13.5 7.53,18.14 4.67,4.65 11.1,7.55 18.16,7.55l133.87 0c7.07,0 13.5,-2.88 18.14,-7.53 4.66,-4.66 7.55,-11.08 7.55,-18.15l0 -15.5 0.11 -0.54c0.94,-4.5 2.22,-8.61 3.79,-12.32 4.65,-10.95 11.86,-18.47 20.73,-22.69 8.79,-4.18 19.11,-5.05 30.08,-2.76 4.39,0.92 8.93,2.36 13.53,4.3l11.31 5c69.01,31.76 127.78,81.94 170.01,144.25 41.11,60.65 66.57,132.79 70.53,210.58l0.39 9.94c0.09,3.5 -0.09,6.77 -0.53,9.79 -1.49,10.35 -5.91,18.49 -12.75,24.17 -6.74,5.59 -15.76,8.66 -26.56,8.95 -3.84,0.1 -7.89,-0.15 -12.1,-0.76l-0.5 -0.07 -14.61 -5.32c-6.63,-2.41 -13.66,-1.89 -19.63,0.89 -5.97,2.77 -10.88,7.82 -13.3,14.44l-45.79 125.81c-2.42,6.66 -1.9,13.69 0.87,19.64 2.8,5.97 7.85,10.89 14.45,13.3 3.04,1.11 7.47,2.39 10.22,3.76 3.72,1.86 7.25,4.24 10.43,6.98 7.31,6.29 13.22,14.75 16.24,23.8 3.13,9.37 3.19,19.41 -1.36,28.52 -1.26,2.52 -2.87,4.96 -4.84,7.25l-4.76 5.43c-38.61,43.38 -86.25,78.6 -139.97,102.71 -51.7,23.2 -109.01,36.11 -169.3,36.11zm-165.13 -44.97c50.39,22.58 106.28,35.14 165.13,35.14 58.92,0 114.88,-12.6 165.31,-35.23 52.41,-23.52 98.91,-57.9 136.63,-100.27l4.64 -5.3c1.46,-1.7 2.64,-3.47 3.53,-5.25 3.29,-6.57 3.18,-14.01 0.84,-21.04 -2.45,-7.36 -7.32,-14.27 -13.35,-19.46 -2.58,-2.21 -5.32,-4.09 -8.11,-5.52l-9.48 -3.45c-9.19,-3.35 -16.17,-10.14 -20.01,-18.37 -3.83,-8.24 -4.54,-17.96 -1.21,-27.11l45.79 -125.81c3.35,-9.18 10.14,-16.16 18.37,-20 8.22,-3.86 17.93,-4.57 27.11,-1.23l13.66 4.97c3.55,0.49 6.89,0.69 9.99,0.61 8.5,-0.22 15.47,-2.54 20.53,-6.73 4.95,-4.11 8.18,-10.17 9.31,-17.99 0.37,-2.55 0.52,-5.26 0.45,-8.1l-0.39 -9.75c-3.87,-75.96 -28.71,-146.39 -68.84,-205.58 -41.21,-60.8 -98.58,-109.79 -165.94,-140.8l-11.1 -4.92c-3.96,-1.68 -7.88,-2.93 -11.7,-3.72 -8.88,-1.85 -17.09,-1.22 -23.9,2.02 -6.73,3.2 -12.25,9.05 -15.89,17.65 -1.26,2.99 -2.3,6.31 -3.1,9.96l0 14.57c0,9.75 -3.99,18.62 -10.43,25.06 -6.46,6.46 -15.33,10.45 -25.08,10.45l-133.87 0c-9.77,0 -18.66,-3.99 -25.09,-10.43 -6.43,-6.45 -10.43,-15.33 -10.43,-25.08l0 -10.09c-0.64,-5.27 -1.87,-9.96 -3.61,-14.04 -3.28,-7.69 -8.39,-13.28 -14.68,-16.67 -6.36,-3.43 -14.03,-4.71 -22.33,-3.76 -5.17,0.6 -10.61,2.06 -16.13,4.42l-3.5 1.52c-70.62,30.92 -130.72,81.5 -173.38,144.81 -41.46,61.53 -66.44,135.09 -68.6,214.29l-0.07 3.15c-0.02,1.6 0.08,3.19 0.29,4.73 1.13,7.86 5.61,13.91 11.73,18.04 6.43,4.34 14.65,6.63 22.87,6.78 2.31,0.03 4.66,-0.09 6.99,-0.4l14.49 -5.27c8.94,-2.98 18.29,-2.19 26.27,1.53 8.24,3.82 15.04,10.81 18.38,20l45.8 125.8c3.33,9.16 2.61,18.87 -1.23,27.13 -3.84,8.23 -10.82,15.03 -20,18.37l-9.47 3.45c-2.8,1.43 -5.53,3.33 -8.08,5.55 -6.17,5.37 -11.1,12.61 -13.56,20.28 -2.37,7.37 -2.43,15.13 0.95,21.88 0.92,1.84 2.13,3.64 3.61,5.36l3.38 3.82c37.71,42.27 84.18,76.57 136.51,100.03zm-6069.95 -2471.2c-38.61,43.37 -86.25,78.59 -139.97,102.7 -51.7,23.2 -109.01,36.11 -169.3,36.11 -60.22,0 -117.47,-12.88 -169.12,-36.03 -53.65,-24.05 -101.26,-59.19 -139.87,-102.47l-3.39 -3.85c-2.05,-2.37 -3.71,-4.86 -5.01,-7.46 -4.62,-9.23 -4.63,-19.57 -1.52,-29.25 3,-9.36 8.98,-18.16 16.44,-24.67 3.19,-2.8 6.72,-5.2 10.46,-7.07 2.87,-1.39 7.09,-2.62 10.2,-3.76 6.64,-2.41 11.69,-7.34 14.47,-13.3 2.78,-5.96 3.3,-12.99 0.88,-19.64l-45.91 -126.12c-2.44,-6.46 -7.3,-11.4 -13.18,-14.14 -5.95,-2.8 -12.99,-3.32 -19.63,-0.9 -4.86,1.77 -9.77,3.5 -14.61,5.32l-0.51 0.07c-2.92,0.42 -5.96,0.6 -9.02,0.55 -10.07,-0.18 -20.21,-3.04 -28.21,-8.43 -8.3,-5.6 -14.38,-13.9 -15.95,-24.79 -0.28,-1.98 -0.41,-4.08 -0.37,-6.29l0.07 -3.18c2.22,-81.21 27.8,-156.57 70.26,-219.58 43.68,-64.82 105.24,-116.62 177.62,-148.31l3.52 -1.53c6.43,-2.73 12.79,-4.45 18.89,-5.15 10.29,-1.18 19.94,0.47 28.08,4.87 8.22,4.44 14.86,11.63 19.05,21.47 2.14,5.02 3.64,10.74 4.38,17.1 0.35,3.05 0.04,7.65 0.04,10.87 0,7.07 2.88,13.5 7.53,18.14 4.67,4.65 11.1,7.55 18.16,7.55l133.87 0c7.07,0 13.5,-2.88 18.14,-7.53 4.66,-4.66 7.55,-11.08 7.55,-18.15l0 -15.5 0.11 -0.54c0.94,-4.5 2.22,-8.61 3.79,-12.32 4.65,-10.95 11.86,-18.47 20.73,-22.69 8.79,-4.18 19.11,-5.05 30.08,-2.76 4.39,0.92 8.93,2.36 13.53,4.3l11.31 5c69.01,31.76 127.78,81.94 170.01,144.25 41.11,60.65 66.57,132.79 70.53,210.58l0.39 9.94c0.09,3.5 -0.09,6.77 -0.53,9.79 -1.49,10.35 -5.91,18.49 -12.75,24.17 -6.74,5.59 -15.76,8.66 -26.56,8.95 -3.84,0.1 -7.89,-0.15 -12.1,-0.76l-0.5 -0.07 -14.61 -5.32c-6.63,-2.41 -13.66,-1.89 -19.63,0.89 -5.97,2.77 -10.88,7.82 -13.3,14.44l-45.79 125.81c-2.42,6.66 -1.9,13.69 0.87,19.64 2.8,5.97 7.85,10.89 14.45,13.3 3.04,1.11 7.47,2.39 10.22,3.76 3.72,1.86 7.25,4.24 10.43,6.98 7.31,6.29 13.22,14.75 16.24,23.8 3.13,9.37 3.19,19.41 -1.36,28.52 -1.26,2.52 -2.87,4.96 -4.84,7.25l-4.76 5.44zm-143.96 93.76c52.41,-23.52 98.91,-57.9 136.63,-100.27l4.64 -5.3c1.46,-1.7 2.64,-3.47 3.53,-5.25 3.29,-6.57 3.18,-14.01 0.84,-21.04 -2.45,-7.36 -7.32,-14.27 -13.35,-19.46 -2.58,-2.21 -5.32,-4.09 -8.11,-5.52l-9.48 -3.45c-9.19,-3.35 -16.17,-10.14 -20.01,-18.37 -3.83,-8.24 -4.54,-17.96 -1.21,-27.11l45.79 -125.81c3.35,-9.18 10.14,-16.16 18.37,-20 8.22,-3.86 17.93,-4.57 27.11,-1.23l13.66 4.97c3.55,0.49 6.89,0.69 9.99,0.61 8.5,-0.22 15.47,-2.54 20.53,-6.73 4.95,-4.11 8.18,-10.17 9.31,-17.99 0.37,-2.55 0.52,-5.26 0.45,-8.1l-0.39 -9.75c-3.87,-75.96 -28.71,-146.39 -68.84,-205.58 -41.21,-60.8 -98.58,-109.79 -165.94,-140.8l-11.1 -4.92c-3.96,-1.68 -7.88,-2.93 -11.7,-3.72 -8.88,-1.85 -17.09,-1.22 -23.9,2.02 -6.73,3.2 -12.25,9.05 -15.89,17.65 -1.26,2.99 -2.3,6.31 -3.1,9.96l0 14.57c0,9.75 -3.99,18.62 -10.43,25.06 -6.46,6.46 -15.33,10.45 -25.08,10.45l-133.87 0c-9.77,0 -18.66,-3.99 -25.09,-10.43 -6.43,-6.45 -10.43,-15.33 -10.43,-25.08l0 -10.09c-0.64,-5.27 -1.87,-9.96 -3.61,-14.04 -3.28,-7.69 -8.39,-13.28 -14.68,-16.67 -6.36,-3.43 -14.03,-4.71 -22.33,-3.76 -5.17,0.6 -10.61,2.06 -16.13,4.42l-3.5 1.52c-70.62,30.92 -130.72,81.5 -173.38,144.81 -41.46,61.53 -66.44,135.09 -68.6,214.29l-0.07 3.15c-0.02,1.6 0.08,3.19 0.29,4.73 1.13,7.86 5.61,13.91 11.73,18.04 6.43,4.34 14.65,6.63 22.87,6.78 2.31,0.03 4.66,-0.09 6.99,-0.4l14.49 -5.27c8.94,-2.98 18.29,-2.19 26.27,1.53 8.24,3.82 15.04,10.81 18.38,20l45.8 125.8c3.33,9.16 2.61,18.87 -1.23,27.13 -3.84,8.23 -10.82,15.03 -20,18.37l-9.47 3.45c-2.8,1.43 -5.53,3.33 -8.08,5.55 -6.17,5.37 -11.1,12.61 -13.56,20.28 -2.37,7.37 -2.43,15.13 0.95,21.88 0.92,1.84 2.13,3.64 3.61,5.36l3.38 3.82c37.71,42.27 84.18,76.57 136.51,100.03 50.39,22.58 106.28,35.14 165.13,35.14 58.92,0 114.88,-12.6 165.31,-35.23zm6379.04 45.06c-60.22,0 -117.47,-12.88 -169.12,-36.03 -53.65,-24.05 -101.26,-59.19 -139.87,-102.47l-3.39 -3.85c-2.05,-2.37 -3.71,-4.86 -5.01,-7.46 -4.62,-9.23 -4.63,-19.57 -1.52,-29.25 3,-9.36 8.98,-18.16 16.44,-24.67 3.19,-2.8 6.72,-5.2 10.46,-7.07 2.87,-1.39 7.09,-2.62 10.2,-3.76 6.64,-2.41 11.69,-7.34 14.47,-13.3 2.78,-5.96 3.3,-12.99 0.88,-19.64l-45.91 -126.12c-2.44,-6.46 -7.3,-11.4 -13.18,-14.14 -5.95,-2.8 -12.99,-3.32 -19.63,-0.9 -4.86,1.77 -9.77,3.5 -14.61,5.32l-0.51 0.07c-2.92,0.42 -5.96,0.6 -9.02,0.55 -10.07,-0.18 -20.21,-3.04 -28.21,-8.43 -8.3,-5.6 -14.38,-13.9 -15.95,-24.79 -0.28,-1.98 -0.41,-4.08 -0.37,-6.29l0.07 -3.18c2.22,-81.21 27.8,-156.57 70.26,-219.58 43.68,-64.82 105.24,-116.62 177.62,-148.31l3.52 -1.53c6.43,-2.73 12.79,-4.45 18.89,-5.15 10.29,-1.18 19.94,0.47 28.08,4.87 8.22,4.44 14.86,11.63 19.05,21.47 2.14,5.02 3.64,10.74 4.38,17.1 0.35,3.05 0.04,7.65 0.04,10.87 0,7.07 2.88,13.5 7.53,18.14 4.67,4.65 11.1,7.55 18.16,7.55l133.87 0c7.07,0 13.5,-2.88 18.14,-7.53 4.66,-4.66 7.55,-11.08 7.55,-18.15l0 -15.5 0.11 -0.54c0.94,-4.5 2.22,-8.61 3.79,-12.32 4.65,-10.95 11.86,-18.47 20.73,-22.69 8.79,-4.18 19.11,-5.05 30.08,-2.76 4.39,0.92 8.93,2.36 13.53,4.3l11.31 5c69.01,31.76 127.78,81.94 170.01,144.25 41.11,60.65 66.57,132.79 70.53,210.58l0.39 9.94c0.09,3.5 -0.09,6.77 -0.53,9.79 -1.49,10.35 -5.91,18.49 -12.75,24.17 -6.74,5.59 -15.76,8.66 -26.56,8.95 -3.84,0.1 -7.89,-0.15 -12.1,-0.76l-0.5 -0.07 -14.61 -5.32c-6.63,-2.41 -13.66,-1.89 -19.63,0.89 -5.97,2.77 -10.88,7.82 -13.3,14.44l-45.79 125.81c-2.42,6.66 -1.9,13.69 0.87,19.64 2.8,5.97 7.85,10.89 14.45,13.3 3.04,1.11 7.47,2.39 10.22,3.76 3.72,1.86 7.25,4.24 10.43,6.98 7.31,6.29 13.22,14.75 16.24,23.8 3.13,9.37 3.19,19.41 -1.36,28.52 -1.26,2.52 -2.87,4.96 -4.84,7.25l-4.76 5.43c-38.61,43.38 -86.25,78.6 -139.97,102.71 -51.7,23.2 -109.01,36.11 -169.3,36.11zm-165.13 -44.97c50.39,22.58 106.28,35.14 165.13,35.14 58.92,0 114.88,-12.6 165.31,-35.23 52.41,-23.52 98.91,-57.9 136.63,-100.27l4.64 -5.3c1.46,-1.7 2.64,-3.47 3.53,-5.25 3.29,-6.57 3.18,-14.01 0.84,-21.04 -2.45,-7.36 -7.32,-14.27 -13.35,-19.46 -2.58,-2.21 -5.32,-4.09 -8.11,-5.52l-9.48 -3.45c-9.19,-3.35 -16.17,-10.14 -20.01,-18.37 -3.83,-8.24 -4.54,-17.96 -1.21,-27.11l45.79 -125.81c3.35,-9.18 10.14,-16.16 18.37,-20 8.22,-3.86 17.93,-4.57 27.11,-1.23l13.66 4.97c3.55,0.49 6.89,0.69 9.99,0.61 8.5,-0.22 15.47,-2.54 20.53,-6.73 4.95,-4.11 8.18,-10.17 9.31,-17.99 0.37,-2.55 0.52,-5.26 0.45,-8.1l-0.39 -9.75c-3.87,-75.96 -28.71,-146.39 -68.84,-205.58 -41.21,-60.8 -98.58,-109.79 -165.94,-140.8l-11.1 -4.92c-3.96,-1.68 -7.88,-2.93 -11.7,-3.72 -8.88,-1.85 -17.09,-1.22 -23.9,2.02 -6.73,3.2 -12.25,9.05 -15.89,17.65 -1.26,2.99 -2.3,6.31 -3.1,9.96l0 14.57c0,9.75 -3.99,18.62 -10.43,25.06 -6.46,6.46 -15.33,10.45 -25.08,10.45l-133.87 0c-9.77,0 -18.66,-3.99 -25.09,-10.43 -6.43,-6.45 -10.43,-15.33 -10.43,-25.08l0 -10.09c-0.64,-5.27 -1.87,-9.96 -3.61,-14.04 -3.28,-7.69 -8.39,-13.28 -14.68,-16.67 -6.36,-3.43 -14.03,-4.71 -22.33,-3.76 -5.17,0.6 -10.61,2.06 -16.13,4.42l-3.5 1.52c-70.62,30.92 -130.72,81.5 -173.38,144.81 -41.46,61.53 -66.44,135.09 -68.6,214.29l-0.07 3.15c-0.02,1.6 0.08,3.19 0.29,4.73 1.13,7.86 5.61,13.91 11.73,18.04 6.43,4.34 14.65,6.63 22.87,6.78 2.31,0.03 4.66,-0.09 6.99,-0.4l14.49 -5.27c8.94,-2.98 18.29,-2.19 26.27,1.53 8.24,3.82 15.04,10.81 18.38,20l45.8 125.8c3.33,9.16 2.61,18.87 -1.23,27.13 -3.84,8.23 -10.82,15.03 -20,18.37l-9.47 3.45c-2.8,1.43 -5.53,3.33 -8.08,5.55 -6.17,5.37 -11.1,12.61 -13.56,20.28 -2.37,7.37 -2.43,15.13 0.95,21.88 0.92,1.84 2.13,3.64 3.61,5.36l3.38 3.82c37.71,42.27 84.18,76.57 136.51,100.03z"/>
   <path class="fil2" d="M7701.56 5378.79c136.88,0 260.8,55.49 350.49,145.17 89.69,89.69 145.17,213.62 145.17,350.49 0,136.88 -55.49,260.8 -145.17,350.49 -89.69,89.69 -213.62,145.17 -350.49,145.17 -136.88,0 -260.8,-55.49 -350.49,-145.17 -89.69,-89.69 -145.17,-213.62 -145.17,-350.49 0,-136.88 55.49,-260.8 145.17,-350.49 89.69,-89.69 213.62,-145.17 350.49,-145.17zm344.36 151.31c-88.13,-88.12 -209.89,-142.64 -344.36,-142.64 -134.48,0 -256.23,54.52 -344.36,142.64 -88.12,88.13 -142.64,209.88 -142.64,344.36 0,134.47 54.52,256.23 142.64,344.36 88.13,88.12 209.88,142.64 344.36,142.64 134.47,0 256.23,-54.52 344.36,-142.64 88.12,-88.13 142.64,-209.89 142.64,-344.36 0,-134.48 -54.52,-256.23 -142.64,-344.36z"/>
   <path class="fil2" d="M4433.24 5378.79c136.88,0 260.8,55.49 350.49,145.17 89.69,89.69 145.17,213.62 145.17,350.49 0,136.88 -55.49,260.8 -145.17,350.49 -89.69,89.69 -213.62,145.17 -350.49,145.17 -136.88,0 -260.8,-55.49 -350.49,-145.17 -89.69,-89.69 -145.17,-213.62 -145.17,-350.49 0,-136.88 55.49,-260.8 145.17,-350.49 89.69,-89.69 213.62,-145.17 350.49,-145.17zm344.36 151.31c-88.13,-88.12 -209.89,-142.64 -344.36,-142.64 -134.48,0 -256.23,54.52 -344.36,142.64 -88.12,88.13 -142.64,209.88 -142.64,344.36 0,134.47 54.52,256.23 142.64,344.36 88.13,88.12 209.88,142.64 344.36,142.64 134.47,0 256.23,-54.52 344.36,-142.64 88.12,-88.13 142.64,-209.89 142.64,-344.36 0,-134.48 -54.52,-256.23 -142.64,-344.36z"/>
   <path class="fil2" d="M1164.92 5378.79c136.88,0 260.8,55.49 350.49,145.17 89.69,89.69 145.17,213.62 145.17,350.49 0,136.88 -55.49,260.8 -145.17,350.49 -89.69,89.69 -213.62,145.17 -350.49,145.17 -136.88,0 -260.8,-55.49 -350.49,-145.17 -89.69,-89.69 -145.17,-213.62 -145.17,-350.49 0,-136.88 55.49,-260.8 145.17,-350.49 89.69,-89.69 213.62,-145.17 350.49,-145.17zm344.36 151.31c-88.13,-88.12 -209.89,-142.64 -344.36,-142.64 -134.48,0 -256.23,54.52 -344.36,142.64 -88.12,88.13 -142.64,209.88 -142.64,344.36 0,134.47 54.52,256.23 142.64,344.36 88.13,88.12 209.88,142.64 344.36,142.64 134.47,0 256.23,-54.52 344.36,-142.64 88.12,-88.13 142.64,-209.89 142.64,-344.36 0,-134.48 -54.52,-256.23 -142.64,-344.36z"/>
   <path class="fil2" d="M7701.56 3001.25c136.88,0 260.8,55.49 350.49,145.17 89.69,89.69 145.17,213.62 145.17,350.49 0,136.88 -55.49,260.8 -145.17,350.49 -89.69,89.69 -213.62,145.17 -350.49,145.17 -136.88,0 -260.8,-55.49 -350.49,-145.17 -89.69,-89.69 -145.17,-213.62 -145.17,-350.49 0,-136.88 55.49,-260.8 145.17,-350.49 89.69,-89.69 213.62,-145.17 350.49,-145.17zm344.36 151.31c-88.13,-88.12 -209.89,-142.64 -344.36,-142.64 -134.48,0 -256.23,54.52 -344.36,142.64 -88.12,88.13 -142.64,209.88 -142.64,344.36 0,134.47 54.52,256.23 142.64,344.36 88.13,88.12 209.88,142.64 344.36,142.64 134.47,0 256.23,-54.52 344.36,-142.64 88.12,-88.13 142.64,-209.89 142.64,-344.36 0,-134.48 -54.52,-256.23 -142.64,-344.36z"/>
   <path class="fil2" d="M4433.24 3001.25c136.88,0 260.8,55.49 350.49,145.17 89.69,89.69 145.17,213.62 145.17,350.49 0,136.88 -55.49,260.8 -145.17,350.49 -89.69,89.69 -213.62,145.17 -350.49,145.17 -136.88,0 -260.8,-55.49 -350.49,-145.17 -89.69,-89.69 -145.17,-213.62 -145.17,-350.49 0,-136.88 55.49,-260.8 145.17,-350.49 89.69,-89.69 213.62,-145.17 350.49,-145.17zm344.36 151.31c-88.13,-88.12 -209.89,-142.64 -344.36,-142.64 -134.48,0 -256.23,54.52 -344.36,142.64 -88.12,88.13 -142.64,209.88 -142.64,344.36 0,134.47 54.52,256.23 142.64,344.36 88.13,88.12 209.88,142.64 344.36,142.64 134.47,0 256.23,-54.52 344.36,-142.64 88.12,-88.13 142.64,-209.89 142.64,-344.36 0,-134.48 -54.52,-256.23 -142.64,-344.36z"/>
   <path class="fil2" d="M1164.92 3001.25c136.88,0 260.8,55.49 350.49,145.17 89.69,89.69 145.17,213.62 145.17,350.49 0,136.88 -55.49,260.8 -145.17,350.49 -89.69,89.69 -213.62,145.17 -350.49,145.17 -136.88,0 -260.8,-55.49 -350.49,-145.17 -89.69,-89.69 -145.17,-213.62 -145.17,-350.49 0,-136.88 55.49,-260.8 145.17,-350.49 89.69,-89.69 213.62,-145.17 350.49,-145.17zm344.36 151.31c-88.13,-88.12 -209.89,-142.64 -344.36,-142.64 -134.48,0 -256.23,54.52 -344.36,142.64 -88.12,88.13 -142.64,209.88 -142.64,344.36 0,134.47 54.52,256.23 142.64,344.36 88.13,88.12 209.88,142.64 344.36,142.64 134.47,0 256.23,-54.52 344.36,-142.64 88.12,-88.13 142.64,-209.89 142.64,-344.36 0,-134.48 -54.52,-256.23 -142.64,-344.36z"/>
   <path class="fil2" d="M7701.56 623.7c136.88,0 260.8,55.49 350.49,145.17 89.69,89.69 145.17,213.62 145.17,350.49 0,136.88 -55.49,260.8 -145.17,350.49 -89.69,89.69 -213.62,145.17 -350.49,145.17 -136.88,0 -260.8,-55.49 -350.49,-145.17 -89.69,-89.69 -145.17,-213.62 -145.17,-350.49 0,-136.88 55.49,-260.8 145.17,-350.49 89.69,-89.69 213.62,-145.17 350.49,-145.17zm344.36 151.31c-88.13,-88.12 -209.89,-142.64 -344.36,-142.64 -134.48,0 -256.23,54.52 -344.36,142.64 -88.12,88.13 -142.64,209.88 -142.64,344.36 0,134.47 54.52,256.23 142.64,344.36 88.13,88.12 209.88,142.64 344.36,142.64 134.47,0 256.23,-54.52 344.36,-142.64 88.12,-88.13 142.64,-209.89 142.64,-344.36 0,-134.48 -54.52,-256.23 -142.64,-344.36z"/>
   <path class="fil2" d="M1164.92 623.7c136.88,0 260.8,55.49 350.49,145.17 89.69,89.69 145.17,213.62 145.17,350.49 0,136.88 -55.49,260.8 -145.17,350.49 -89.69,89.69 -213.62,145.17 -350.49,145.17 -136.88,0 -260.8,-55.49 -350.49,-145.17 -89.69,-89.69 -145.17,-213.62 -145.17,-350.49 0,-136.88 55.49,-260.8 145.17,-350.49 89.69,-89.69 213.62,-145.17 350.49,-145.17zm344.36 151.31c-88.13,-88.12 -209.89,-142.64 -344.36,-142.64 -134.48,0 -256.23,54.52 -344.36,142.64 -88.12,88.13 -142.64,209.88 -142.64,344.36 0,134.47 54.52,256.23 142.64,344.36 88.13,88.12 209.88,142.64 344.36,142.64 134.47,0 256.23,-54.52 344.36,-142.64 88.12,-88.13 142.64,-209.89 142.64,-344.36 0,-134.48 -54.52,-256.23 -142.64,-344.36z"/>
  </g>
  <circle class="fil3 str0" cx="1164.92" cy="1119.37" r="515.9"/>
  <circle class="fil3 str0" cx="1164.92" cy="1119.37" r="348.02"/>
  <circle class="fil3 str0" cx="1164.92" cy="1119.37" r="251.24"/>
  <polygon class="fil4 str0" points="1164.92,796.79 1304.61,877.44 1444.29,958.07 1444.29,1119.37 1444.29,1280.66 1304.61,1361.3 1164.92,1441.95 1025.24,1361.3 885.56,1280.66 885.56,1119.37 885.56,958.07 1025.24,877.44 "/>
  <circle class="fil3 str0" cx="1164.92" cy="3483.35" r="515.9"/>
  <circle class="fil3 str0" cx="1164.92" cy="3483.35" r="348.02"/>
  <circle class="fil3 str0" cx="1164.92" cy="3483.35" r="251.24"/>
  <polygon class="fil4 str0" points="1164.92,3160.77 1304.61,3241.42 1444.29,3322.05 1444.29,3483.35 1444.29,3644.64 1304.61,3725.28 1164.92,3805.93 1025.24,3725.28 885.56,3644.64 885.56,3483.35 885.56,3322.05 1025.24,3241.42 "/>
  <circle class="fil3 str0" cx="1164.92" cy="5890.22" r="515.9"/>
  <circle class="fil3 str0" cx="1164.92" cy="5890.22" r="348.02"/>
  <circle class="fil3 str0" cx="1164.92" cy="5890.22" r="251.24"/>
  <polygon class="fil4 str0" points="1164.92,5567.64 1304.61,5648.29 1444.29,5728.93 1444.29,5890.22 1444.29,6051.52 1304.61,6132.15 1164.92,6212.8 1025.24,6132.15 885.56,6051.52 885.56,5890.22 885.56,5728.93 1025.24,5648.29 "/>
  <circle class="fil3 str0" cx="4433.24" cy="5890.22" r="515.9"/>
  <circle class="fil3 str0" cx="4433.24" cy="5890.22" r="348.02"/>
  <circle class="fil3 str0" cx="4433.24" cy="5890.22" r="251.24"/>
  <polygon class="fil4 str0" points="4433.24,5567.64 4572.93,5648.29 4712.6,5728.93 4712.6,5890.22 4712.6,6051.52 4572.93,6132.15 4433.24,6212.8 4293.56,6132.15 4153.88,6051.52 4153.88,5890.22 4153.88,5728.93 4293.56,5648.29 "/>
  <circle class="fil3 str0" cx="7701.56" cy="5890.22" r="515.9"/>
  <circle class="fil3 str0" cx="7701.56" cy="5890.22" r="348.02"/>
  <circle class="fil3 str0" cx="7701.56" cy="5890.22" r="251.24"/>
  <polygon class="fil4 str0" points="7701.56,5567.64 7841.24,5648.29 7980.92,5728.93 7980.92,5890.22 7980.92,6051.52 7841.24,6132.15 7701.56,6212.8 7561.87,6132.15 7422.2,6051.52 7422.2,5890.22 7422.2,5728.93 7561.87,5648.29 "/>
  <circle class="fil3 str0" cx="4433.24" cy="3496.91" r="515.9"/>
  <circle class="fil3 str0" cx="4433.24" cy="3496.91" r="348.02"/>
  <circle class="fil3 str0" cx="4433.24" cy="3496.91" r="251.24"/>
  <polygon class="fil4 str0" points="4433.24,3174.33 4572.93,3254.98 4712.6,3335.62 4712.6,3496.91 4712.6,3658.21 4572.93,3738.85 4433.24,3819.49 4293.56,3738.85 4153.88,3658.21 4153.88,3496.91 4153.88,3335.62 4293.56,3254.98 "/>
  <circle class="fil3 str0" cx="7701.56" cy="3496.91" r="515.9"/>
  <circle class="fil3 str0" cx="7701.56" cy="3496.91" r="348.02"/>
  <circle class="fil3 str0" cx="7701.56" cy="3496.91" r="251.24"/>
  <polygon class="fil4 str0" points="7701.56,3174.33 7841.24,3254.98 7980.92,3335.62 7980.92,3496.91 7980.92,3658.21 7841.24,3738.85 7701.56,3819.49 7561.87,3738.85 7422.2,3658.21 7422.2,3496.91 7422.2,3335.62 7561.87,3254.98 "/>
  <circle class="fil3 str0" cx="7701.56" cy="1119.37" r="515.9"/>
  <circle class="fil3 str0" cx="7701.56" cy="1119.37" r="348.02"/>
  <circle class="fil3 str0" cx="7701.56" cy="1119.37" r="251.24"/>
  <polygon class="fil4 str0" points="7701.56,796.79 7841.24,877.44 7980.92,958.07 7980.92,1119.37 7980.92,1280.66 7841.24,1361.3 7701.56,1441.95 7561.87,1361.3 7422.2,1280.66 7422.2,1119.37 7422.2,958.07 7561.87,877.44 "/>
 </g>
</svg>
