<?xml version="1.0" encoding="UTF-8"?>
<!DOCTYPE svg PUBLIC "-//W3C//DTD SVG 1.1//EN" "http://www.w3.org/Graphics/SVG/1.1/DTD/svg11.dtd">
<!-- Creator: CorelDRAW -->
<svg xmlns="http://www.w3.org/2000/svg" xml:space="preserve" width="140.2mm" height="100.412mm" version="1.1" style="shape-rendering:geometricPrecision; text-rendering:geometricPrecision; image-rendering:optimizeQuality; fill-rule:evenodd; clip-rule:evenodd"
viewBox="0 0 13533.28 9692.56"
 xmlns:xlink="http://www.w3.org/1999/xlink"
 xmlns:xodm="http://www.corel.com/coreldraw/odm/2003">
 <defs>
  <style type="text/css">
   <![CDATA[
    .fil0 {fill:#ECEEEF}
    .fil2 {fill:#596065;fill-rule:nonzero}
    .fil1 {fill:#3C4246;fill-rule:nonzero}
   ]]>
  </style>
 </defs>
 <g id="Camada_x0020_1">
  <metadata id="CorelCorpID_0Corel-Layer"/>
  <path class="fil0" d="M9679.04 5053.22l186.13 0 71.04 278.02 71.16 -278.02 185.37 0 0 456.92 -115.5 0 0 -348.32 -89.13 348.32 -104.66 0 -88.91 -348.32 0 348.32 -115.51 0 0 -456.92zm1027.05 -2869.23l86.3 0 0 130.53 -86.3 0 0 176.93 -130.53 0 0 -176.93 -316.05 0 0 -130.53 316.05 -447.67 130.53 0 0 447.67zm-130.53 0l0 -220.06 -155.33 220.06 155.33 0zm-7297.36 -207.23c0,58.99 -20.82,109.31 -62.46,150.94 41.64,41.66 62.46,91.96 62.46,150.96 0,59 -20.82,109.32 -62.46,150.96 -41.64,41.64 -92.32,62.46 -151.99,62.46l-299.83 0 0 -125.97 299.83 0c24.3,0 45.13,-8.5 62.46,-25.5 17.36,-17 26.03,-37.66 26.03,-61.95 0,-15.96 -4,-30.72 -11.98,-44.25 -7.97,-13.53 -18.74,-24.11 -32.27,-31.75 -13.53,-7.63 -27.95,-11.45 -43.21,-11.45l-214.47 0 0 -127.01 214.47 0c15.27,0 29.67,-3.82 43.21,-11.45 13.53,-7.64 24.12,-18.23 31.75,-31.75 7.64,-13.53 11.45,-28.12 11.45,-43.74 0,-15.61 -3.81,-30.19 -11.45,-43.73 -7.63,-13.51 -18.21,-24.3 -31.75,-32.27 -13.52,-7.98 -28.29,-11.97 -44.25,-11.97l-299.83 0 0 -125.97 299.83 0c23.59,0 46.33,3.66 68.19,10.93 21.85,7.29 41.48,17.54 58.82,30.72 17.34,13.19 32.63,28.47 45.8,45.81 13.18,17.36 23.44,36.96 30.72,58.81 7.29,21.85 10.93,44.25 10.93,67.15zm6969.68 7142.39l0 87.45 388.32 0 0 125.97 -514.28 0 0 -213.42c0,-38.86 9.55,-74.78 28.63,-107.75 19.08,-32.96 45.12,-59 78.08,-78.08 32.96,-19.08 68.54,-28.63 106.71,-28.63l87.45 0c23.6,0 44.07,-8.5 61.42,-25.51 17.35,-17 26.03,-37.65 26.03,-61.93 0,-24.3 -8.69,-44.95 -26.03,-61.95 -17.34,-16.99 -37.85,-25.5 -61.42,-25.5l-87.45 0c-23.58,0 -44.09,8.51 -61.43,25.5 -17.35,17 -26.03,37.66 -26.03,61.95l-125.96 0c0,-59 20.82,-109.32 62.46,-150.96 41.64,-41.64 91.96,-62.46 150.96,-62.46l87.45 0c58.99,0 109.31,20.82 150.95,62.46 41.64,41.64 62.46,91.96 62.46,150.96 0,58.99 -20.82,109.48 -62.46,151.47 -41.64,41.98 -91.98,62.98 -150.95,62.98l-87.45 0c-23.58,0 -44.08,8.51 -61.43,25.51 -17.35,17 -26.03,37.68 -26.03,61.93zm-7405.53 -515.33l178.02 0 0 728.75 -125.97 0 0 -602.78 -97.86 0 45.81 -125.97zm-1235.81 -5129.3l-257.2 351.66c-12.25,16.71 -8.63,40.2 8.08,52.45 6.69,4.9 14.47,7.26 22.18,7.26l0 0.09 112.18 0c13.72,0 25.72,-7.34 32.29,-18.31l165.77 -233.81 165.13 235.96c7.27,10.42 18.89,15.99 30.71,15.99l0 0.16 112.18 0c20.77,0 37.62,-16.84 37.62,-37.62 0,-9.35 -3.43,-17.93 -9.09,-24.51l-253.06 -351.19c-53.15,-47.17 -117.85,-57.7 -166.77,1.85zm164.45 2606.42l257.2 -351.66c12.25,-16.71 8.63,-40.2 -8.08,-52.45 -6.69,-4.9 -14.47,-7.26 -22.18,-7.26l0 -0.09 -112.18 0c-13.72,0 -25.72,7.34 -32.29,18.31l-165.77 233.81 -165.13 -235.96c-7.27,-10.42 -18.89,-15.99 -30.71,-15.99l0 -0.16 -112.18 0c-20.77,0 -37.62,16.84 -37.62,37.62 0,9.35 3.43,17.93 9.09,24.51l253.06 351.19c53.15,47.17 117.85,57.7 166.77,-1.85zm-879.21 -1470.73l231.98 0 0 75.46 -231.98 0 -75.46 0 0 -436.52 75.46 0 0 361.06zm570.31 75.46l-75.46 0 0 -436.52 75.46 0 0 436.52zm580.92 -436.52l80.44 0 -159.01 436.52 -80.45 0 -159.02 -436.52 80.45 0 118.49 326.14 119.11 -326.14zm650.13 436.52l-307.43 0 0 -75.46 307.43 0 0 75.46zm0 -361.06l-307.43 0 0 -75.46 307.43 0 0 75.46zm-51.76 180.85l-255.67 0 0 -76.08 255.67 0 0 76.08zm-1825.05 758.68l110.38 -436.52 77.95 0 71.09 281.87 71.09 -281.87 77.95 0 110.38 436.52 -77.96 0 -71.08 -281.86 -71.09 281.86 -77.95 0 -71.72 -281.86 -71.08 281.86 -77.96 0zm705.81 -407.21c33.47,-19.54 69.95,-29.31 109.44,-29.31 39.5,0 75.98,9.77 109.44,29.31 33.47,19.54 59.97,46.04 79.51,79.51 19.54,33.47 29.31,69.94 29.31,109.44 0,39.49 -9.77,75.98 -29.31,109.44 -19.54,33.47 -46.04,59.96 -79.51,79.51 -33.47,19.54 -69.94,29.31 -109.44,29.31 -39.49,0 -75.98,-9.77 -109.44,-29.31 -33.47,-19.55 -59.96,-46.04 -79.51,-79.51 -19.54,-33.47 -29.31,-69.95 -29.31,-109.44 0,-39.5 9.77,-75.98 29.31,-109.44 19.55,-33.47 46.04,-59.97 79.51,-79.51zm8.42 289.98c27.86,27.85 61.54,41.78 101.03,41.78 39.5,0 73.17,-13.93 101.03,-41.78 27.85,-27.86 41.78,-61.54 41.78,-101.03 0,-39.5 -13.93,-73.17 -41.78,-101.03 -27.86,-27.85 -61.53,-41.78 -101.03,-41.78 -39.49,0 -73.17,13.93 -101.03,41.78 -27.85,27.86 -41.78,61.53 -41.78,101.03 0,39.49 13.93,73.17 41.78,101.03zm520.91 -319.29c39.5,0 75.98,9.77 109.44,29.31 33.47,19.54 59.97,46.04 79.51,79.51 19.54,33.47 29.31,69.94 29.31,109.44 0,23.7 -3.63,46.66 -10.91,68.91 -7.28,22.24 -17.67,42.3 -31.18,60.18 -13.51,17.88 -29.21,33.57 -47.09,47.08 -17.88,13.51 -37.94,23.91 -60.18,31.18 -22.24,7.28 -45.21,10.92 -68.91,10.92l-92.29 0 0 -75.46 92.29 0c19.55,0 38.04,-3.84 55.5,-11.54 17.46,-7.69 32.64,-17.88 45.52,-30.56 12.89,-12.67 23.07,-27.85 30.56,-45.52 7.48,-17.66 11.22,-36.06 11.22,-55.19 0,-39.5 -13.92,-73.17 -41.78,-101.03 -27.86,-27.85 -61.53,-41.78 -101.03,-41.78l-92.29 0 0 -75.46 92.29 0zm648.12 436.52l-307.43 0 0 -75.46 307.43 0 0 75.46zm0 -361.06l-307.43 0 0 -75.46 307.43 0 0 75.46zm-51.76 180.85l-255.67 0 0 -76.08 255.67 0 0 76.08zm7871.79 -145.73l114.96 -0.15c2.98,-78.55 0.26,-162.99 0.37,-242.15 0.1,-79.61 -14.24,-167.62 79.72,-169.21 136.48,-2.35 62.51,230.53 85.81,409.57l113.35 0.55c1.16,-82.13 -0.67,-165.02 -0.08,-246.99 0.55,-76.73 -4.88,-165.15 86.51,-164.32 92.33,0.83 82.66,89.15 83.56,164.3 0.99,81.33 -3.33,168.63 1.08,248.76l115.12 -0.98c6.14,-100.69 15.64,-358.6 -31.8,-426.96 -29.58,-42.63 -66.7,-79.59 -139.18,-90.85 -85.05,-13.22 -124.73,25.09 -174.32,56.78 -28.87,-15.64 -68.73,-68.66 -169.1,-55.29 -174.42,23.24 -166.81,179.74 -167.14,286.79 -0.2,68.63 -6.02,164.78 1.13,230.17zm1656.62 131l173.79 0.55c19.87,324.38 365.22,332.86 477.89,161.87 96.76,-146.88 77.99,-468.74 -344,-395.66 -50.1,-134.87 -97.24,-65.58 53.82,-223.99 32.21,-33.79 73.55,-60.31 109.8,-91.36l96.64 -102.75 -501.87 3.48 2.73 -171.1 751.99 3.22c-0.32,117.61 27.32,137.21 -53.31,211.31 -49.05,45.07 -201.2,166.79 -223.11,206.45 162.16,38.74 290.15,132.12 328.61,303.91 37.89,169.27 -24.01,352.2 -159.83,447.94 -148.26,104.53 -331.5,133.49 -491.86,39.78 -61.74,-36.08 -110.6,-76.47 -147.59,-129.2 -4.17,29.1 -11.9,54.39 -23.22,75.89 -17.97,34.14 -44.03,60.73 -77.96,79.76 -34.04,19.04 -76.36,28.5 -127.1,28.5 -51.48,0 -94.12,-8.2 -127.95,-24.57 -33.71,-16.49 -61.15,-42.43 -82.11,-77.96 -20.96,-35.43 -31.49,-79.89 -31.49,-133.27 0,-74.56 20.74,-132.63 62.33,-174.11 41.59,-41.59 99.44,-62.34 173.68,-62.34 68.75,0 123.24,16.71 163.47,50 -2.07,-16.05 -3.37,-26.62 -3.37,-26.36zm429.78 -194.34l16.71 0c10.74,0 19.53,8.77 19.53,19.52l0 48.66c0,10.73 -8.78,19.52 -19.53,19.52l-16.71 0c-10.75,0 -19.53,-8.78 -19.53,-19.52l0 -48.66c0,-10.74 8.77,-19.52 19.53,-19.52zm116.76 228.59l0 -16.72c0,-10.74 8.78,-19.53 19.54,-19.53l68.18 0c10.72,0 19.51,8.78 19.51,19.53l0 16.72c0,10.74 -8.78,19.53 -19.51,19.53l-68.18 0c-10.75,0 -19.54,-8.78 -19.54,-19.53zm-316.99 0l0 -16.72c0,-10.74 8.79,-19.53 19.52,-19.53l68.18 0c10.75,0 19.53,8.78 19.53,19.53l0 16.72c0,10.74 -8.77,19.53 -19.53,19.53l-68.18 0c-10.72,0 -19.52,-8.78 -19.52,-19.53zm353.74 148.59l11.24 -12.37c7.22,-7.93 6.63,-20.33 -1.3,-27.55l-50.45 -45.88c-7.94,-7.22 -20.36,-6.62 -27.58,1.31l-11.26 12.37c-7.21,7.93 -6.63,20.33 1.32,27.56l50.45 45.88c7.95,7.21 20.35,6.64 27.58,-1.32zm-282.28 0l-11.25 -12.37c-7.22,-7.93 -6.63,-20.33 1.32,-27.55l50.44 -45.88c7.93,-7.22 20.34,-6.62 27.57,1.31l11.25 12.37c7.22,7.93 6.63,20.33 -1.31,27.56l-50.44 45.88c-7.94,7.21 -20.35,6.64 -27.58,-1.32zm128.77 -50.82l16.71 0c10.74,0 19.53,8.78 19.53,19.52l0 68.2c0,10.71 -8.78,19.5 -19.53,19.5l-16.71 0c-10.75,0 -19.53,-8.78 -19.53,-19.5l0 -68.2c0,-10.73 8.77,-19.52 19.53,-19.52zm-2803.95 -748.08l2.19 113.06c50.3,-21.85 58.92,-47.14 141.54,-37.56 55.64,6.44 89.49,41.8 108.91,84.4 82.04,180.08 -145.64,312.15 -266.96,161.96 -36.14,-44.75 -32.2,-94.72 -32.37,-157.97 -0.36,-129.58 2.23,-260.75 -0.21,-390l-116.09 -0.73c-0.33,109.78 -12.33,455.58 15.7,537.04 13.97,40.58 50.74,95.05 79.53,119.95 200.61,173.48 544.06,-22.18 431.38,-302.66 -57.68,-143.54 -239.14,-203.4 -363.62,-127.48zm2010.62 111.43l0.52 -117.67c-271.62,-128.41 -516.42,212.23 -290.32,432.93 90.15,88 253.25,85.36 351.36,12.15 16.53,-12.33 19.23,-21.27 34.58,-37.78 20.96,-22.54 41.61,-48.55 51.81,-87.81 30.62,-117.78 9.28,-395.19 13.33,-537.18l-114.62 -1.04c-15.69,156.03 24.2,469.68 -23.5,540 -23.45,34.54 -66.52,71.7 -128.05,72.99 -112.44,2.35 -193.5,-107.85 -150.42,-221.07 30.3,-79.61 106.49,-106.87 187.17,-87.91 29.8,7 42.77,23.15 68.15,32.39zm-1566.23 -135.37l-82.54 1.1c-4.57,126.09 -3.56,92.42 83.64,99.18l0.42 406.22 114.3 0.3 -0.07 -408.7 114.79 0.81c9.38,-13.55 48.22,-82.13 52.99,-97.75l-165.7 -2.25c-3.67,-118.34 43.39,-99.94 139.14,-106.38l0.44 -95.32c-166.1,-24.35 -248.25,34.92 -257.41,202.8zm1021.71 508.84l114.2 -0.6 -1.31 -505.94 -112.52 -2.7 -0.37 509.25zm770.42 -0.53l112.58 -0.02 0.7 -507.02 -112.39 -0.39 -0.89 507.42zm0.02 -602.61l110.17 1.66 1.27 -106.27 -112.77 -2.44 1.33 107.05zm-770.63 0.81l109.32 -0.27 2.87 -106.6 -111.93 -0.4 -0.25 107.26zm-4955.33 4171.02c-6.8,13.28 -14.96,25.1 -24.44,35.4 -9.54,10.35 -20.4,19.21 -32.61,26.6 -8.22,5.03 -17.37,9.37 -27.35,12.98 -9.99,3.57 -20.81,6.44 -32.39,8.55 -11.64,2.09 -26.37,3.7 -44.16,4.73 -17.62,1.04 -38.31,1.57 -62,1.57l-201.15 0 -4.31 0 0 -4.31 0 -572.75 0 -4.31 4.31 0 249.66 0c30.31,0 56.69,3.02 79.12,9.12 22.63,6.14 41.32,15.43 56.11,27.85 14.8,12.41 25.93,28.22 33.34,47.36 7.33,18.92 11.01,41.09 11.01,66.44 0,15.78 -1.65,30.23 -4.89,43.28 -3.28,13.14 -8.26,24.93 -14.89,35.34 -6.57,10.47 -14.87,19.75 -24.91,27.78 -7.37,5.9 -15.68,11.11 -24.89,15.72 11.02,4.02 21.01,9.02 29.97,15.03 11.85,7.97 21.89,17.69 30.11,29.19 8.2,11.54 14.37,24.45 18.45,38.71 4.06,14.13 6.07,29.66 6.07,46.51 0,16.34 -1.67,31.95 -5.01,46.84 -3.35,14.87 -8.43,28.99 -15.15,42.36zm-117.93 -92.23c0,-9.91 -1.41,-18.53 -4.23,-25.86 -2.72,-7.17 -6.85,-13.16 -12.34,-17.93 -5.48,-4.8 -12.42,-8.48 -20.74,-10.92 -8.53,-2.51 -18.57,-3.79 -30.04,-3.79l-108.58 0 0 118.03 95.34 0c15.4,0 28.43,-1.17 39.05,-3.52 10.43,-2.3 18.54,-5.7 24.38,-10.16 5.62,-4.34 9.86,-10.28 12.72,-17.73 2.93,-7.72 4.43,-17.1 4.43,-28.1zm-74.26 -175.47c10.78,0 20.15,-1.11 28.05,-3.29 7.7,-2.13 14.11,-5.32 19.11,-9.5 4.9,-4.1 8.63,-9.31 11.1,-15.57 2.55,-6.44 3.83,-14.04 3.83,-22.82 0,-16.09 -4.64,-28.15 -13.89,-36.18 -4.66,-4.02 -10.51,-7.09 -17.49,-9.17 -7.15,-2.09 -15.53,-3.17 -25.13,-3.17l-107.25 0 0 99.69 101.66 0zm662.38 432.48l-898.81 0c-15.08,0 -29.51,-3.03 -42.7,-8.56 -13.65,-5.72 -26.01,-14.13 -36.34,-24.54 -10.36,-10.35 -18.73,-22.76 -24.41,-36.5 -5.47,-13.21 -8.52,-27.73 -8.52,-42.88l0 -506.33c0,-15.15 3.04,-29.67 8.52,-42.91 5.69,-13.76 14.05,-26.16 24.41,-36.54 10.33,-10.4 22.69,-18.8 36.34,-24.51 13.2,-5.53 27.63,-8.59 42.7,-8.59l898.81 0 905.26 0c15.07,0 29.5,3.05 42.7,8.59 13.65,5.7 26.01,14.11 36.34,24.51 10.35,10.39 18.73,22.81 24.42,36.54 5.47,13.22 8.53,27.75 8.53,42.91l0 506.33c0,15.12 -3.06,29.64 -8.53,42.85 -5.7,13.74 -14.07,26.18 -24.42,36.53 -10.33,10.41 -22.69,18.81 -36.34,24.54 -13.21,5.53 -27.62,8.56 -42.7,8.56l-905.26 0zm-898.81 45.54l1804.08 0c21.23,0 41.5,-4.29 59.97,-12 19.24,-8.01 36.57,-19.8 51.1,-34.36 14.54,-14.63 26.28,-32.06 34.25,-51.37 7.69,-18.55 11.94,-38.94 11.94,-60.28l0 -506.33c0,-21.39 -4.25,-41.75 -11.94,-60.35 -7.97,-19.31 -19.71,-36.77 -34.25,-51.34 -14.53,-14.59 -31.86,-26.39 -51.1,-34.41 -18.49,-7.72 -38.75,-11.99 -59.97,-11.99l-1804.08 0c-21.23,0 -41.49,4.27 -59.94,11.99 -19.25,8.02 -36.61,19.83 -51.14,34.41 -14.53,14.58 -26.27,32.04 -34.24,51.34 -7.69,18.6 -11.94,38.96 -11.94,60.35l0 506.33c0,21.34 4.25,41.73 11.94,60.28 7.97,19.32 19.71,36.74 34.24,51.37 14.53,14.57 31.86,26.35 51.14,34.39 18.46,7.68 38.72,11.97 59.94,11.97zm1019.65 -129.12l0 -212.35 0 -4.32 4.33 0 215.53 0 0 -110.06 -215.53 0 -4.33 0 0 -4.31 0 -118.68 0 -4.31 4.33 0 249 0 0 -110.02 -366.63 0 0 564.07 113.3 0zm464.85 -289.59l-164.76 291.8 -3.63 6.44 7.38 0 150.93 0 2.59 0 1.2 -2.33 83.46 -159.17 82.52 159.16 1.23 2.34 2.61 0 151.92 0 7.42 0 -3.71 -6.46 -166.41 -291.8 157.01 -276.64 3.66 -6.47 -7.39 0 -150.15 0 -2.59 0 -1.22 2.36 -74.85 145.73 -74.98 -145.76 -1.2 -2.33 -2.64 0 -150.24 0 -7.37 0 3.59 6.41 155.61 276.72zm-1561.4 -246.06l1.75 523.94c4.06,20.28 12.37,35.24 24.73,45.01 12.45,9.85 29.32,14.66 50.37,14.66l894.52 0 0 -39.32 -9.71 0 -112 0 -4.31 0 0 -4.31 0 -212.37 -199.83 0 -4.31 0 0 -4.31 0 -118.7 0 -4.31 4.31 0 199.83 0 0 -110.05 -230.91 0 -4.32 0 0 -4.31 0 -118.68 0 -4.31 4.32 0 356.92 0 0 -37.8 -912.04 -0.68c-20.18,4.09 -35.06,12.42 -44.77,24.86 -9.79,12.53 -14.56,29.48 -14.56,50.69zm4552.55 -2999.05l141.67 0 0 456.92 -141.67 0 0 -456.92zm618.31 269.94l123.8 37.33c-8.29,34.67 -21.38,63.71 -39.35,86.89 -17.87,23.29 -39.99,40.84 -66.58,52.65 -26.49,11.81 -60.2,17.76 -101.15,17.76 -49.77,0 -90.3,-7.24 -121.89,-21.59 -31.48,-14.46 -58.6,-39.88 -81.47,-76.15 -22.87,-36.27 -34.35,-82.85 -34.35,-139.44 0,-75.51 20.1,-133.59 60.3,-174.21 40.32,-40.51 97.21,-60.84 170.82,-60.84 57.54,0 102.84,11.6 135.83,34.9 32.86,23.29 57.42,59.03 73.38,107.31l-124.43 27.55c-4.36,-13.83 -8.94,-23.93 -13.73,-30.31 -7.97,-10.74 -17.66,-19.05 -29.04,-24.79 -11.49,-5.85 -24.25,-8.72 -38.39,-8.72 -32.12,0 -56.69,12.88 -73.71,38.5 -12.87,19.05 -19.36,49.04 -19.36,89.77 0,50.63 7.66,85.2 23.09,104.02 15.43,18.72 37.01,28.08 64.88,28.08 27.02,0 47.43,-7.56 61.26,-22.76 13.83,-15.1 23.82,-37.12 30.11,-65.94zm265.2 186.98l0 -456.92 235.26 0c43.6,0 77,3.73 99.97,11.27 23.08,7.44 41.69,21.38 55.83,41.58 14.15,20.32 21.18,45.1 21.18,74.24 0,25.32 -5.43,47.22 -16.27,65.62 -10.75,18.5 -25.64,33.4 -44.67,44.89 -12.03,7.23 -28.61,13.3 -49.57,18.08 16.81,5.64 29.04,11.17 36.69,16.81 5.12,3.73 12.66,11.81 22.55,24.04 9.79,12.23 16.38,21.7 19.68,28.4l68.59 131.99 -159.52 0 -75.42 -139.34c-9.57,-18.08 -18.08,-29.78 -25.52,-35.19 -10.21,-7.03 -21.81,-10.53 -34.67,-10.53l-12.44 0 0 185.06 -141.67 0zm141.67 -271.22l59.66 0c6.38,0 18.93,-2.13 37.43,-6.27 9.36,-1.81 17.02,-6.59 22.87,-14.35 5.96,-7.77 8.94,-16.59 8.94,-26.59 0,-14.78 -4.68,-26.16 -14.04,-34.04 -9.36,-7.97 -26.91,-11.91 -52.75,-11.91l-62.12 0 0 93.17zm536.29 43.4c0,46.04 8.62,79.23 25.74,99.34 17.23,20.1 40.63,30.2 70.2,30.2 30.31,0 53.92,-9.89 70.51,-29.58 16.7,-19.77 25,-55.09 25,-106.25 0,-42.96 -8.73,-74.34 -26.06,-94.12 -17.44,-19.88 -40.95,-29.78 -70.73,-29.78 -28.5,0 -51.48,10.11 -68.7,30.2 -17.35,20.1 -25.97,53.5 -25.97,99.98z"/>
  <g id="_1104253984">
   <path class="fil1" d="M4986.91 3159.29l3559.46 0c137.23,0 254.73,48.9 337.97,132.15 83.28,83.28 132.17,200.81 132.17,337.98l0 2446.05c0,137.15 -48.95,254.63 -132.21,337.91 -83.29,83.28 -200.83,132.22 -337.92,132.22l-3559.46 0c-137.18,0 -254.71,-48.89 -337.98,-132.17 -83.25,-83.24 -132.15,-200.73 -132.15,-337.97l0 -2446.05c0,-137.26 48.87,-254.77 132.12,-338.01 83.25,-83.25 200.75,-132.12 338.01,-132.12zm3559.46 19.31l-3559.46 0c-131.94,0 -244.69,46.79 -324.36,126.46 -79.67,79.67 -126.46,192.43 -126.46,324.36l0 2446.05c0,131.9 46.81,244.64 126.49,324.32 79.71,79.71 192.48,126.51 324.34,126.51l3559.46 0c131.78,0 244.54,-46.85 324.27,-126.57 79.7,-79.71 126.56,-192.45 126.56,-324.26l0 -2446.05c0,-131.86 -46.8,-244.62 -126.51,-324.34 -79.67,-79.68 -192.42,-126.49 -324.32,-126.49zm2503.94 4869.18c4.35,-159.52 54.63,-307.58 138.03,-431.37 85.81,-127.34 206.76,-229.11 348.95,-291.38l6.91 -3.01c12.63,-5.37 25.13,-8.74 37.12,-10.12 20.22,-2.33 39.17,0.92 55.18,9.57 16.15,8.73 29.2,22.86 37.42,42.17 4.21,9.87 7.15,21.1 8.6,33.6 0.7,5.97 0.08,15.05 0.08,21.35 0,13.89 5.67,26.52 14.79,35.63 9.18,9.14 21.81,14.83 35.68,14.83l263.01 0c13.89,0 26.52,-5.67 35.63,-14.79 9.16,-9.15 14.83,-21.78 14.83,-35.67l0 -30.45 0.22 -1.05c1.84,-8.84 4.35,-16.92 7.44,-24.2 9.12,-21.52 23.29,-36.29 40.73,-44.59 17.26,-8.21 37.55,-9.92 59.1,-5.42 8.63,1.81 17.55,4.64 26.57,8.46l22.22 9.82c135.58,62.4 251.03,160.99 334,283.39 80.77,119.15 130.78,260.89 138.57,413.7l0.76 19.54c0.17,6.88 -0.18,13.3 -1.03,19.24 -2.93,20.33 -11.61,36.33 -25.06,47.48 -13.24,10.98 -30.97,17.02 -52.18,17.58 -7.55,0.19 -15.49,-0.3 -23.77,-1.49l-0.99 -0.14 -28.69 -10.43c-13.03,-4.74 -26.84,-3.71 -38.57,1.76 -11.73,5.43 -21.37,15.36 -26.12,28.37l-89.96 247.17c-4.75,13.08 -3.75,26.88 1.72,38.58 5.5,11.73 15.42,21.39 28.4,26.12 5.89,2.14 14.79,4.71 20.08,7.39 7.32,3.66 14.24,8.32 20.49,13.71 14.35,12.37 25.98,28.98 31.91,46.76 6.16,18.41 6.27,38.13 -2.67,56.03 -2.48,4.95 -5.65,9.74 -9.51,14.24l-9.35 10.68c-75.85,85.23 -169.45,154.42 -274.99,201.78 -101.57,45.58 -214.17,70.95 -332.61,70.95 -118.31,0 -230.78,-25.31 -332.26,-70.78 -105.41,-47.25 -198.95,-116.28 -274.8,-201.31l-6.66 -7.56c-4.03,-4.66 -7.29,-9.56 -9.84,-14.66 -9.08,-18.14 -9.09,-38.46 -2.98,-57.46 5.9,-18.4 17.65,-35.69 32.3,-48.47 6.26,-5.49 13.21,-10.21 20.54,-13.89 5.27,-2.67 14.17,-5.25 20.04,-7.38 13.04,-4.74 22.97,-14.41 28.44,-26.13 5.46,-11.71 6.48,-25.52 1.73,-38.58l-90.14 -247.6c-4.78,-12.79 -14.37,-22.55 -25.96,-27.94 -11.71,-5.5 -25.51,-6.52 -38.56,-1.77l-28.72 10.44 -0.98 0.14c-5.74,0.83 -11.71,1.19 -17.72,1.08 -19.79,-0.36 -39.7,-5.97 -55.42,-16.56 -16.31,-11 -28.24,-27.32 -31.33,-48.71 -0.55,-3.88 -0.81,-8.02 -0.73,-12.36l0.14 -6.27zm154.01 -420.57c-81.45,120.89 -130.54,265.4 -134.78,421.01l-0.14 6.19c-0.05,3.15 0.15,6.26 0.58,9.29 2.23,15.43 11.02,27.33 23.05,35.45 12.63,8.52 28.78,13.03 44.93,13.32 4.54,0.07 9.16,-0.18 13.73,-0.79l28.46 -10.36c17.57,-5.86 35.95,-4.3 51.62,3.01 16.19,7.51 29.55,21.24 36.1,39.29l89.97 247.15c6.54,18 5.14,37.08 -2.42,53.29 -7.55,16.19 -21.26,29.54 -39.29,36.09l-18.6 6.78c-5.49,2.82 -10.86,6.53 -15.88,10.91 -12.12,10.54 -21.81,24.77 -26.64,39.84 -4.65,14.49 -4.78,29.72 1.86,42.98 1.81,3.62 4.17,7.14 7.09,10.52l6.64 7.51c74.09,83.04 165.37,150.43 268.19,196.52 98.99,44.35 208.81,69.05 324.42,69.05 115.75,0 225.69,-24.75 324.77,-69.21 102.96,-46.2 194.32,-113.76 268.43,-197l9.12 -10.41c2.88,-3.35 5.19,-6.82 6.94,-10.32 6.46,-12.92 6.26,-27.52 1.64,-41.34 -4.81,-14.46 -14.37,-28.04 -26.23,-38.23 -5.08,-4.34 -10.45,-8.03 -15.94,-10.84l-18.62 -6.78c-18.05,-6.58 -31.78,-19.92 -39.32,-36.09 -7.52,-16.2 -8.92,-35.28 -2.38,-53.26l89.96 -247.17c6.57,-18.04 19.91,-31.74 36.09,-39.29 16.16,-7.58 35.23,-8.98 53.25,-2.42l26.83 9.76c6.98,0.96 13.54,1.35 19.63,1.2 16.7,-0.43 30.4,-4.98 40.33,-13.21 9.73,-8.07 16.07,-19.98 18.28,-35.34 0.72,-5 1.02,-10.34 0.88,-15.92l-0.76 -19.15c-7.61,-149.22 -56.41,-287.6 -135.25,-403.89 -80.97,-119.45 -193.67,-215.7 -326.01,-276.61l-21.82 -9.66c-7.77,-3.3 -15.48,-5.75 -22.98,-7.32 -17.45,-3.64 -33.57,-2.39 -46.96,3.98 -13.21,6.28 -24.07,17.78 -31.23,34.68 -2.48,5.88 -4.53,12.4 -6.08,19.57l0 28.63c0,19.15 -7.84,36.58 -20.48,49.24 -12.69,12.68 -30.13,20.52 -49.28,20.52l-263.01 0c-19.19,0 -36.65,-7.85 -49.29,-20.48 -12.64,-12.67 -20.48,-30.12 -20.48,-49.28l0 -19.83c-1.25,-10.35 -3.68,-19.57 -7.09,-27.58 -6.44,-15.11 -16.49,-26.08 -28.83,-32.75 -12.5,-6.75 -27.57,-9.26 -43.86,-7.38 -10.16,1.18 -20.85,4.05 -31.68,8.68l-6.87 2.98c-138.74,60.75 -256.81,160.11 -340.62,284.49zm-9198.4 -296.03c135.55,62.38 250.99,160.97 333.96,283.37 80.77,119.15 130.78,260.89 138.57,413.7l0.76 19.54c0.17,6.88 -0.18,13.3 -1.03,19.24 -2.93,20.33 -11.61,36.33 -25.06,47.48 -13.24,10.98 -30.97,17.02 -52.18,17.58 -7.55,0.19 -15.49,-0.3 -23.77,-1.49l-0.99 -0.14 -28.69 -10.43c-13.03,-4.74 -26.84,-3.71 -38.57,1.76 -11.73,5.43 -21.37,15.36 -26.12,28.37l-89.96 247.17c-4.75,13.08 -3.75,26.88 1.72,38.58 5.5,11.73 15.42,21.39 28.4,26.12 5.89,2.14 14.79,4.71 20.08,7.39 7.32,3.66 14.24,8.32 20.49,13.71 14.35,12.37 25.98,28.98 31.91,46.76 6.16,18.41 6.27,38.13 -2.67,56.03 -2.48,4.95 -5.65,9.74 -9.51,14.24l-9.35 10.68c-75.85,85.23 -169.45,154.42 -274.99,201.78 -101.57,45.58 -214.17,70.95 -332.61,70.95 -118.31,0 -230.78,-25.31 -332.26,-70.78 -105.41,-47.25 -198.95,-116.28 -274.8,-201.31l-6.66 -7.56c-4.03,-4.66 -7.29,-9.56 -9.84,-14.66 -9.08,-18.14 -9.09,-38.46 -2.98,-57.46 5.9,-18.4 17.65,-35.69 32.3,-48.47 6.26,-5.49 13.21,-10.21 20.54,-13.89 5.27,-2.67 14.17,-5.25 20.04,-7.38 13.04,-4.74 22.97,-14.41 28.44,-26.13 5.46,-11.71 6.48,-25.52 1.73,-38.58l-90.14 -247.6c-4.78,-12.79 -14.37,-22.55 -25.96,-27.94 -11.71,-5.5 -25.51,-6.52 -38.56,-1.77l-28.72 10.44 -0.98 0.14c-5.74,0.83 -11.71,1.19 -17.72,1.08 -19.79,-0.36 -39.7,-5.97 -55.42,-16.56 -16.31,-11 -28.24,-27.32 -31.33,-48.71 -0.55,-3.88 -0.81,-8.02 -0.73,-12.36l0.14 -6.26c4.35,-159.54 54.63,-307.6 138.03,-431.39 85.81,-127.34 206.76,-229.11 348.95,-291.38l6.91 -3.01c12.63,-5.37 25.13,-8.74 37.12,-10.12 20.22,-2.33 39.17,0.92 55.18,9.57 16.15,8.73 29.2,22.86 37.42,42.17 4.21,9.87 7.15,21.1 8.6,33.6 0.7,5.97 0.08,15.05 0.08,21.35 0,13.89 5.67,26.52 14.79,35.63 9.18,9.14 21.81,14.83 35.68,14.83l263.01 0c13.89,0 26.52,-5.67 35.63,-14.79 9.16,-9.15 14.83,-21.78 14.83,-35.67l0 -30.45 0.22 -1.05c1.84,-8.84 4.35,-16.92 7.44,-24.2 9.12,-21.52 23.29,-36.29 40.73,-44.59 17.26,-8.21 37.55,-9.92 59.1,-5.42 8.63,1.81 17.55,4.64 26.57,8.46l22.26 9.84zm318.05 294.16c-80.97,-119.45 -193.67,-215.7 -326.01,-276.61l-21.82 -9.66c-7.77,-3.3 -15.48,-5.75 -22.98,-7.32 -17.45,-3.64 -33.57,-2.39 -46.96,3.98 -13.21,6.28 -24.07,17.78 -31.23,34.68 -2.48,5.88 -4.53,12.4 -6.08,19.57l0 28.63c0,19.15 -7.84,36.58 -20.48,49.24 -12.69,12.68 -30.13,20.52 -49.28,20.52l-263.01 0c-19.19,0 -36.65,-7.85 -49.29,-20.48 -12.64,-12.67 -20.48,-30.12 -20.48,-49.28l0 -19.83c-1.25,-10.35 -3.68,-19.57 -7.09,-27.58 -6.44,-15.11 -16.49,-26.08 -28.83,-32.75 -12.5,-6.75 -27.57,-9.26 -43.86,-7.38 -10.16,1.18 -20.85,4.05 -31.68,8.68l-6.87 2.98c-138.74,60.75 -256.81,160.11 -340.62,284.49 -81.45,120.89 -130.54,265.4 -134.78,421.01l-0.14 6.19c-0.05,3.15 0.15,6.26 0.58,9.29 2.23,15.43 11.02,27.33 23.05,35.45 12.63,8.52 28.78,13.03 44.93,13.32 4.54,0.07 9.16,-0.18 13.73,-0.79l28.46 -10.36c17.57,-5.86 35.95,-4.3 51.62,3.01 16.19,7.51 29.55,21.24 36.1,39.29l89.97 247.15c6.54,18 5.14,37.08 -2.42,53.29 -7.55,16.19 -21.26,29.54 -39.29,36.09l-18.6 6.78c-5.49,2.82 -10.86,6.53 -15.88,10.91 -12.12,10.54 -21.81,24.77 -26.64,39.84 -4.65,14.49 -4.78,29.72 1.86,42.98 1.81,3.62 4.17,7.14 7.09,10.52l6.64 7.51c74.09,83.04 165.37,150.43 268.19,196.52 98.99,44.35 208.81,69.05 324.42,69.05 115.75,0 225.69,-24.75 324.77,-69.21 102.96,-46.2 194.32,-113.76 268.43,-197l9.12 -10.41c2.88,-3.35 5.19,-6.82 6.94,-10.32 6.46,-12.92 6.26,-27.52 1.64,-41.34 -4.81,-14.46 -14.37,-28.04 -26.23,-38.23 -5.08,-4.34 -10.45,-8.03 -15.94,-10.84l-18.62 -6.78c-18.05,-6.58 -31.78,-19.92 -39.32,-36.09 -7.52,-16.2 -8.92,-35.28 -2.38,-53.26l89.96 -247.17c6.57,-18.04 19.91,-31.74 36.09,-39.29 16.16,-7.58 35.23,-8.98 53.25,-2.42l26.83 9.76c6.98,0.96 13.54,1.35 19.63,1.2 16.7,-0.43 30.4,-4.98 40.33,-13.21 9.73,-8.07 16.07,-19.98 18.28,-35.34 0.72,-5 1.02,-10.34 0.88,-15.92l-0.76 -19.15c-7.61,-149.22 -56.41,-287.6 -135.25,-403.89zm-41.18 -6209.02l-89.96 247.15c-4.75,13.08 -3.75,26.88 1.72,38.58 5.5,11.73 15.42,21.39 28.4,26.12 5.89,2.14 14.79,4.71 20.08,7.39 7.32,3.66 14.24,8.32 20.49,13.71 14.35,12.37 25.98,28.98 31.91,46.76 6.16,18.41 6.27,38.13 -2.67,56.03 -2.48,4.95 -5.65,9.74 -9.51,14.24l-9.35 10.68c-75.85,85.23 -169.45,154.42 -274.99,201.78 -101.57,45.58 -214.17,70.95 -332.61,70.95 -118.31,0 -230.78,-25.31 -332.26,-70.78 -105.41,-47.25 -198.95,-116.28 -274.8,-201.31l-6.66 -7.56c-4.03,-4.66 -7.29,-9.56 -9.84,-14.66 -9.08,-18.14 -9.09,-38.46 -2.98,-57.46 5.9,-18.4 17.65,-35.69 32.3,-48.47 6.26,-5.49 13.21,-10.21 20.54,-13.89 5.27,-2.67 14.17,-5.25 20.04,-7.38 13.04,-4.74 22.97,-14.41 28.44,-26.13 5.46,-11.71 6.48,-25.52 1.73,-38.58l-90.14 -247.6c-4.78,-12.79 -14.37,-22.55 -25.96,-27.94 -11.71,-5.5 -25.51,-6.52 -38.56,-1.77l-28.72 10.44 -0.98 0.14c-5.74,0.83 -11.71,1.19 -17.72,1.08 -19.79,-0.36 -39.7,-5.97 -55.42,-16.56 -16.31,-11 -28.24,-27.32 -31.33,-48.71 -0.55,-3.88 -0.81,-8.02 -0.73,-12.36l0.14 -6.26c4.35,-159.54 54.63,-307.6 138.03,-431.39 85.81,-127.34 206.76,-229.11 348.95,-291.38l6.91 -3.01c12.63,-5.37 25.13,-8.74 37.12,-10.12 20.22,-2.33 39.17,0.92 55.18,9.57 16.15,8.73 29.2,22.86 37.42,42.17 4.21,9.87 7.15,21.1 8.6,33.6 0.7,5.97 0.08,15.05 0.08,21.35 0,13.89 5.67,26.52 14.79,35.63 9.18,9.14 21.81,14.83 35.68,14.83l263.01 0c13.89,0 26.52,-5.67 35.63,-14.79 9.16,-9.15 14.83,-21.78 14.83,-35.67l0 -30.45 0.22 -1.05c1.84,-8.84 4.35,-16.92 7.44,-24.2 9.12,-21.52 23.29,-36.29 40.73,-44.59 17.26,-8.21 37.55,-9.92 59.1,-5.42 8.63,1.81 17.55,4.64 26.57,8.46l22.22 9.82c135.58,62.4 251.03,160.99 334,283.39 80.77,119.15 130.78,260.89 138.57,413.7l0.76 19.54c0.17,6.88 -0.18,13.3 -1.03,19.24 -2.93,20.33 -11.61,36.33 -25.06,47.48 -13.24,10.98 -30.97,17.02 -52.18,17.58 -7.55,0.19 -15.49,-0.3 -23.77,-1.49l-0.99 -0.14 -28.69 -10.43c-13.03,-4.74 -26.84,-3.71 -38.57,1.76 -11.73,5.43 -21.37,15.36 -26.12,28.39zm-108.07 240.61l89.95 -247.16c6.57,-18.04 19.91,-31.74 36.09,-39.29 16.16,-7.58 35.23,-8.98 53.25,-2.42l26.83 9.76c6.98,0.96 13.54,1.35 19.63,1.2 16.7,-0.43 30.4,-4.98 40.33,-13.21 9.73,-8.07 16.07,-19.98 18.28,-35.34 0.72,-5 1.02,-10.34 0.88,-15.92l-0.76 -19.15c-7.61,-149.22 -56.41,-287.6 -135.25,-403.89 -80.97,-119.45 -193.67,-215.7 -326.01,-276.61l-21.82 -9.66c-7.77,-3.3 -15.48,-5.75 -22.98,-7.32 -17.45,-3.64 -33.57,-2.39 -46.96,3.98 -13.21,6.28 -24.07,17.78 -31.23,34.68 -2.48,5.88 -4.53,12.4 -6.08,19.57l0 28.63c0,19.15 -7.84,36.58 -20.48,49.24 -12.69,12.68 -30.13,20.52 -49.28,20.52l-263.01 0c-19.19,0 -36.65,-7.85 -49.29,-20.48 -12.64,-12.67 -20.48,-30.12 -20.48,-49.28l0 -19.83c-1.25,-10.35 -3.68,-19.57 -7.09,-27.58 -6.44,-15.11 -16.49,-26.08 -28.83,-32.75 -12.5,-6.75 -27.57,-9.26 -43.86,-7.38 -10.16,1.18 -20.85,4.05 -31.68,8.68l-6.87 2.98c-138.74,60.75 -256.81,160.11 -340.62,284.49 -81.45,120.89 -130.54,265.4 -134.78,421.01l-0.14 6.19c-0.05,3.15 0.15,6.26 0.58,9.29 2.23,15.43 11.02,27.33 23.05,35.45 12.63,8.52 28.78,13.03 44.93,13.32 4.54,0.07 9.16,-0.18 13.73,-0.79l28.46 -10.36c17.57,-5.86 35.95,-4.3 51.62,3.01 16.19,7.51 29.55,21.24 36.1,39.29l89.97 247.15c6.54,18 5.14,37.08 -2.42,53.29 -7.55,16.19 -21.26,29.54 -39.29,36.09l-18.6 6.78c-5.49,2.82 -10.86,6.53 -15.88,10.91 -12.12,10.54 -21.81,24.77 -26.64,39.84 -4.65,14.49 -4.78,29.72 1.86,42.98 1.81,3.62 4.17,7.14 7.09,10.52l6.64 7.51c74.09,83.04 165.37,150.43 268.19,196.52 98.99,44.35 208.81,69.05 324.42,69.05 115.75,0 225.69,-24.75 324.77,-69.21 102.96,-46.2 194.32,-113.76 268.43,-197l9.12 -10.41c2.88,-3.35 5.19,-6.82 6.94,-10.32 6.46,-12.92 6.26,-27.52 1.64,-41.34 -4.81,-14.46 -14.37,-28.04 -26.23,-38.23 -5.08,-4.34 -10.45,-8.03 -15.94,-10.84l-18.62 -6.78c-18.05,-6.58 -31.78,-19.92 -39.32,-36.09 -7.52,-16.2 -8.92,-35.28 -2.37,-53.27zm-2155.41 -1637.68l0 9654.02 13494.67 0 0 -9649.34 -13494.67 -4.68zm-19.31 9663.67l0 -9682.91c4511.02,4.51 9022.25,4.69 13533.28,4.69l0 9687.87 -13533.28 0 0 -9.65zm11050.3 -8368.97c4.35,-159.53 54.63,-307.59 138.03,-431.38 85.81,-127.34 206.76,-229.11 348.95,-291.38l6.91 -3.01c12.63,-5.37 25.13,-8.74 37.12,-10.12 20.22,-2.33 39.17,0.92 55.18,9.57 16.15,8.73 29.2,22.86 37.42,42.17 4.21,9.87 7.15,21.1 8.6,33.6 0.7,5.97 0.08,15.05 0.08,21.35 0,13.89 5.67,26.52 14.79,35.63 9.18,9.14 21.81,14.83 35.68,14.83l263.01 0c13.89,0 26.52,-5.67 35.63,-14.79 9.16,-9.15 14.83,-21.78 14.83,-35.67l0 -30.45 0.22 -1.05c1.84,-8.84 4.35,-16.92 7.44,-24.2 9.12,-21.52 23.29,-36.29 40.73,-44.59 17.26,-8.21 37.55,-9.92 59.1,-5.42 8.63,1.81 17.55,4.64 26.57,8.46l22.22 9.82c135.58,62.4 251.03,160.99 334,283.39 80.77,119.15 130.78,260.89 138.57,413.7l0.76 19.54c0.17,6.88 -0.18,13.3 -1.03,19.24 -2.93,20.33 -11.61,36.33 -25.06,47.48 -13.24,10.98 -30.97,17.02 -52.18,17.58 -7.55,0.19 -15.49,-0.3 -23.77,-1.49l-0.99 -0.14 -28.69 -10.43c-13.03,-4.74 -26.84,-3.71 -38.57,1.76 -11.73,5.43 -21.37,15.36 -26.12,28.37l-89.96 247.17c-4.75,13.08 -3.75,26.88 1.72,38.58 5.5,11.73 15.42,21.39 28.4,26.12 5.89,2.14 14.79,4.71 20.08,7.39 7.32,3.66 14.24,8.32 20.49,13.71 14.35,12.37 25.98,28.98 31.91,46.76 6.16,18.41 6.27,38.13 -2.67,56.03 -2.48,4.95 -5.65,9.74 -9.51,14.24l-9.35 10.68c-75.85,85.23 -169.45,154.42 -274.99,201.78 -101.57,45.58 -214.17,70.95 -332.61,70.95 -118.31,0 -230.78,-25.31 -332.26,-70.78 -105.41,-47.25 -198.95,-116.28 -274.8,-201.31l-6.66 -7.56c-4.03,-4.66 -7.29,-9.56 -9.84,-14.66 -9.08,-18.14 -9.09,-38.46 -2.98,-57.46 5.9,-18.4 17.65,-35.69 32.3,-48.47 6.26,-5.49 13.21,-10.21 20.54,-13.89 5.27,-2.67 14.17,-5.25 20.04,-7.38 13.04,-4.74 22.97,-14.41 28.44,-26.13 5.46,-11.71 6.48,-25.52 1.73,-38.58l-90.14 -247.6c-4.78,-12.79 -14.37,-22.55 -25.96,-27.94 -11.71,-5.5 -25.51,-6.52 -38.56,-1.77l-28.72 10.44 -0.98 0.14c-5.74,0.83 -11.71,1.19 -17.72,1.08 -19.79,-0.36 -39.7,-5.97 -55.42,-16.56 -16.31,-11 -28.24,-27.32 -31.33,-48.71 -0.55,-3.88 -0.81,-8.02 -0.73,-12.36l0.14 -6.26zm154.01 -420.58c-81.45,120.89 -130.54,265.4 -134.78,421.01l-0.14 6.19c-0.05,3.15 0.15,6.26 0.58,9.29 2.23,15.43 11.02,27.33 23.05,35.45 12.63,8.52 28.78,13.03 44.93,13.32 4.54,0.07 9.16,-0.18 13.73,-0.79l28.46 -10.36c17.57,-5.86 35.95,-4.3 51.62,3.01 16.19,7.51 29.55,21.24 36.1,39.29l89.97 247.15c6.54,18 5.14,37.08 -2.42,53.29 -7.55,16.19 -21.26,29.54 -39.29,36.09l-18.6 6.78c-5.49,2.82 -10.86,6.53 -15.88,10.91 -12.12,10.54 -21.81,24.77 -26.64,39.84 -4.65,14.49 -4.78,29.72 1.86,42.98 1.81,3.62 4.17,7.14 7.09,10.52l6.64 7.51c74.09,83.04 165.37,150.43 268.19,196.52 98.99,44.35 208.81,69.05 324.42,69.05 115.75,0 225.69,-24.75 324.77,-69.21 102.96,-46.2 194.32,-113.76 268.43,-197l9.12 -10.41c2.88,-3.35 5.19,-6.82 6.94,-10.32 6.46,-12.92 6.26,-27.52 1.64,-41.34 -4.81,-14.46 -14.37,-28.04 -26.23,-38.23 -5.08,-4.34 -10.45,-8.03 -15.94,-10.84l-18.62 -6.78c-18.05,-6.58 -31.78,-19.92 -39.32,-36.09 -7.52,-16.2 -8.92,-35.28 -2.38,-53.26l89.96 -247.17c6.57,-18.04 19.91,-31.74 36.09,-39.29 16.16,-7.58 35.23,-8.98 53.25,-2.42l26.83 9.76c6.98,0.96 13.54,1.35 19.63,1.2 16.7,-0.43 30.4,-4.98 40.33,-13.21 9.73,-8.07 16.07,-19.98 18.28,-35.34 0.72,-5 1.02,-10.34 0.88,-15.92l-0.76 -19.15c-7.61,-149.22 -56.41,-287.6 -135.25,-403.89 -80.97,-119.45 -193.67,-215.7 -326.01,-276.61l-21.82 -9.66c-7.77,-3.3 -15.48,-5.75 -22.98,-7.32 -17.45,-3.64 -33.57,-2.39 -46.96,3.98 -13.21,6.28 -24.07,17.78 -31.23,34.68 -2.48,5.88 -4.53,12.4 -6.08,19.57l0 28.63c0,19.15 -7.84,36.58 -20.48,49.24 -12.69,12.68 -30.13,20.52 -49.28,20.52l-263.01 0c-19.19,0 -36.65,-7.85 -49.29,-20.48 -12.64,-12.67 -20.48,-30.12 -20.48,-49.28l0 -19.83c-1.25,-10.35 -3.68,-19.57 -7.09,-27.58 -6.44,-15.11 -16.49,-26.08 -28.83,-32.75 -12.5,-6.75 -27.57,-9.26 -43.86,-7.38 -10.16,1.18 -20.85,4.05 -31.68,8.68l-6.87 2.98c-138.74,60.75 -256.81,160.11 -340.62,284.49z"/>
   <path class="fil2" d="M11861.45 375.25c268.91,0 512.37,109.01 688.59,285.21 176.2,176.21 285.21,419.68 285.21,688.59 0,268.91 -109.01,512.37 -285.21,688.59 -176.21,176.2 -419.68,285.21 -688.59,285.21 -268.91,0 -512.37,-109.01 -688.59,-285.21 -176.2,-176.21 -285.21,-419.68 -285.21,-688.59 0,-268.91 109.01,-512.37 285.21,-688.59 176.21,-176.2 419.68,-285.21 688.59,-285.21zm676.54 297.26c-173.13,-173.12 -412.35,-280.23 -676.54,-280.23 -264.2,0 -503.41,107.11 -676.54,280.23 -173.12,173.13 -280.23,412.34 -280.23,676.54 0,264.19 107.11,503.41 280.23,676.54 173.13,173.12 412.34,280.23 676.54,280.23 264.19,0 503.41,-107.11 676.54,-280.23 173.12,-173.13 280.23,-412.35 280.23,-676.54 0,-264.2 -107.11,-503.41 -280.23,-676.54z"/>
   <path class="fil2" d="M11861.45 7112.87c268.91,0 512.37,109.01 688.59,285.21 176.2,176.21 285.21,419.68 285.21,688.59 0,268.91 -109.01,512.37 -285.21,688.59 -176.21,176.2 -419.68,285.21 -688.59,285.21 -268.91,0 -512.37,-109.01 -688.59,-285.21 -176.2,-176.21 -285.21,-419.68 -285.21,-688.59 0,-268.91 109.01,-512.37 285.21,-688.59 176.21,-176.2 419.68,-285.21 688.59,-285.21zm676.54 297.26c-173.13,-173.12 -412.35,-280.23 -676.54,-280.23 -264.2,0 -503.41,107.11 -676.54,280.23 -173.12,173.13 -280.23,412.34 -280.23,676.54 0,264.19 107.11,503.41 280.23,676.54 173.13,173.12 412.34,280.23 676.54,280.23 264.19,0 503.41,-107.11 676.54,-280.23 173.12,-173.13 280.23,-412.35 280.23,-676.54 0,-264.2 -107.11,-503.41 -280.23,-676.54z"/>
   <path class="fil2" d="M1663.47 375.25c268.91,0 512.37,109.01 688.59,285.21 176.2,176.21 285.21,419.68 285.21,688.59 0,268.91 -109.01,512.37 -285.21,688.59 -176.21,176.2 -419.68,285.21 -688.59,285.21 -268.91,0 -512.37,-109.01 -688.59,-285.21 -176.2,-176.21 -285.21,-419.68 -285.21,-688.59 0,-268.91 109.01,-512.37 285.21,-688.59 176.21,-176.2 419.68,-285.21 688.59,-285.21zm676.54 297.26c-173.13,-173.12 -412.35,-280.23 -676.54,-280.23 -264.2,0 -503.41,107.11 -676.54,280.23 -173.12,173.13 -280.23,412.34 -280.23,676.54 0,264.19 107.11,503.41 280.23,676.54 173.13,173.12 412.34,280.23 676.54,280.23 264.19,0 503.41,-107.11 676.54,-280.23 173.12,-173.13 280.23,-412.35 280.23,-676.54 0,-264.2 -107.11,-503.41 -280.23,-676.54z"/>
   <path class="fil2" d="M1663.47 7112.87c268.91,0 512.37,109.01 688.59,285.21 176.2,176.21 285.21,419.68 285.21,688.59 0,268.91 -109.01,512.37 -285.21,688.59 -176.21,176.2 -419.68,285.21 -688.59,285.21 -268.91,0 -512.37,-109.01 -688.59,-285.21 -176.2,-176.21 -285.21,-419.68 -285.21,-688.59 0,-268.91 109.01,-512.37 285.21,-688.59 176.21,-176.2 419.68,-285.21 688.59,-285.21zm676.54 297.26c-173.13,-173.12 -412.35,-280.23 -676.54,-280.23 -264.2,0 -503.41,107.11 -676.54,280.23 -173.12,173.13 -280.23,412.34 -280.23,676.54 0,264.19 107.11,503.41 280.23,676.54 173.13,173.12 412.34,280.23 676.54,280.23 264.19,0 503.41,-107.11 676.54,-280.23 173.12,-173.13 280.23,-412.35 280.23,-676.54 0,-264.2 -107.11,-503.41 -280.23,-676.54z"/>
  </g>
 </g>
</svg>

