<?xml version="1.0" encoding="UTF-8"?>
<!DOCTYPE svg PUBLIC "-//W3C//DTD SVG 1.1//EN" "http://www.w3.org/Graphics/SVG/1.1/DTD/svg11.dtd">
<!-- Creator: CorelDRAW -->
<svg xmlns="http://www.w3.org/2000/svg" xml:space="preserve" width="180.2mm" height="110.412mm" version="1.1" style="shape-rendering:geometricPrecision; text-rendering:geometricPrecision; image-rendering:optimizeQuality; fill-rule:evenodd; clip-rule:evenodd"
viewBox="0 0 89974.67 55129.26"
 xmlns:xlink="http://www.w3.org/1999/xlink"
 xmlns:xodm="http://www.corel.com/coreldraw/odm/2003">
 <defs>
  <style type="text/css">
   <![CDATA[
    .fil0 {fill:#ECEEEF}
    .fil2 {fill:#596065;fill-rule:nonzero}
    .fil1 {fill:#3C4246;fill-rule:nonzero}
   ]]>
  </style>
 </defs>
 <g id="Camada_x0020_1">
  <metadata id="CorelCorpID_0Corel-Layer"/>
  <path class="fil0" d="M86402.4 23223.85l368.49 -1531.87 213.2 0 -370.53 1531.87 -211.16 0zm1047.14 -664.87c127.97,-119.38 206.31,-200.42 235.27,-242.86 39,-58.67 58.67,-116.64 58.67,-174.26 0,-63.46 -16.93,-112.09 -51.08,-146.25 -33.8,-34.2 -80.74,-51.08 -140.4,-51.08 -59.37,0 -106.25,17.93 -141.45,53.83 -34.85,35.5 -54.87,94.87 -60.37,178l-283.6 -28.26c16.88,-156.63 69.7,-269.13 158.68,-337.43 89.03,-67.96 200.12,-102.11 333.64,-102.11 146.3,0 261.19,39.64 345.02,118.68 83.48,78.99 125.23,177.3 125.23,294.94 0,66.96 -12.08,130.42 -35.85,191.13 -23.82,60.42 -61.76,123.53 -113.89,189.79 -34.15,44.14 -96.57,107.3 -186.29,189.74 -90.02,82.49 -147,136.96 -170.76,164.22 -24.17,26.91 -43.49,53.48 -58.32,79.04l565.11 0 0 262.88 -995.71 0c10.74,-100.06 43.14,-194.58 96.96,-283.95 53.83,-89.33 160.43,-208.01 319.16,-356.05zm1190.99 624.33l0 -1450.88c0,-161.43 -132.07,-293.49 -293.49,-293.49l-6671.71 0c-161.43,0 -293.49,132.07 -293.49,293.49l0 1450.88c0,161.43 132.07,293.49 293.49,293.49l6671.71 0c161.43,0 293.49,-132.07 293.49,-293.49zm-2571.77 -1474.75l0 1490.42 -283.56 0 0 -1073.01c-103.51,97.31 -225.69,169.41 -366.44,216l0 -258.74c74.2,-24.17 154.58,-70.05 241.16,-138.01 86.98,-67.66 146.3,-146.65 178.75,-236.67l230.08 0zm-819.36 8.24l-357.1 1482.19 -320.5 0 -292.24 -1108.16 -294.29 1108.16 -329.14 0 -348.46 -1482.19 308.47 0 220.44 1018.13 270.47 -1018.13 356.75 0 258.79 1035.41 225.64 -1035.41 301.18 0zm-2110.41 814.91c39.3,63.86 58.97,142.5 58.97,236.02 0,84.88 -23.47,164.57 -70.7,238.72 -47.28,74.2 -113.89,129.42 -200.12,165.27 -86.23,36.25 -193.88,54.17 -322.6,54.17 -187.34,0 -331.19,-43.14 -431.6,-129.72 -100.41,-86.28 -160.08,-212.2 -179.75,-377.42l291.89 -29.01c17.58,97.66 52.78,169.06 106.25,214.95 53.48,45.89 125.58,68.65 216.3,68.65 95.92,0 168.37,-20.37 217.05,-61.06 48.63,-40.69 73.15,-88.33 73.15,-142.85 0,-35.2 -10.39,-64.86 -30.71,-89.68 -20.37,-24.52 -56.27,-45.89 -107.3,-63.86 -34.85,-12.38 -114.19,-33.8 -238.42,-64.86 -159.73,-39.99 -271.87,-88.98 -336.38,-147.29 -90.72,-81.79 -135.96,-181.5 -135.96,-299.13 0,-75.54 21.42,-146.65 63.86,-212.5 42.79,-65.91 104.2,-115.94 184.59,-150.44 80.39,-34.5 176.95,-51.78 290.84,-51.78 185.24,0 325,41.09 418.47,123.53 93.87,82.49 142.85,192.18 147.69,329.84l-300.18 10.34c-12.78,-76.59 -40.04,-131.42 -81.79,-164.92 -41.74,-33.45 -104.5,-50.38 -187.99,-50.38 -86.28,0 -153.89,17.97 -202.57,53.83 -31.36,23.12 -47.23,53.83 -47.23,92.47 0,35.2 14.83,65.21 44.49,90.07 37.6,32.06 129.02,65.21 274.27,99.71 145.3,34.15 252.55,70 321.9,106.6 69.7,36.9 124.23,86.93 163.57,150.74zm124.28 8655.09l0 1450.88c0,161.43 132.07,293.49 293.49,293.49l4386.04 0c161.43,0 293.49,-132.07 293.49,-293.49l0 -1450.88c0,-161.43 -132.07,-293.49 -293.49,-293.49l-4386.04 0c-161.43,0 -293.49,132.07 -293.49,293.49zm3600.19 234.87l0 422.31 163.17 0c117.69,0 195.98,-7.94 235.67,-23.47 39.64,-15.53 70.7,-39.69 93.12,-73.15 22.47,-33.15 33.85,-71.45 33.85,-115.59 0,-54.17 -15.88,-98.66 -47.28,-133.86 -31.76,-35.2 -71.4,-57.27 -120.08,-66.26 -35.5,-6.54 -106.95,-9.99 -214.6,-9.99l-143.85 0zm-3061.59 1231.68l0 -1482.19 1097.12 0 0 250.5 -796.99 0 0 329.14 741.07 0 0 250.45 -741.07 0 0 401.59 825.95 0 0 250.5 -1126.08 0zm1230.64 0l511.64 -772.82 -464.05 -709.36 349.51 0 291.89 441.29 291.84 -441.29 350.21 0 -464.75 709.71 510.29 772.47 -359.5 0 -328.44 -502 -328.44 502 -360.2 0zm1530.82 0l0 -1482.19 479.88 0c181.85,0 300.18,7.24 355.36,22.12 84.88,22.42 155.93,70.7 213.2,145.25 57.32,74.5 85.93,170.76 85.93,288.75 0,91.07 -16.58,167.32 -49.33,229.43 -33.1,62.11 -74.85,110.75 -125.58,146.3 -50.73,35.2 -102.46,58.67 -154.93,70.05 -71.4,14.13 -174.56,21.37 -309.82,21.37l-194.58 0 0 558.92 -300.13 0zm-80009.36 -1516.04l0 -1237.78 -1231.38 0 0 -517.83 1231.38 0 0 -1231.38 524.17 0 0 1231.38 1231.43 0 0 517.83 -1231.43 0 0 1237.78 -524.17 0zm644.2 -2945.65l532.06 -0.7c13.83,-363.54 1.2,-754.35 1.7,-1120.79 0.45,-368.44 -65.91,-775.77 368.99,-783.16 631.67,-10.83 289.35,1066.96 397.15,1895.61l524.67 2.6c5.34,-380.12 -3.1,-763.79 -0.4,-1143.16 2.6,-355.11 -22.57,-764.34 400.39,-760.54 427.35,3.84 382.57,412.63 386.81,760.44 4.59,376.38 -15.43,780.46 4.99,1151.35l532.81 -4.54c28.41,-466.05 72.35,-1659.74 -147.19,-1976.15 -136.86,-197.23 -308.72,-368.34 -644.15,-420.51 -393.65,-61.16 -577.3,116.14 -806.83,262.83 -133.61,-72.4 -318.11,-317.81 -782.66,-255.89 -807.23,107.55 -772.07,831.89 -773.52,1327.3 -0.95,317.66 -27.91,762.69 5.19,1065.32zm2922.93 593.77l397.3 0 0 2169.53 -397.3 0 -896.3 -1431.91 0 1431.91 -397.35 0 0 -2169.53 397.35 0 896.3 1428.81 0 -1428.81zm2400.16 2169.53l-203.52 -520.72 -847.17 0 -200.27 520.72 -423.56 0 837.28 -2169.53 423.51 0 837.28 2169.53 -423.56 0zm-906.19 -895.75l558.17 0 -279.11 -725.19 -279.06 725.19zm2853.18 -1273.78l397.3 0 0 12.53 804.33 2.55c91.97,1501.36 1690.4,1540.55 2211.82,749.16 447.83,-679.75 361,-2169.43 -1592.08,-1831.2 -231.88,-624.23 -450.07,-303.53 249.05,-1036.71 149.09,-156.43 340.43,-279.16 508.24,-422.91l447.28 -475.54 -2322.76 16.08 12.58 -791.9 3480.45 14.93c-1.5,544.34 126.42,635.02 -246.76,978.04 -226.98,208.56 -931.2,771.92 -1032.61,955.52 750.5,179.3 1342.88,611.45 1520.93,1406.59 175.36,783.41 -111.15,1630.08 -739.77,2073.16 -686.19,483.83 -1534.26,617.84 -2276.48,184.09 -438.44,-256.19 -736.62,-559.27 -911.13,-1043.85l-113.09 -485.87 0 1864.85 -397.3 0 -896.35 -1431.91 0 1431.91 -397.3 0 0 -2169.53 397.3 0 896.35 1428.81 0 -1428.81zm2386.43 -886.91l77.34 0c49.73,0 90.37,40.59 90.37,90.27l0 225.29c0,49.63 -40.64,90.32 -90.37,90.32l-77.34 0c-49.73,0 -90.32,-40.69 -90.32,-90.32l0 -225.29c0,-49.68 40.59,-90.27 90.32,-90.27zm540.45 1057.98l0 -77.39c0,-49.73 40.64,-90.37 90.37,-90.37l315.61 0c49.58,0 90.27,40.64 90.27,90.37l0 77.39c0,49.68 -40.69,90.37 -90.27,90.37l-315.61 0c-49.73,0 -90.37,-40.69 -90.37,-90.37zm-1467.16 0l0 -77.39c0,-49.73 40.69,-90.37 90.32,-90.37l315.56 0c49.73,0 90.37,40.64 90.37,90.37l0 77.39c0,49.68 -40.64,90.37 -90.37,90.37l-315.56 0c-49.63,0 -90.32,-40.69 -90.32,-90.37zm1637.22 687.69l51.98 -57.27c33.45,-36.75 30.71,-94.07 -6.04,-127.52l-233.47 -212.3c-36.7,-33.45 -94.17,-30.71 -127.62,6.04l-52.08 57.27c-33.4,36.75 -30.71,94.12 6.14,127.52l233.47 212.35c36.75,33.4 94.12,30.76 127.62,-6.09zm-1306.48 0l-52.03 -57.27c-33.45,-36.75 -30.71,-94.07 6.09,-127.52l233.47 -212.3c36.7,-33.45 94.12,-30.71 127.57,6.04l52.08 57.27c33.4,36.75 30.66,94.12 -6.09,127.52l-233.47 212.35c-36.75,33.4 -94.17,30.76 -127.62,-6.09zm595.97 -235.22l77.34 0c49.73,0 90.37,40.64 90.37,90.32l0 315.61c0,49.63 -40.64,90.27 -90.37,90.27l-77.34 0c-49.73,0 -90.32,-40.64 -90.32,-90.27l0 -315.61c0,-49.68 40.59,-90.32 90.32,-90.32zm-12977.47 -3462.33l10.14 523.27c232.83,-101.11 272.67,-218.2 655.04,-173.86 257.54,29.86 414.22,193.48 504.1,390.71 379.72,833.44 -674.06,1444.74 -1235.53,749.56 -167.27,-207.11 -149.04,-438.39 -149.84,-731.13 -1.65,-599.71 10.34,-1206.82 -1,-1805.04l-537.25 -3.4c-1.5,508.09 -57.07,2108.56 72.65,2485.59 64.66,187.79 234.82,439.89 368.09,555.13 928.46,802.93 2518.09,-102.71 1996.52,-1400.8 -266.93,-664.37 -1106.76,-941.39 -1682.91,-590.03zm9305.74 515.73l2.4 -544.59c-1257.15,-594.32 -2390.12,982.28 -1343.68,2003.76 417.22,407.28 1172.12,395.05 1626.18,56.22 76.54,-57.07 89.03,-98.41 160.08,-174.86 96.96,-104.3 192.58,-224.74 239.77,-406.43 141.7,-545.14 42.94,-1829 61.66,-2486.24l-530.46 -4.84c-72.6,722.14 112.04,2173.87 -108.8,2499.32 -108.5,159.88 -307.87,331.84 -592.62,337.78 -520.43,10.83 -895.6,-499.15 -696.23,-1023.17 140.25,-368.44 492.86,-494.61 866.24,-406.88 137.96,32.4 197.97,107.15 315.46,149.94zm-7249 -626.53l-382.02 5.09c-21.12,583.54 -16.53,427.7 387.11,459.06l1.9 1880.13 529.01 1.35 -0.3 -1891.57 531.31 3.74c43.44,-62.76 223.14,-380.12 245.26,-452.42l-766.88 -10.44c-16.98,-547.74 200.77,-462.56 643.9,-492.41l2.1 -441.19c-768.78,-112.64 -1149,161.67 -1191.39,938.64zm4728.76 2355.07l528.61 -2.8 -6.09 -2341.64 -520.82 -12.53 -1.7 2356.97zm3565.78 -2.45l521.07 -0.1 3.2 -2346.63 -520.18 -1.75 -4.09 2348.48zm0.1 -2789.07l509.89 7.69 5.89 -491.86 -521.97 -11.28 6.19 495.46zm-3566.73 3.74l505.95 -1.25 13.28 -493.36 -518.08 -1.8 -1.15 496.41zm74376.15 -13555.32c264.38,0 489.92,94.07 676.56,282.31 186.64,188.19 279.96,414.47 279.96,678.9 0,264.43 -93.32,489.97 -279.96,676.61 -186.64,186.64 -412.18,279.96 -676.56,279.96l-391.95 0c-264.43,0 -489.97,-93.32 -676.61,-279.96 -186.64,-186.64 -279.96,-412.18 -279.96,-676.61l0 -1353.17c0,-264.43 93.32,-489.97 279.96,-676.61 186.64,-186.64 412.18,-279.96 676.61,-279.96l391.95 0c264.38,0 489.92,93.32 676.56,279.96 186.64,186.64 279.96,412.18 279.96,676.61l-564.56 0c0,-68.45 -17.93,-133.01 -53.68,-193.68 -35.8,-60.62 -83.98,-108.85 -144.65,-144.65 -60.67,-35.75 -125.23,-53.63 -193.63,-53.63l-391.95 0c-105.8,0 -197.57,38.85 -275.32,116.64 -77.79,77.79 -116.69,169.51 -116.69,275.32l0 480.58c127.57,-59.07 258.24,-88.63 392,-88.63l391.95 0zm0 1353.17c108.85,0 201.42,-38.1 277.61,-114.29 76.19,-76.24 114.34,-168.76 114.34,-277.66 0,-108.85 -38.9,-201.42 -116.69,-277.61 -77.74,-76.24 -169.51,-114.34 -275.27,-114.34l-391.95 0c-105.8,0 -197.57,38.1 -275.32,114.34 -77.79,76.19 -116.69,168.76 -116.69,277.61 0,71.55 17.93,136.86 53.68,195.98 35.8,59.12 83.98,106.55 144.65,142.3 60.67,35.8 125.23,53.68 193.68,53.68l391.95 0zm-34504.94 -1544.5c264.38,0 489.92,93.32 676.56,279.96 186.64,186.69 279.96,412.18 279.96,676.61l0 195.98c0,264.43 -93.32,489.97 -279.96,676.61 -186.64,186.64 -412.18,279.96 -676.56,279.96l-391.95 0c-264.43,0 -489.97,-93.32 -676.61,-279.96 -186.64,-186.64 -279.96,-412.18 -279.96,-676.61l564.56 0c0,108.9 38.9,201.42 116.69,277.66 77.74,76.19 169.51,114.29 275.32,114.29l391.95 0c105.75,0 197.52,-38.1 275.27,-114.29 77.79,-76.24 116.69,-168.76 116.69,-277.66l0 -195.98c0,-108.85 -38.9,-201.42 -116.69,-277.61 -77.74,-76.24 -169.51,-114.34 -275.27,-114.34l-1348.52 0 0 -1721.8 2109.06 0 0 564.61 -1544.5 0 0 592.57 783.96 0zm-34897.69 774.57l373.28 0 0 564.61 -373.28 0 0 765.28 -564.61 0 0 -765.28 -1367.15 0 0 -564.61 1367.15 -1936.45 564.61 0 0 1936.45zm-564.61 0l0 -951.87 -671.91 951.87 671.91 0zm70923.76 38921.64c0,264.38 -93.32,489.92 -279.96,676.56 186.64,186.69 279.96,412.18 279.96,676.61 0,264.43 -93.32,489.97 -279.96,676.61 -186.64,186.64 -413.72,279.96 -681.25,279.96l-1343.83 0 0 -564.61 1343.83 0c108.9,0 202.22,-38.1 279.96,-114.29 77.79,-76.24 116.69,-168.76 116.69,-277.66 0,-71.55 -17.93,-137.66 -53.68,-198.32 -35.8,-60.67 -83.98,-108.1 -144.65,-142.3 -60.67,-34.2 -125.23,-51.33 -193.63,-51.33l-961.26 0 0 -569.26 961.26 0c68.4,0 132.96,-17.13 193.63,-51.33 60.67,-34.2 108.1,-81.69 142.3,-142.3 34.25,-60.67 51.33,-126.02 51.33,-196.03 0,-69.95 -17.08,-135.31 -51.33,-195.98 -34.2,-60.62 -81.64,-108.85 -142.3,-144.65 -60.67,-35.75 -126.77,-53.63 -198.32,-53.63l-1343.83 0 0 -564.61 1343.83 0c105.75,0 207.66,16.33 305.62,48.98 98.01,32.65 185.89,78.54 263.63,137.66 77.79,59.12 146.25,127.52 205.31,205.31 59.12,77.79 105,165.67 137.66,263.63 32.65,98.01 48.98,198.32 48.98,300.98zm-36245.41 1353.17l0 391.95 1740.48 0 0 564.61 -2305.04 0 0 -956.57c0,-174.21 42.74,-335.18 128.32,-482.93 85.53,-147.79 202.17,-264.43 349.96,-349.96 147.74,-85.58 307.17,-128.32 478.28,-128.32l391.95 0c105.75,0 197.52,-38.1 275.27,-114.34 77.79,-76.19 116.69,-168.76 116.69,-277.61 0,-108.9 -38.9,-201.42 -116.69,-277.66 -77.74,-76.19 -169.51,-114.29 -275.27,-114.29l-391.95 0c-105.8,0 -197.57,38.1 -275.32,114.29 -77.79,76.24 -116.69,168.76 -116.69,277.66l-564.56 0c0,-264.43 93.32,-489.97 279.96,-676.61 186.64,-186.64 412.18,-279.96 676.61,-279.96l391.95 0c264.38,0 489.92,93.32 676.56,279.96 186.64,186.64 279.96,412.18 279.96,676.61 0,264.38 -93.32,490.72 -279.96,678.9 -186.64,188.19 -412.18,282.31 -676.56,282.31l-391.95 0c-105.8,0 -197.57,38.1 -275.32,114.34 -77.79,76.19 -116.69,168.76 -116.69,277.61zm-35189.24 -2309.73l797.89 0 0 3266.3 -564.61 0 0 -2701.69 -438.59 0 205.31 -564.61zm60692.31 -21899.7c-38.95,76.09 -85.73,143.8 -140.05,202.77 -54.62,59.32 -116.84,110.1 -186.84,152.44 -47.08,28.81 -99.46,53.73 -156.68,74.4 -57.22,20.47 -119.23,36.9 -185.59,49.03 -66.71,11.98 -151.09,21.17 -253.05,27.06 -100.91,5.99 -219.49,9.04 -355.26,9.04l-1152.49 0 -24.72 0 0 -24.67 0 -3281.68 0 -24.72 24.72 0 1430.51 0c173.66,0 324.8,17.33 453.37,52.28 129.62,35.2 236.77,88.43 321.5,159.58 84.78,71.1 148.54,161.72 191.03,271.32 41.94,108.4 63.06,235.47 63.06,380.72 0,90.42 -9.44,173.21 -28.01,248 -18.82,75.25 -47.33,142.85 -85.33,202.47 -37.7,60.02 -85.18,113.14 -142.75,159.18 -42.29,33.8 -89.82,63.66 -142.65,90.07 63.16,23.02 120.38,51.68 171.71,86.13 67.96,45.69 125.48,101.36 172.51,167.27 46.98,66.11 82.39,140.05 105.7,221.79 23.27,80.94 34.8,169.91 34.8,266.43 0,93.67 -9.59,183.09 -28.71,268.38 -19.17,85.18 -48.28,166.07 -86.78,242.71zm-675.71 -528.51c0,-56.77 -8.09,-106.15 -24.22,-148.14 -15.58,-41.09 -39.25,-75.39 -70.7,-102.76 -31.41,-27.51 -71.15,-48.63 -118.83,-62.56 -48.88,-14.38 -106.4,-21.72 -172.11,-21.72l-622.13 0 0 676.26 546.29 0c88.23,0 162.87,-6.69 223.74,-20.22 59.77,-13.13 106.25,-32.65 139.71,-58.22 32.16,-24.92 56.47,-58.92 72.9,-101.61 16.78,-44.24 25.36,-97.96 25.36,-161.03zm-425.46 -1005.35c61.76,0 115.39,-6.39 160.73,-18.87 44.14,-12.23 80.84,-30.46 109.5,-54.42 28.11,-23.52 49.43,-53.38 63.61,-89.23 14.58,-36.9 21.92,-80.44 21.92,-130.72 0,-92.22 -26.56,-161.28 -79.54,-207.31 -26.76,-23.02 -60.27,-40.64 -100.26,-52.53 -40.94,-11.98 -88.98,-18.17 -143.95,-18.17l-614.54 0 0 571.25 582.54 0zm3795.21 2477.95l-5149.93 0c-86.43,0 -169.11,-17.38 -244.71,-49.08 -78.19,-32.75 -149.04,-80.94 -208.21,-140.55 -59.37,-59.32 -107.3,-130.42 -139.91,-209.16 -31.36,-75.64 -48.83,-158.88 -48.83,-245.66l0 -2901.11c0,-86.83 17.43,-170.01 48.83,-245.86 32.6,-78.79 80.54,-149.89 139.91,-209.36 59.17,-59.57 130.02,-107.7 208.21,-140.4 75.59,-31.71 158.28,-49.23 244.71,-49.23l5149.93 0 5186.88 0c86.33,0 169.01,17.48 244.71,49.23 78.19,32.7 149.04,80.84 208.21,140.4 59.32,59.52 107.3,130.72 139.96,209.36 31.36,75.79 48.88,159.03 48.88,245.86l0 2901.11c0,86.63 -17.53,169.86 -48.88,245.51 -32.65,78.69 -80.64,149.99 -139.96,209.31 -59.17,59.62 -130.02,107.8 -208.21,140.55 -75.69,31.71 -158.23,49.08 -244.71,49.08l-5186.88 0zm-5149.93 260.94l10336.8 0c121.63,0 237.77,-24.57 343.62,-68.75 110.25,-45.89 209.61,-113.44 292.84,-196.88 83.28,-83.83 150.54,-183.69 196.23,-294.34 44.09,-106.3 68.4,-223.14 68.4,-345.42l0 -2901.11c0,-122.58 -24.32,-239.22 -68.4,-345.82 -45.69,-110.6 -112.94,-210.66 -196.23,-294.14 -83.23,-83.58 -182.6,-151.24 -292.84,-197.18 -105.95,-44.29 -221.99,-68.7 -343.62,-68.7l-10336.8 0c-121.63,0 -237.72,24.42 -343.47,68.7 -110.3,45.94 -209.81,113.59 -293.04,197.18 -83.23,83.48 -150.49,183.54 -196.18,294.14 -44.09,106.6 -68.4,223.24 -68.4,345.82l0 2901.11c0,122.28 24.32,239.12 68.4,345.42 45.69,110.65 112.94,210.51 196.18,294.34 83.23,83.43 182.6,150.99 293.04,197.08 105.75,43.99 221.84,68.55 343.47,68.55zm5842.26 -739.77l0 -1216.76 0 -24.77 24.87 0 1234.88 0 0 -630.62 -1234.88 0 -24.87 0 0 -24.72 0 -680 0 -24.72 24.87 0 1426.71 0 0 -630.42 -2100.72 0 0 3232 649.15 0zm2663.49 -1659.34l-944.08 1671.92 -20.77 36.9 42.29 0 864.8 0 14.83 0 6.89 -13.33 478.18 -911.98 472.79 911.93 7.04 13.38 14.93 0 870.44 0 42.54 0 -21.22 -37 -953.52 -1671.92 899.65 -1585.04 20.97 -37.1 -42.39 0 -860.3 0 -14.83 0 -6.99 13.53 -428.85 834.99 -429.6 -835.19 -6.89 -13.33 -15.08 0 -860.8 0 -42.24 0 20.57 36.75 891.66 1585.49zm-8946.34 -1409.84l9.99 3002.02c23.32,116.19 70.85,201.92 141.7,257.89 71.35,56.42 167.97,84.03 288.6,84.03l5125.36 0 0 -225.29 -55.67 0 -641.71 0 -24.67 0 0 -24.67 0 -1216.86 -1145.01 0 -24.67 0 0 -24.72 0 -680.1 0 -24.72 24.67 0 1145.01 0 0 -630.57 -1323.06 0 -24.77 0 0 -24.72 0 -680 0 -24.72 24.77 0 2045.1 0 0 -216.55 -5225.72 -3.89c-115.69,23.47 -200.92,71.2 -256.54,142.45 -56.07,71.75 -83.38,168.86 -83.38,290.4zm-37633.83 22180.01l-1819.02 1330.4c-86.43,63.36 -207.96,44.64 -271.32,-41.79 -25.36,-34.6 -37.55,-74.85 -37.55,-114.74l-0.45 0 0 -580.24c0,-70.95 37.95,-133.01 94.72,-167.02l1209.42 -857.46 -1220.55 -854.16c-53.87,-37.6 -82.73,-97.71 -82.73,-158.83l-0.85 0 0 -580.24c0,-107.45 87.13,-194.58 194.58,-194.58 48.38,0 92.72,17.73 126.77,47.03l1816.57 1308.98c244.01,274.92 298.48,609.6 -9.59,862.65zm-12831.53 -1185.05l1199.93 0 0 390.31 -1199.93 0 -390.31 0 0 -2257.95 390.31 0 0 1867.65zm2949.99 390.31l-390.31 0 0 -2257.95 390.31 0 0 2257.95zm3004.86 -2257.95l416.07 0 -822.5 2257.95 -416.12 0 -822.55 -2257.95 416.12 0 612.9 1687 616.09 -1687zm3362.87 2257.95l-1590.23 0 0 -390.31 1590.23 0 0 390.31zm0 -1867.65l-1590.23 0 0 -390.31 1590.23 0 0 390.31zm-267.73 935.45l-1322.51 0 0 -393.55 1322.51 0 0 393.55zm-9037.06 3924.38l-403.24 0 570.95 -2257.95 403.19 0 367.74 1458.02 367.74 -1458.02 403.19 0 570.95 2257.95 -403.24 0 -367.69 -1457.97 -367.74 1457.97 -403.19 0 -370.98 -1457.97 -367.69 1457.97zm3247.63 -2106.37c173.11,-101.06 361.85,-151.59 566.11,-151.59 204.32,0 393,50.53 566.11,151.59 173.11,101.06 310.22,238.17 411.28,411.28 101.06,173.11 151.59,361.8 151.59,566.11 0,204.27 -50.53,393 -151.59,566.11 -101.06,173.11 -238.17,310.17 -411.28,411.28 -173.11,101.06 -361.8,151.59 -566.11,151.59 -204.27,0 -393,-50.53 -566.11,-151.59 -173.11,-101.11 -310.17,-238.17 -411.28,-411.28 -101.06,-173.11 -151.59,-361.85 -151.59,-566.11 0,-204.32 50.53,-393 151.59,-566.11 101.11,-173.11 238.17,-310.22 411.28,-411.28zm43.54 1499.96c144.1,144.05 318.31,216.1 522.57,216.1 204.32,0 378.47,-72.05 522.57,-216.1 144.05,-144.1 216.1,-318.31 216.1,-522.57 0,-204.32 -72.05,-378.47 -216.1,-522.57 -144.1,-144.05 -318.26,-216.1 -522.57,-216.1 -204.27,0 -378.47,72.05 -522.57,216.1 -144.05,144.1 -216.1,318.26 -216.1,522.57 0,204.27 72.05,378.47 216.1,522.57zm2694.45 -1651.55c204.32,0 393,50.53 566.11,151.59 173.11,101.06 310.22,238.17 411.28,411.28 101.06,173.11 151.59,361.8 151.59,566.11 0,122.58 -18.77,241.36 -56.42,356.45 -37.65,115.04 -91.42,218.8 -161.28,311.27 -69.9,92.47 -151.09,173.66 -243.56,243.51 -92.47,69.9 -196.23,123.68 -311.27,161.28 -115.04,37.65 -233.87,56.47 -356.45,56.47l-477.39 0 0 -390.31 477.39 0c101.11,0 196.78,-19.87 287.1,-59.67 90.32,-39.79 168.81,-92.47 235.47,-158.08 66.66,-65.56 119.33,-144.05 158.08,-235.47 38.7,-91.37 58.02,-186.54 58.02,-285.45 0,-204.32 -72,-378.47 -216.1,-522.57 -144.1,-144.05 -318.26,-216.1 -522.57,-216.1l-477.39 0 0 -390.31 477.39 0zm3352.48 2257.95l-1590.23 0 0 -390.31 1590.23 0 0 390.31zm0 -1867.65l-1590.23 0 0 -390.31 1590.23 0 0 390.31zm-267.73 935.45l-1322.51 0 0 -393.55 1322.51 0 0 393.55zm-12584.72 -1265.24l1819.02 1330.4c86.43,63.36 207.96,44.64 271.32,-41.79 25.36,-34.6 37.55,-74.85 37.55,-114.74l0.45 0 0 -580.24c0,-70.95 -37.95,-133.01 -94.72,-167.02l-1209.42 -857.46 1220.55 -854.16c53.87,-37.6 82.73,-97.71 82.73,-158.83l0.85 0 0 -580.24c0,-107.45 -87.13,-194.58 -194.58,-194.58 -48.38,0 -92.72,17.73 -126.77,47.03l-1816.57 1308.98c-244.01,274.92 -298.48,609.6 9.59,862.65z"/>
  <g id="_1580258368">
   <path class="fil1" d="M99.86 55029.4l89774.95 0 0 -54904.27 -89774.95 -25.36 0 54929.64zm89824.88 99.86l-89924.74 0 0 -55128.96c29991.13,0 59983.65,-4.59 89974.67,25.41l0 55103.55 -49.93 0zm-84150.34 -8722c22.52,-825.2 282.56,-1591.03 713.96,-2231.34 443.88,-658.68 1069.51,-1185.1 1804.99,-1507.2l35.75 -15.58c65.31,-27.76 129.97,-45.19 191.98,-52.33 104.65,-12.03 202.62,4.74 285.4,4…2507 tokens truncated…6,-29.31 184.29,-76.49 47.38,-47.33 76.69,-112.64 76.69,-184.49l0 -157.48 1.15 -5.49c9.54,-45.74 22.52,-87.53 38.5,-125.18 47.23,-111.29 120.48,-187.69 210.66,-230.63 89.28,-42.49 194.23,-51.33 305.72,-28.06 44.64,9.34 90.77,24.02 137.46,43.74l114.94 50.78c701.32,322.75 1298.49,832.74 1727.64,1465.86 417.82,616.34 676.46,1349.47 716.75,2139.92l3.94 101.06c0.9,35.6 -0.95,68.8 -5.34,99.51 -15.18,105.15 -60.07,187.94 -129.62,245.61 -68.5,56.82 -160.18,88.03 -269.92,90.92 -39.05,1 -80.14,-1.55 -122.93,-7.69l-5.14 -0.7 -148.39 -54.02c-67.41,-24.52 -138.86,-19.17 -199.52,9.09 -60.67,28.11 -110.55,79.44 -135.11,146.75l-465.35 1278.52c-24.57,67.66 -19.32,139.11 8.89,199.57 28.46,60.67 79.74,110.65 146.9,135.11 31.26,11.38 75.25,24.17 103.86,38.25 37.85,18.92 73.65,43.04 106,70.9 74.25,63.96 134.36,149.89 165.07,241.86 31.86,95.22 32.45,197.23 -13.83,289.85 -12.83,25.61 -29.21,50.38 -49.18,73.65l-48.38 55.32zm-1462.96 952.77c532.56,-238.97 1005.15,-588.43 1388.47,-1018.98l47.18 -53.83c14.88,-17.33 26.86,-35.3 35.9,-53.38 33.4,-66.81 32.35,-142.35 8.49,-213.85 -24.87,-74.8 -74.35,-145.05 -135.66,-197.72 -26.26,-22.47 -54.07,-41.54 -82.44,-56.07l-96.32 -35.05c-93.37,-34.05 -164.37,-103.06 -203.37,-186.69 -38.9,-83.78 -46.14,-182.5 -12.33,-275.52l465.35 -1278.52c34,-93.32 103.01,-164.17 186.69,-203.22 83.58,-39.2 182.25,-46.44 275.47,-12.53l138.81 50.48c36.1,4.94 70.05,6.99 101.56,6.19 86.38,-2.25 157.23,-25.76 208.61,-68.35 50.33,-41.74 83.13,-103.36 94.57,-182.8 3.74,-25.86 5.29,-53.48 4.54,-82.34l-3.94 -99.06c-39.35,-771.87 -291.79,-1487.63 -699.58,-2089.19 -418.82,-617.89 -1001.8,-1115.75 -1686.3,-1430.81l-112.84 -49.98c-40.19,-17.08 -80.09,-29.76 -118.88,-37.85 -90.27,-18.82 -173.66,-12.38 -242.91,20.57 -68.35,32.5 -124.53,91.97 -161.53,179.4 -12.83,30.41 -23.42,64.16 -31.46,101.21l0 148.09c0,99.06 -40.54,189.24 -105.95,254.7 -65.66,65.61 -155.83,106.15 -254.89,106.15l-1360.46 0c-99.26,0 -189.59,-40.59 -254.94,-105.95 -65.36,-65.56 -105.95,-155.78 -105.95,-254.89l0 -102.56c-6.49,-53.53 -19.02,-101.21 -36.7,-142.65 -33.3,-78.14 -85.28,-134.91 -149.14,-169.41 -64.66,-34.9 -142.6,-47.88 -226.88,-38.2 -52.58,6.09 -107.85,20.97 -163.87,44.89l-35.55 15.43c-717.65,314.21 -1328.4,828.2 -1761.9,1471.55 -421.31,625.33 -675.21,1372.84 -697.18,2177.72l-0.75 32.01c-0.25,16.28 0.8,32.4 3,48.03 11.53,79.84 57.02,141.35 119.23,183.34 65.31,44.09 148.89,67.41 232.43,68.9 23.47,0.35 47.33,-0.95 71.05,-4.09l147.15 -53.58c90.87,-30.31 185.94,-22.22 267.03,15.58 83.73,38.85 152.84,109.85 186.74,203.22l465.4 1278.42c33.85,93.12 26.56,191.78 -12.53,275.67 -39.05,83.68 -109.95,152.79 -203.22,186.69l-96.22 35.05c-28.41,14.58 -56.17,33.8 -82.14,56.42 -62.76,54.57 -112.79,128.12 -137.81,206.06 -24.07,74.95 -24.72,153.74 9.64,222.34 9.34,18.72 21.57,36.95 36.7,54.42l34.35 38.85c383.22,429.55 855.41,778.12 1387.27,1016.53 512.04,229.43 1080.1,357.15 1678.11,357.15 598.72,0 1167.42,-128.02 1679.91,-358zm67821.38 457.86c-611.95,0 -1193.74,-130.92 -1718.66,-366.14 -545.24,-244.41 -1029.07,-601.46 -1421.42,-1041.3l-34.45 -39.1c-20.82,-24.12 -37.7,-49.43 -50.88,-75.84 -46.98,-93.82 -47.03,-198.92 -15.43,-297.24 30.51,-95.17 91.27,-184.59 167.07,-250.7 32.4,-28.41 68.3,-52.83 106.25,-71.85 28.56,-14.08 72.45,-26.81 103.66,-38.2 67.46,-24.52 118.83,-74.55 147.1,-135.16 28.26,-60.57 33.5,-132.02 8.94,-199.57l-466.55 -1281.56c-24.87,-65.71 -74.3,-115.89 -133.96,-143.7 -60.57,-28.46 -131.97,-33.7 -199.47,-9.14l-148.54 54.07 -5.09 0.7c-29.71,4.29 -60.57,6.14 -91.67,5.59 -102.36,-1.85 -205.36,-30.86 -286.65,-85.68 -84.38,-56.92 -146.1,-141.3 -162.07,-251.95 -2.85,-20.07 -4.19,-41.49 -3.79,-63.91l0.75 -32.35c22.52,-825.25 282.56,-1591.08 713.96,-2231.39 443.88,-658.68 1069.51,-1185.1 1804.99,-1507.2l35.75 -15.58c65.31,-27.76 129.97,-45.19 191.98,-52.33 104.65,-12.03 202.62,4.74 285.4,49.48 83.53,45.14 151.04,118.24 193.58,218.15 21.77,51.03 37,109.15 44.49,173.81 3.55,31.01 0.4,77.69 0.4,110.45 0,71.85 29.31,137.16 76.49,184.29 47.48,47.28 112.79,76.69 184.54,76.69l1360.46 0c71.85,0 137.16,-29.31 184.29,-76.49 47.38,-47.33 76.69,-112.64 76.69,-184.49l0 -157.48 1.15 -5.49c9.54,-45.74 22.52,-87.53 38.5,-125.18 47.23,-111.29 120.48,-187.69 210.66,-230.63 89.28,-42.49 194.23,-51.33 305.72,-28.06 44.64,9.34 90.77,24.02 137.46,43.74l114.94 50.78c701.32,322.75 1298.49,832.74 1727.64,1465.86 417.82,616.34 676.46,1349.47 716.75,2139.92l3.94 101.06c0.9,35.6 -0.95,68.8 -5.34,99.51 -15.18,105.15 -60.07,187.94 -129.62,245.61 -68.5,56.82 -160.18,88.03 -269.92,90.92 -39.05,1 -80.14,-1.55 -122.93,-7.69l-5.14 -0.7 -148.39 -54.02c-67.41,-24.52 -138.86,-19.17 -199.52,9.09 -60.67,28.11 -110.55,79.44 -135.11,146.75l-465.35 1278.52c-24.57,67.66 -19.32,139.11 8.89,199.57 28.46,60.67 79.74,110.65 146.9,135.11 31.26,11.38 75.25,24.17 103.86,38.25 37.85,18.92 73.65,43.04 106,70.9 74.25,63.96 134.36,149.89 165.07,241.86 31.86,95.22 32.45,197.23 -13.83,289.85 -12.83,25.61 -29.21,50.38 -49.18,73.65l-48.38 55.22c-392.35,440.89 -876.48,798.74 -1422.42,1043.75 -525.37,235.77 -1107.81,366.99 -1720.45,366.99zm-1678.11 -457.01c512.04,229.43 1080.1,357.15 1678.11,357.15 598.72,0 1167.42,-128.02 1679.91,-358 532.56,-238.97 1005.15,-588.43 1388.47,-1018.98l47.18 -53.83c14.88,-17.33 26.86,-35.3 35.9,-53.38 33.4,-66.81 32.35,-142.35 8.49,-213.85 -24.87,-74.8 -74.35,-145.05 -135.66,-197.72 -26.26,-22.47 -54.07,-41.54 -82.44,-56.07l-96.32 -35.05c-93.37,-34.05 -164.37,-103.06 -203.37,-186.69 -38.9,-83.78 -46.14,-182.5 -12.33,-275.52l465.35 -1278.52c34,-93.32 103.01,-164.17 186.69,-203.22 83.58,-39.2 182.25,-46.44 275.47,-12.53l138.81 50.48c36.1,4.94 70.05,6.99 101.56,6.19 86.38,-2.25 157.23,-25.76 208.61,-68.35 50.33,-41.74 83.13,-103.36 94.57,-182.8 3.74,-25.86 5.29,-53.48 4.54,-82.34l-3.94 -99.06c-39.35,-771.87 -291.79,-1487.63 -699.58,-2089.19 -418.82,-617.89 -1001.8,-1115.75 -1686.3,-1430.81l-112.84 -49.98c-40.19,-17.08 -80.09,-29.76 -118.88,-37.85 -90.27,-18.82 -173.66,-12.38 -242.91,20.57 -68.35,32.5 -124.53,91.97 -161.53,179.4 -12.83,30.41 -23.42,64.16 -31.46,101.21l0 148.09c0,99.06 -40.54,189.24 -105.95,254.7 -65.66,65.61 -155.83,106.15 -254.89,106.15l-1360.46 0c-99.26,0 -189.59,-40.59 -254.94,-105.95 -65.36,-65.56 -105.95,-155.78 -105.95,-254.89l0 -102.56c-6.49,-53.53 -19.02,-101.21 -36.7,-142.65 -33.3,-78.14 -85.28,-134.91 -149.14,-169.41 -64.66,-34.9 -142.6,-47.88 -226.88,-38.2 -52.58,6.09 -107.85,20.97 -163.87,44.89l-35.55 15.43c-717.65,314.21 -1328.4,828.2 -1761.9,1471.55 -421.31,625.33 -675.21,1372.84 -697.18,2177.72l-0.75 32.01c-0.25,16.28 0.8,32.4 3,48.03 11.53,79.84 57.02,141.35 119.23,183.34 65.31,44.09 148.89,67.41 232.43,68.9 23.47,0.35 47.33,-0.95 71.05,-4.09l147.15 -53.58c90.87,-30.31 185.94,-22.22 267.03,15.58 83.73,38.85 152.84,109.85 186.74,203.22l465.4 1278.42c33.85,93.12 26.56,191.78 -12.53,275.67 -39.05,83.68 -109.95,152.79 -203.22,186.69l-96.22 35.05c-28.41,14.58 -56.17,33.8 -82.14,56.42 -62.76,54.57 -112.79,128.12 -137.81,206.06 -24.07,74.95 -24.72,153.74 9.64,222.34 9.34,18.72 21.57,36.95 36.7,54.42l34.35 38.85c383.22,429.55 855.41,778.12 1387.27,1016.53zm-33022.6 40057.25c-611.95,0 -1193.74,-130.92 -1718.66,-366.14 -545.24,-244.41 -1029.07,-601.46 -1421.42,-1041.3l-34.45 -39.1c-20.82,-24.12 -37.7,-49.43 -50.88,-75.84 -46.98,-93.82 -47.03,-198.92 -15.43,-297.24 30.51,-95.17 91.27,-184.59 167.07,-250.7 32.4,-28.41 68.3,-52.83 106.25,-71.85 28.56,-14.08 72.45,-26.81 103.66,-38.2 67.46,-24.52 118.83,-74.55 147.1,-135.16 28.26,-60.57 33.5,-132.02 8.94,-199.57l-466.55 -1281.56c-24.87,-65.71 -74.3,-115.89 -133.96,-143.7 -60.57,-28.46 -131.97,-33.7 -199.47,-9.14l-148.54 54.07 -5.09 0.7c-29.71,4.29 -60.57,6.14 -91.67,5.59 -102.36,-1.85 -205.36,-30.86 -286.65,-85.68 -84.38,-56.92 -146.1,-141.3 -162.07,-251.95 -2.85,-20.07 -4.19,-41.49 -3.79,-63.91l0.75 -32.35c22.52,-825.25 282.56,-1591.08 713.96,-2231.39 443.88,-658.68 1069.51,-1185.1 1804.99,-1507.2l35.75 -15.58c65.31,-27.76 129.97,-45.19 191.98,-52.33 104.65,-12.03 202.62,4.74 285.4,49.48 83.53,45.14 151.04,118.24 193.58,218.15 21.77,51.03 37,109.15 44.49,173.81 3.55,31.01 0.4,77.69 0.4,110.45 0,71.85 29.31,137.16 76.49,184.29 47.48,47.28 112.79,76.69 184.54,76.69l1360.46 0c71.85,0 137.16,-29.31 184.29,-76.49 47.38,-47.33 76.69,-112.64 76.69,-184.49l0 -157.48 1.15 -5.49c9.54,-45.74 22.52,-87.53 38.5,-125.18 47.23,-111.29 120.48,-187.69 210.66,-230.63 89.28,-42.49 194.23,-51.33 305.72,-28.06 44.64,9.34 90.77,24.02 137.46,43.74l114.94 50.78c701.32,322.75 1298.49,832.74 1727.64,1465.86 417.82,616.34 676.46,1349.47 716.75,2139.92l3.94 101.06c0.9,35.6 -0.95,68.8 -5.34,99.51 -15.18,105.15 -60.07,187.94 -129.62,245.61 -68.5,56.82 -160.18,88.03 -269.92,90.92 -39.05,1 -80.14,-1.55 -122.93,-7.69l-5.14 -0.7 -148.39 -54.02c-67.41,-24.52 -138.86,-19.17 -199.52,9.09 -60.67,28.11 -110.55,79.44 -135.11,146.75l-465.35 1278.52c-24.57,67.66 -19.32,139.11 8.89,199.57 28.46,60.67 79.74,110.65 146.9,135.11 31.26,11.38 75.25,24.17 103.86,38.25 37.85,18.92 73.65,43.04 106,70.9 74.25,63.96 134.36,149.89 165.07,241.86 31.86,95.22 32.45,197.23 -13.83,289.85 -12.83,25.61 -29.21,50.38 -49.18,73.65l-48.38 55.22c-392.35,440.89 -876.48,798.74 -1422.42,1043.75 -525.37,235.77 -1107.81,366.99 -1720.45,366.99zm-1678.11 -457.01c512.04,229.43 1080.1,357.15 1678.11,357.15 598.72,0 1167.42,-128.02 1679.91,-358 532.56,-238.97 1005.15,-588.43 1388.47,-1018.98l47.18 -53.83c14.88,-17.33 26.86,-35.3 35.9,-53.38 33.4,-66.81 32.35,-142.35 8.49,-213.85 -24.87,-74.8 -74.35,-145.05 -135.66,-197.72 -26.26,-22.47 -54.07,-41.54 -82.44,-56.07l-96.32 -35.05c-93.37,-34.05 -164.37,-103.06 -203.37,-186.69 -38.9,-83.78 -46.14,-182.5 -12.33,-275.52l465.35 -1278.52c34,-93.32 103.01,-164.17 186.69,-203.22 83.58,-39.2 182.25,-46.44 275.47,-12.53l138.81 50.48c36.1,4.94 70.05,6.99 101.56,6.19 86.38,-2.25 157.23,-25.76 208.61,-68.35 50.33,-41.74 83.13,-103.36 94.57,-182.8 3.74,-25.86 5.29,-53.48 4.54,-82.34l-3.94 -99.06c-39.35,-771.87 -291.79,-1487.63 -699.58,-2089.19 -418.82,-617.89 -1001.8,-1115.75 -1686.3,-1430.81l-112.84 -49.98c-40.19,-17.08 -80.09,-29.76 -118.88,-37.85 -90.27,-18.82 -173.66,-12.38 -242.91,20.57 -68.35,32.5 -124.53,91.97 -161.53,179.4 -12.83,30.41 -23.42,64.16 -31.46,101.21l0 148.09c0,99.06 -40.54,189.24 -105.95,254.7 -65.66,65.61 -155.83,106.15 -254.89,106.15l-1360.46 0c-99.26,0 -189.59,-40.59 -254.94,-105.95 -65.36,-65.56 -105.95,-155.78 -105.95,-254.89l0 -102.56c-6.49,-53.53 -19.02,-101.21 -36.7,-142.65 -33.3,-78.14 -85.28,-134.91 -149.14,-169.41 -64.66,-34.9 -142.6,-47.88 -226.88,-38.2 -52.58,6.09 -107.85,20.97 -163.87,44.89l-35.55 15.43c-717.65,314.21 -1328.4,828.2 -1761.9,1471.55 -421.31,625.33 -675.21,1372.84 -697.18,2177.72l-0.75 32.01c-0.25,16.28 0.8,32.4 3,48.03 11.53,79.84 57.02,141.35 119.23,183.34 65.31,44.09 148.89,67.41 232.43,68.9 23.47,0.35 47.33,-0.95 71.05,-4.09l147.15 -53.58c90.87,-30.31 185.94,-22.22 267.03,15.58 83.73,38.85 152.84,109.85 186.74,203.22l465.4 1278.42c33.85,93.12 26.56,191.78 -12.53,275.67 -39.05,83.68 -109.95,152.79 -203.22,186.69l-96.22 35.05c-28.41,14.58 -56.17,33.8 -82.14,56.42 -62.76,54.57 -112.79,128.12 -137.81,206.06 -24.07,74.95 -24.72,153.74 9.64,222.34 9.34,18.72 21.57,36.95 36.7,54.42l34.35 38.85c383.22,429.55 855.41,778.12 1387.27,1016.53zm33514.97 -1723.35c67.46,-24.52 118.83,-74.55 147.1,-135.16 28.26,-60.57 33.5,-132.02 8.94,-199.57l-466.55 -1281.56c-24.87,-65.71 -74.3,-115.89 -133.96,-143.7 -60.57,-28.46 -131.97,-33.7 -199.47,-9.14l-148.54 54.07 -5.09 0.7c-29.71,4.29 -60.57,6.14 -91.67,5.59 -102.36,-1.85 -205.36,-30.86 -286.65,-85.68 -84.38,-56.92 -146.1,-141.3 -162.07,-251.95 -2.85,-20.07 -4.19,-41.49 -3.79,-63.91l0.75 -32.35c22.52,-825.25 282.56,-1591.08 713.96,-2231.39 443.88,-658.68 1069.51,-1185.1 1804.99,-1507.2l35.75 -15.58c65.31,-27.76 129.97,-45.19 191.98,-52.33 104.65,-12.03 202.62,4.74 285.4,49.48 83.53,45.14 151.04,118.24 193.58,218.15 21.77,51.03 37,109.15 44.49,173.81 3.55,31.01 0.4,77.69 0.4,110.45 0,71.85 29.31,137.16 76.49,184.29 47.48,47.28 112.79,76.69 184.54,76.69l1360.46 0c71.85,0 137.16,-29.31 184.29,-76.49 47.38,-47.33 76.69,-112.64 76.69,-184.49l0 -157.48 1.15 -5.49c9.54,-45.74 22.52,-87.53 38.5,-125.18 47.23,-111.29 120.48,-187.69 210.66,-230.63 89.28,-42.49 194.23,-51.33 305.72,-28.06 44.64,9.34 90.77,24.02 137.46,43.74l114.94 50.78c701.32,322.75 1298.49,832.74 1727.64,1465.86 417.82,616.34 676.46,1349.47 716.75,2139.92l3.94 101.06c0.9,35.6 -0.95,68.8 -5.34,99.51 -15.18,105.15 -60.07,187.94 -129.62,245.61 -68.5,56.82 -160.18,88.03 -269.92,90.92 -39.05,1 -80.14,-1.55 -122.93,-7.69l-5.14 -0.7 -148.39 -54.02c-67.41,-24.52 -138.86,-19.17 -199.52,9.09 -60.67,28.11 -110.55,79.44 -135.11,146.75l-465.35 1278.52c-24.57,67.66 -19.32,139.11 8.89,199.57 28.46,60.67 79.74,110.65 146.9,135.11 31.26,11.38 75.25,24.17 103.86,38.25 37.85,18.92 73.65,43.04 106,70.9 74.25,63.96 134.36,149.89 165.07,241.86 31.86,95.22 32.45,197.23 -13.83,289.85 -12.83,25.61 -29.21,50.38 -49.18,73.65l-48.38 55.22c-392.35,440.89 -876.48,798.74 -1422.42,1043.75 -525.37,235.77 -1107.81,366.99 -1720.45,366.99 -611.95,0 -1193.74,-130.92 -1718.66,-366.14 -545.24,-244.41 -1029.07,-601.46 -1421.42,-1041.3l-34.45 -39.1c-20.82,-24.12 -37.7,-49.43 -50.88,-75.84 -46.98,-93.82 -47.03,-198.92 -15.43,-297.24 30.51,-95.17 91.27,-184.59 167.07,-250.7 32.4,-28.41 68.3,-52.83 106.25,-71.85 28.56,-14.08 72.45,-26.81 103.66,-38.2zm237.17 -93.02c-39.05,83.68 -109.95,152.79 -203.22,186.69l-96.22 35.05c-28.41,14.58 -56.17,33.8 -82.14,56.42 -62.76,54.57 -112.79,128.12 -137.81,206.06 -24.07,74.95 -24.72,153.74 9.64,222.34 9.34,18.72 21.57,36.95 36.7,54.42l34.35 38.85c383.22,429.55 855.41,778.12 1387.27,1016.53 512.04,229.43 1080.1,357.15 1678.11,357.15 598.72,0 1167.42,-128.02 1679.91,-358 532.56,-238.97 1005.15,-588.43 1388.47,-1018.98l47.18 -53.83c14.88,-17.33 26.86,-35.3 35.9,-53.38 33.4,-66.81 32.35,-142.35 8.49,-213.85 -24.87,-74.8 -74.35,-145.05 -135.66,-197.72 -26.26,-22.47 -54.07,-41.54 -82.44,-56.07l-96.32 -35.05c-93.37,-34.05 -164.37,-103.06 -203.37,-186.69 -38.9,-83.78 -46.14,-182.5 -12.33,-275.52l465.35 -1278.52c34,-93.32 103.01,-164.17 186.69,-203.22 83.58,-39.2 182.25,-46.44 275.47,-12.53l138.81 50.48c36.1,4.94 70.05,6.99 101.56,6.19 86.38,-2.25 157.23,-25.76 208.61,-68.35 50.33,-41.74 83.13,-103.36 94.57,-182.8 3.74,-25.86 5.29,-53.48 4.54,-82.34l-3.94 -99.06c-39.35,-771.87 -291.79,-1487.63 -699.58,-2089.19 -418.82,-617.89 -1001.8,-1115.75 -1686.3,-1430.81l-112.84 -49.98c-40.19,-17.08 -80.09,-29.76 -118.88,-37.85 -90.27,-18.82 -173.66,-12.38 -242.91,20.57 -68.35,32.5 -124.53,91.97 -161.53,179.4 -12.83,30.41 -23.42,64.16 -31.46,101.21l0 148.09c0,99.06 -40.54,189.24 -105.95,254.7 -65.66,65.61 -155.83,106.15 -254.89,106.15l-1360.46 0c-99.26,0 -189.59,-40.59 -254.94,-105.95 -65.36,-65.56 -105.95,-155.78 -105.95,-254.89l0 -102.56c-6.49,-53.53 -19.02,-101.21 -36.7,-142.65 -33.3,-78.14 -85.28,-134.91 -149.14,-169.41 -64.66,-34.9 -142.6,-47.88 -226.88,-38.2 -52.58,6.09 -107.85,20.97 -163.87,44.89l-35.55 15.43c-717.65,314.21 -1328.4,828.2 -1761.9,1471.55 -421.31,625.33 -675.21,1372.84 -697.18,2177.72l-0.75 32.01c-0.25,16.28 0.8,32.4 3,48.03 11.53,79.84 57.02,141.35 119.23,183.34 65.31,44.09 148.89,67.41 232.43,68.9 23.47,0.35 47.33,-0.95 71.05,-4.09l147.15 -53.58c90.87,-30.31 185.94,-22.22 267.03,15.58 83.73,38.85 152.84,109.85 186.74,203.22l465.4 1278.42c33.85,93.12 26.56,191.78 -12.53,275.67z"/>
   <path class="fil2" d="M9999.87 1976.25c1390.96,0 2650.31,563.86 3561.79,1475.3 911.43,911.48 1475.3,2170.83 1475.3,3561.79 0,1390.96 -563.86,2650.31 -1475.3,3561.79 -911.48,911.43 -2170.83,1475.3 -3561.79,1475.3 -1390.96,0 -2650.31,-563.86 -3561.79,-1475.3 -911.43,-911.48 -1475.3,-2170.83 -1475.3,-3561.79 0,-1390.96 563.86,-2650.31 1475.3,-3561.79 911.48,-911.43 2170.83,-1475.3 3561.79,-1475.3zm3499.48 1537.61c-895.55,-895.5 -2132.93,-1449.53 -3499.48,-1449.53 -1366.6,0 -2603.92,554.03 -3499.48,1449.53 -895.5,895.55 -1449.53,2132.93 -1449.53,3499.48 0,1366.6 554.03,2603.92 1449.53,3499.48 895.55,895.5 2132.88,1449.53 3499.48,1449.53 1366.55,0 2603.92,-554.03 3499.48,-1449.53 895.5,-895.55 1449.53,-2132.88 1449.53,-3499.48 0,-1366.55 -554.03,-2603.92 -1449.53,-3499.48z"/>
   <path class="fil2" d="M44800.45 1976.25c1390.96,0 2650.31,563.86 3561.79,1475.3 911.43,911.48 1475.3,2170.83 1475.3,3561.79 0,1390.96 -563.86,2650.31 -1475.3,3561.79 -911.48,911.43 -2170.83,1475.3 -3561.79,1475.3 -1390.96,0 -2650.31,-563.86 -3561.79,-1475.3 -911.43,-911.48 -1475.3,-2170.83 -1475.3,-3561.79 0,-1390.96 563.86,-2650.31 1475.3,-3561.79 911.48,-911.43 2170.83,-1475.3 3561.79,-1475.3zm3499.48 1537.61c-895.55,-895.5 -2132.93,-1449.53 -3499.48,-1449.53 -1366.6,0 -2603.92,554.03 -3499.48,1449.53 -895.5,895.55 -1449.53,2132.93 -1449.53,3499.48 0,1366.6 554.03,2603.92 1449.53,3499.48 895.55,895.5 2132.88,1449.53 3499.48,1449.53 1366.55,0 2603.92,-554.03 3499.48,-1449.53 895.5,-895.55 1449.53,-2132.88 1449.53,-3499.48 0,-1366.55 -554.03,-2603.92 -1449.53,-3499.48z"/>
   <path class="fil2" d="M79501.16 1976.25c1390.96,0 2650.31,563.86 3561.79,1475.3 911.43,911.48 1475.3,2170.83 1475.3,3561.79 0,1390.96 -563.86,2650.31 -1475.3,3561.79 -911.48,911.43 -2170.83,1475.3 -3561.79,1475.3 -1390.96,0 -2650.31,-563.86 -3561.79,-1475.3 -911.43,-911.48 -1475.3,-2170.83 -1475.3,-3561.79 0,-1390.96 563.86,-2650.31 1475.3,-3561.79 911.48,-911.43 2170.83,-1475.3 3561.79,-1475.3zm3499.48 1537.61c-895.55,-895.5 -2132.93,-1449.53 -3499.48,-1449.53 -1366.6,0 -2603.92,554.03 -3499.48,1449.53 -895.5,895.55 -1449.53,2132.93 -1449.53,3499.48 0,1366.6 554.03,2603.92 1449.53,3499.48 895.55,895.5 2132.88,1449.53 3499.48,1449.53 1366.55,0 2603.92,-554.03 3499.48,-1449.53 895.5,-895.55 1449.53,-2132.88 1449.53,-3499.48 0,-1366.55 -554.03,-2603.92 -1449.53,-3499.48z"/>
   <path class="fil2" d="M79501.16 41576.49c1390.96,0 2650.31,563.86 3561.79,1475.3 911.43,911.48 1475.3,2170.83 1475.3,3561.79 0,1390.96 -563.86,2650.31 -1475.3,3561.79 -911.48,911.43 -2170.83,1475.3 -3561.79,1475.3 -1390.96,0 -2650.31,-563.86 -3561.79,-1475.3 -911.43,-911.48 -1475.3,-2170.83 -1475.3,-3561.79 0,-1390.96 563.86,-2650.31 1475.3,-3561.79 911.48,-911.43 2170.83,-1475.3 3561.79,-1475.3zm3499.48 1537.61c-895.55,-895.5 -2132.93,-1449.53 -3499.48,-1449.53 -1366.6,0 -2603.92,554.03 -3499.48,1449.53 -895.5,895.55 -1449.53,2132.93 -1449.53,3499.48 0,1366.6 554.03,2603.92 1449.53,3499.48 895.55,895.5 2132.88,1449.53 3499.48,1449.53 1366.55,0 2603.92,-554.03 3499.48,-1449.53 895.5,-895.55 1449.53,-2132.88 1449.53,-3499.48 0,-1366.55 -554.03,-2603.92 -1449.53,-3499.48z"/>
   <path class="fil2" d="M44748.82 41576.49c1390.96,0 2650.31,563.86 3561.79,1475.3 911.43,911.48 1475.3,2170.83 1475.3,3561.79 0,1390.96 -563.86,2650.31 -1475.3,3561.79 -911.48,911.43 -2170.83,1475.3 -3561.79,1475.3 -1390.96,0 -2650.31,-563.86 -3561.79,-1475.3 -911.43,-911.48 -1475.3,-2170.83 -1475.3,-3561.79 0,-1390.96 563.86,-2650.31 1475.3,-3561.79 911.48,-911.43 2170.83,-1475.3 3561.79,-1475.3zm3499.48 1537.61c-895.55,-895.5 -2132.93,-1449.53 -3499.48,-1449.53 -1366.6,0 -2603.92,554.03 -3499.48,1449.53 -895.5,895.55 -1449.53,2132.93 -1449.53,3499.48 0,1366.6 554.03,2603.92 1449.53,3499.48 895.55,895.5 2132.88,1449.53 3499.48,1449.53 1366.55,0 2603.92,-554.03 3499.48,-1449.53 895.5,-895.55 1449.53,-2132.88 1449.53,-3499.48 0,-1366.55 -554.03,-2603.92 -1449.53,-3499.48z"/>
   <path class="fil2" d="M9958.93 41576.49c1390.96,0 2650.31,563.86 3561.79,1475.3 911.43,911.48 1475.3,2170.83 1475.3,3561.79 0,1390.96 -563.86,2650.31 -1475.3,3561.79 -911.48,911.43 -2170.83,1475.3 -3561.79,1475.3 -1390.96,0 -2650.31,-563.86 -3561.79,-1475.3 -911.43,-911.48 -1475.3,-2170.83 -1475.3,-3561.79 0,-1390.96 563.86,-2650.31 1475.3,-3561.79 911.48,-911.43 2170.83,-1475.3 3561.79,-1475.3zm3499.48 1537.61c-895.55,-895.5 -2132.93,-1449.53 -3499.48,-1449.53 -1366.6,0 -2603.92,554.03 -3499.48,1449.53 -895.5,895.55 -1449.53,2132.93 -1449.53,3499.48 0,1366.6 554.03,2603.92 1449.53,3499.48 895.55,895.5 2132.88,1449.53 3499.48,1449.53 1366.55,0 2603.92,-554.03 3499.48,-1449.53 895.5,-895.55 1449.53,-2132.88 1449.53,-3499.48 0,-1366.55 -554.03,-2603.92 -1449.53,-3499.48z"/>
  </g>
 </g>
</svg>

